<?xml version="1.0" standalone="no"?>
<!DOCTYPE svg PUBLIC "-//W3C//DTD SVG 1.1//EN" "http://www.w3.org/Graphics/SVG/1.1/DTD/svg11.dtd" >
<svg>
<metadata>
Created by FontForge 20090622 at Fri Apr 12 18:59:39 2019
 By deploy user
Copyright (c) 2018 by Schizotype. All rights reserved.
</metadata>
<defs>
<font id="GelatoLuxe" horiz-adv-x="0" >
  <font-face 
    font-family="Gelato Luxe"
    font-weight="400"
    font-stretch="normal"
    units-per-em="1000"
    panose-1="2 0 0 0 0 0 0 0 0 0"
    ascent="700"
    descent="-300"
    x-height="378"
    cap-height="701"
    bbox="-4337 -313 1686 922"
    underline-thickness="50"
    underline-position="-50"
    unicode-range="U+000D-U+FB06"
  />
<missing-glyph horiz-adv-x="639" 
d="M588 704v-2q-1 -1 -1 -2q21 17 37 17q8 0 23.5 -12t15.5 -25q0 -2 -17 -44q-95 -239 -138 -592q-3 -13 -13 -13h-14q-9 -9 -20 -9q-3 0 -7.5 2t-6.5 2q-20 5 -321 5q-20 0 -28.5 7t-10 17t-1.5 36q0 110 27 285.5t52 259.5q5 19 24 36.5t41 23.5q85 23 340 23
q18 0 18 -15zM455 123q7 81 30.5 213.5t54.5 246.5l-42 -47q-92 -106 -133 -160q42 -130 90 -253zM538 646q-48 2 -79 2q-95 0 -170 -7q21 -88 55 -198q84 97 154 165q16 16 40 38zM194 105l209 3q-47 92 -90 200q-79 -113 -119 -203zM220 568q-43 -139 -71 -370
q49 74 138 179q-38 102 -67 191z" />
    <glyph glyph-name="s_t" unicode="st" horiz-adv-x="528" 
d="M533 535q0 -5 -6 -15t-17 -26.5t-18 -28.5q-35 -63 -57 -120q31 5 51 14q19 9 31.5 18.5t17.5 14.5t8 5q9 0 17 -10.5t8 -29.5q0 -90 -158 -95q-17 -68 -17 -122q0 -68 34 -68q47 0 123 109q6 9 15 9q13 0 13 -15q0 -7 -5 -17q-52 -94 -100.5 -130.5t-99.5 -36.5
q-44 0 -68.5 33t-24.5 87q0 48 11 100l14 61q-26 5 -45.5 22.5t-19.5 37.5q0 13 8 13q2 0 10 -2.5t23 -4.5t33 -2h10q27 89 62 156q26 49 47 71.5t46 22.5q19 0 36.5 -14t17.5 -37zM107 179q0 -3 -3 -5t-9 -5.5t-10 -6.5q-37 -31 -37 -71q0 -22 11.5 -34.5t26.5 -12.5
q23 0 38.5 21t15.5 54q0 38 -34 110.5t-34 102.5q0 36 24.5 66.5t60.5 30.5q24 0 35.5 -14.5t11.5 -35.5q0 -45 -37 -85q5 -8 31 -42t37 -58.5t11 -54.5q0 -62 -47 -105.5t-120 -43.5q-59 0 -90.5 29t-31.5 70q0 47 35 79.5t78 32.5q15 0 26 -6t11 -16z" />
    <glyph glyph-name="F_i" unicode="Fi" horiz-adv-x="931" 
d="M821 606q51 0 74 27q3 3 6.5 9t6.5 8t8 2q17 0 34.5 -22t17.5 -55q0 -43 -31 -78t-86 -35q-64 0 -202 69q-18 -49 -54 -211q98 8 157 34q18 7 31.5 13.5t18 9t8 4t7.5 1.5q26 0 43 -19t17 -45q0 -21 -24 -66q-44 -84 -44 -133q0 -41 27 -41q45 0 117 103q6 9 15 9
q13 0 13 -15q0 -8 -5 -17q-93 -167 -194 -167q-42 0 -64.5 32t-22.5 81q0 73 40 162q-65 -17 -158 -17q-14 -56 -29.5 -98.5t-41 -86.5t-56.5 -72.5t-77 -46.5t-102 -18q-79 0 -126 40t-47 97q0 47 28 74t67 27q29 0 51 -19t22 -40q0 -3 -16.5 -20.5t-16.5 -43.5
q0 -25 16.5 -40.5t42.5 -15.5q21 0 39 9t32.5 30t25.5 41.5t22.5 57t19 62.5t18.5 71q1 5 2 8q-45 17 -45 47q0 14 10 14q2 0 17 -4.5t31 -5.5q48 176 105 255q-134 67 -206 67q-67 0 -110.5 -41.5t-43.5 -99.5q0 -44 26 -73.5t71 -29.5q46 0 78 24q7 5 11 5q14 0 14 -24
q0 -42 -44 -86t-112 -44q-66 0 -115.5 43.5t-49.5 124.5q0 107 85.5 181t209.5 74q79 0 237 -43t201 -43z" />
    <glyph glyph-name="F_j" unicode="Fj" horiz-adv-x="912" 
d="M821 606q51 0 74 27q3 3 6.5 9t6.5 8t8 2q17 0 34.5 -22t17.5 -55q0 -43 -31 -78t-86 -35q-64 0 -202 69q-18 -49 -54 -211q98 8 157 34q18 7 31.5 13.5t18 9t8 4t7.5 1.5q26 0 43 -19t17 -45q0 -14 -7.5 -31.5t-18 -38t-25 -73.5t-25.5 -126q-2 -10 -2 -14
q34 21 61 50.5t74 95.5q6 9 15 9q13 0 13 -15q0 -8 -5 -17q-39 -70 -74.5 -106t-91.5 -66q-10 -61 -22.5 -105.5t-34.5 -89.5t-57.5 -69t-83.5 -24q-43 0 -75 28t-32 68q0 36 15.5 65t48 52.5t62 38.5t77.5 35q3 26 7 75t6 63q11 84 29 142q-67 -16 -154 -16
q-14 -56 -29.5 -98.5t-41 -86.5t-56.5 -72.5t-77 -46.5t-102 -18q-79 0 -126 40t-47 97q0 47 28 74t67 27q29 0 51 -19t22 -40q0 -3 -16.5 -20.5t-16.5 -43.5q0 -25 16.5 -40.5t42.5 -15.5q21 0 39 9t32.5 30t25.5 41.5t22.5 57t19 62.5t18.5 71q1 5 2 8q-45 17 -45 47
q0 14 10 14q2 0 17 -4.5t31 -5.5q48 176 105 255q-134 67 -206 67q-67 0 -110.5 -41.5t-43.5 -99.5q0 -44 26 -73.5t71 -29.5q46 0 78 24q7 5 11 5q14 0 14 -24q0 -42 -44 -86t-112 -44q-66 0 -115.5 43.5t-49.5 124.5q0 107 85.5 181t209.5 74q79 0 237 -43t201 -43z
M591 -246q55 0 88 172q-114 -67 -114 -134q0 -17 8 -27.5t18 -10.5z" />
    <glyph glyph-name="T_b" unicode="Tb" horiz-adv-x="1076" 
d="M291 -14q45 0 76.5 44t52 115.5t39.5 149t51.5 160t75.5 132.5q-145 51 -216 51t-116.5 -41.5t-45.5 -99.5q0 -44 26 -73.5t71 -29.5q46 0 78 24q7 5 11 5q14 0 14 -24q0 -42 -44 -86t-112 -44q-66 0 -115.5 43.5t-49.5 122.5q0 108 89.5 183t221.5 75q69 0 239.5 -29
t205.5 -33q25 38 57 59t53 21q29 0 46.5 -16.5t17.5 -47.5q0 -40 -35.5 -79.5t-87.5 -50.5q-21 -45 -37 -92q-20 -56 -32 -96q38 55 116 55q55 0 87 -40t32 -99q0 -91 -67.5 -172.5t-159.5 -81.5q-72 0 -110 47t-38 122q0 38 17 115t45 155q14 42 37 94q-46 10 -120 35
q-20 -41 -39 -112t-31.5 -136.5t-38 -137.5t-57.5 -124.5t-90.5 -87t-137.5 -34.5t-126 40t-47 97q0 47 28 74t67 27q29 0 51 -19t22 -40q0 -3 -16.5 -20.5t-16.5 -43.5q0 -25 16.5 -40.5t42.5 -15.5zM831 233q-22 0 -26 26q-14 -61 -14 -104q0 -103 55 -103q44 0 79 56
t35 117q0 45 -15.5 68t-39.5 23q-21 0 -37 -18.5t-22 -49.5q-3 -15 -15 -15z" />
    <glyph glyph-name="T_h" unicode="Th" horiz-adv-x="1104" 
d="M291 -14q45 0 76.5 44t52 115.5t39.5 149t51.5 160t75.5 132.5q-145 51 -216 51t-116.5 -41.5t-45.5 -99.5q0 -44 26 -73.5t71 -29.5q46 0 78 24q7 5 11 5q14 0 14 -24q0 -42 -44 -86t-112 -44q-66 0 -115.5 43.5t-49.5 122.5q0 108 89.5 183t221.5 75q69 0 239.5 -29
t205.5 -33q25 38 57 59t53 21q29 0 46.5 -16.5t17.5 -47.5q0 -36 -31 -74.5t-78 -52.5q-38 -64 -75.5 -176.5t-50.5 -212.5q125 247 222 247q24 0 40.5 -17.5t16.5 -52.5q0 -44 -30.5 -114t-30.5 -89q0 -24 17 -24q39 0 109 100q6 9 15 9q13 0 13 -15q0 -8 -5 -17
q-52 -94 -95 -130.5t-84 -36.5q-35 0 -57.5 24.5t-22.5 63.5q0 40 23 107t23 73q0 8 -6 8q-18 0 -56.5 -55t-63.5 -122q-4 -11 -11 -32t-10.5 -29t-9.5 -19t-13 -15t-17 -4q-47 0 -67 50q-8 21 -8 70q0 40 11 100q33 171 98 313q-43 9 -119 35q-20 -41 -39 -112
t-31.5 -136.5t-38 -137.5t-57.5 -124.5t-90.5 -87t-137.5 -34.5t-126 40t-47 97q0 47 28 74t67 27q29 0 51 -19t22 -40q0 -3 -16.5 -20.5t-16.5 -43.5q0 -25 16.5 -40.5t42.5 -15.5z" />
    <glyph glyph-name="T_i" unicode="Ti" horiz-adv-x="873" 
d="M783 604q38 0 62 29q3 3 6 7.5t4.5 6.5t4 3.5t6.5 1.5q17 0 34.5 -22t17.5 -55q0 -44 -31 -78.5t-89 -34.5q-54 0 -153 54q-15 -42 -32 -114.5t-29.5 -131t-38 -125.5t-58 -112t-88.5 -75.5t-129 -30.5q-79 0 -126 40t-47 97q0 47 28 74t67 27q29 0 51 -19t22 -40
q0 -3 -16.5 -20.5t-16.5 -43.5q0 -25 16.5 -40.5t42.5 -15.5q53 0 89 64.5t54.5 149t53 191.5t78.5 170q-131 77 -201 77t-113.5 -41.5t-43.5 -99.5q0 -44 26 -73.5t71 -29.5q46 0 78 24q7 5 11 5q14 0 14 -24q0 -42 -44 -86t-112 -44q-66 0 -115.5 43.5t-49.5 120.5
q0 110 85 184.5t219 74.5q64 0 206 -44t186 -44zM762 378q26 0 41.5 -17t15.5 -43q0 -21 -24 -66q-44 -84 -44 -133q0 -41 27 -41q45 0 117 103q6 9 15 9q13 0 13 -15q0 -8 -5 -17q-93 -167 -194 -167q-42 0 -64.5 32t-22.5 81q0 75 34 160q46 114 91 114z" />
    <glyph glyph-name="W_h" unicode="Wh" horiz-adv-x="1636" 
d="M690 701q31 0 50 -12t19 -35q0 -24 -22.5 -38.5t-58.5 -14.5q-10 0 -32 2q-85 -76 -144 -206t-59 -230q0 -57 22 -90t67 -33q78 0 135 70q1 108 29 217.5t77.5 184t104.5 74.5q51 0 51 -76q0 -60 -35.5 -159.5t-86.5 -191.5q2 -63 26.5 -103t64.5 -40q62 0 117 65.5
t87 156t42 181.5q-87 26 -133 85t-46 123q0 52 31 87t85 35q69 0 104 -61.5t35 -162.5q0 -32 -5 -74q28 -4 70 -4q30 80 65 139q69 121 145 121q40 0 63 -25.5t23 -65.5q0 -59 -48.5 -115.5t-139.5 -81.5q-54 -150 -76 -285q121 240 219 240q24 0 40.5 -17.5t16.5 -52.5
q0 -44 -30.5 -114t-30.5 -89q0 -24 17 -24q39 0 109 100q6 9 15 9q13 0 13 -15q0 -8 -5 -17q-52 -94 -95 -130.5t-84 -36.5q-35 0 -57.5 24.5t-22.5 63.5q0 40 23 107t23 73q0 8 -6 8q-18 0 -56.5 -55t-63.5 -122q-4 -11 -11 -32t-10.5 -29t-9.5 -19t-13 -15t-17 -4
q-47 0 -67 50q-8 21 -8 70q0 40 11 100q19 99 53 196h-2q-30 0 -59 3q-15 -90 -49.5 -178t-83 -161.5t-114 -118.5t-136.5 -45q-50 0 -91 36t-58 93q-44 -54 -102 -83.5t-117 -29.5q-83 0 -123 53t-40 142q0 126 71 274t179 235q-82 21 -135 21q-87 0 -134 -34t-47 -88
q0 -27 14.5 -43.5t37.5 -16.5q26 0 48 19q7 5 11 5q14 0 14 -25q0 -40 -38.5 -78.5t-96.5 -38.5q-55 0 -92 37t-37 98q0 93 87 155.5t227 62.5q26 0 55 -3t47.5 -5.5t52 -8.5t45.5 -8q42 25 86 25zM1086 616q-14 0 -22.5 -11.5t-8.5 -29.5q0 -28 22.5 -56.5t70.5 -46.5v13
q0 59 -16.5 95t-45.5 36zM1507 631q-32 0 -96 -159q57 23 86.5 61t29.5 70q0 28 -20 28z" />
    <glyph glyph-name="f_j" unicode="fj" horiz-adv-x="595" 
d="M399 601q0 -65 -73.5 -172.5t-174.5 -181.5q32 -1 68 -52q65 12 128.5 58.5t104.5 110.5q10 14 26 14q29 0 51 -27t22 -51q0 -29 -36 -226q74 65 98 105q6 10 16 10q15 0 15 -16q0 -7 -4 -15q-50 -92 -138 -157q-9 -48 -16.5 -82t-21.5 -78t-29.5 -71t-38.5 -46.5
t-51 -19.5q-29 0 -48.5 24t-19.5 64q0 43 33 97t83 100q29 188 34 251q-45 -41 -99.5 -69t-90.5 -32q16 -35 28 -90.5t12 -92.5q0 -97 -38 -160.5t-100 -63.5q-61 0 -102 66t-41 176q0 114 30.5 247t76.5 240t103 178.5t106 71.5q43 0 65 -29.5t22 -80.5zM208 -23
q0 89 -31 156q-31 6 -52 32q-15 -75 -15 -155q0 -69 14.5 -108.5t38.5 -39.5q20 0 32.5 34t12.5 81zM552 444q-27 0 -45.5 16.5t-18.5 41.5q0 34 25.5 57.5t60.5 23.5q33 0 50 -19t17 -44q0 -33 -26.5 -54.5t-62.5 -21.5zM315 566q-12 0 -37 -32t-57.5 -94t-57.5 -134
q66 61 114.5 135.5t48.5 108.5q0 16 -11 16z" />
    <glyph glyph-name="o_t" unicode="ot" horiz-adv-x="622" 
d="M627 535q0 -5 -6 -15t-17 -26.5t-18 -28.5q-37 -66 -59 -128q33 12 53 22q16 8 27.5 15.5t15.5 12t7.5 7.5t7.5 3q9 0 16.5 -11t7.5 -30q0 -82 -160 -102q-15 -63 -15 -114q0 -68 34 -68q47 0 123 109q6 9 15 9q13 0 13 -15q0 -8 -5 -17q-52 -94 -100.5 -130.5
t-99.5 -36.5q-44 0 -68.5 33t-24.5 87q0 48 11 100q1 8 8 37h-46q-1 -100 -62 -178.5t-153 -78.5q-63 0 -98.5 39t-35.5 98q0 78 56 144t104 73q4 25 22.5 40t50.5 15q38 0 67.5 -23.5t41.5 -68.5q8 -1 25 -1q15 0 45 2q33 113 70 183q26 49 47 71.5t46 22.5q19 0 36.5 -14
t17.5 -37zM271 223q0 19 -3 32q-80 11 -101 44q-24 -13 -44 -54.5t-20 -85.5q0 -41 18 -68t50 -27q44 0 72 48.5t28 110.5z" />
    <glyph glyph-name="o_t_t" unicode="ott" horiz-adv-x="873" 
d="M878 539q0 -8 -5 -17.5t-16.5 -26t-19.5 -30.5q-32 -53 -58 -125q31 9 52 19q17 8 29.5 17.5t18.5 15t10 5.5q8 0 16 -10.5t8 -30.5q0 -80 -161 -105q-14 -56 -14 -107q0 -72 36 -72q17 0 37.5 15t34 30.5t30.5 38.5t19 25q7 9 15 9q13 0 13 -14q0 -6 -4 -18
q-18 -54 -81.5 -110.5t-121.5 -56.5q-37 0 -60.5 25.5t-29.5 71.5q-33 -41 -77 -69t-84 -28q-43 0 -67 33.5t-24 90.5q0 40 11 96l6 32l-44 3q-1 -93 -63 -174t-153 -81q-62 0 -97.5 39t-35.5 98q0 78 55.5 143.5t103.5 73.5q3 24 22.5 39.5t49.5 15.5q38 0 67.5 -25.5
t42.5 -68.5q24 -4 67 -7q33 113 74 193q48 94 93 94q21 0 37.5 -15t16.5 -32q0 -8 -5 -17.5t-16.5 -26t-19.5 -30.5q-43 -73 -73 -168q72 3 148 15q30 102 70 180q48 94 93 94q21 0 37.5 -15t16.5 -32zM271 223q0 20 -3 35q-70 15 -94 40q-26 -15 -48.5 -56t-22.5 -83
q0 -41 18 -68t50 -27q44 0 72 48.5t28 110.5zM531 239h-33q-11 -52 -11 -95q0 -72 36 -72q40 0 105 88q5 35 8 51l6 30q-68 -2 -111 -2z" />
    <glyph glyph-name="t_t" unicode="tt" horiz-adv-x="512" 
d="M517 535q0 -5 -6 -15t-17 -26.5t-18 -28.5q-31 -53 -58 -123q31 7 52 17q19 9 31.5 18.5t17.5 14.5t8 5q9 0 17 -10.5t8 -29.5q0 -37 -32 -62.5t-127 -35.5q-16 -62 -16 -119q0 -68 34 -68q47 0 123 109q6 9 15 9q13 0 13 -15q0 -8 -5 -17q-52 -94 -100.5 -130.5
t-99.5 -36.5q-40 0 -64 27.5t-28 73.5q-73 -101 -159 -101q-44 0 -68.5 33t-24.5 87q0 48 11 100q6 32 17 72q-43 18 -43 43q0 13 8 13q1 0 5.5 -1.5t15.5 -4.5t27 -5q30 97 65 164q26 49 47 71.5t46 22.5q19 0 36.5 -14t17.5 -37q0 -5 -6 -15t-17 -26.5t-18 -28.5
q-39 -68 -65 -144h41q63 0 103 4q31 101 66 167q26 49 47 71.5t46 22.5q19 0 36.5 -14t17.5 -37zM271 254q-79 0 -129 7q-16 -64 -16 -121q0 -68 34 -68q42 0 106 86q3 27 9 53l10 43h-14z" />
    <glyph glyph-name=".notdef" horiz-adv-x="639" 
d="M588 704v-2q-1 -1 -1 -2q21 17 37 17q8 0 23.5 -12t15.5 -25q0 -2 -17 -44q-95 -239 -138 -592q-3 -13 -13 -13h-14q-9 -9 -20 -9q-3 0 -7.5 2t-6.5 2q-20 5 -321 5q-20 0 -28.5 7t-10 17t-1.5 36q0 110 27 285.5t52 259.5q5 19 24 36.5t41 23.5q85 23 340 23
q18 0 18 -15zM455 123q7 81 30.5 213.5t54.5 246.5l-42 -47q-92 -106 -133 -160q42 -130 90 -253zM538 646q-48 2 -79 2q-95 0 -170 -7q21 -88 55 -198q84 97 154 165q16 16 40 38zM194 105l209 3q-47 92 -90 200q-79 -113 -119 -203zM220 568q-43 -139 -71 -370
q49 74 138 179q-38 102 -67 191z" />
    <glyph glyph-name=".null" 
 />
    <glyph glyph-name="nonmarkingreturn" horiz-adv-x="333" 
 />
    <glyph glyph-name="NULL" 
 />
    <glyph glyph-name="NULL" 
 />
    <glyph glyph-name="CR" unicode="&#xd;" horiz-adv-x="225" 
 />
    <glyph glyph-name="space" unicode=" " horiz-adv-x="225" 
 />
    <glyph glyph-name="exclam" unicode="!" horiz-adv-x="270" 
d="M312 523q-26 -45 -68 -141.5t-69 -193.5q-5 -17 -16 -17q-40 0 -40 51q0 48 18.5 138t46.5 174q24 70 41 89t49 19q26 0 48 -17t22 -40q0 -3 -1 -6t-3.5 -8.5t-5.5 -10.5l-9.5 -16zM109 -9q-26 0 -43.5 16.5t-17.5 39.5q0 32 26 55.5t61 23.5q26 0 42 -16t16 -39
q0 -33 -25 -56.5t-59 -23.5z" />
    <glyph glyph-name="quotedbl" unicode="&#x22;" horiz-adv-x="365" 
d="M143 455q-14 0 -14 16q0 5 6 16.5t16.5 41t19.5 72.5q6 29 10 42.5t17 25.5t35 12q27 0 45 -17.5t18 -48.5q0 -49 -56 -104.5t-97 -55.5zM306 455q-14 0 -14 16q0 5 6 16.5t16.5 41t19.5 72.5q6 29 10 42.5t17 25.5t35 12q27 0 45 -17.5t18 -48.5q0 -49 -56 -104.5
t-97 -55.5z" />
    <glyph glyph-name="numbersign" unicode="#" horiz-adv-x="598" 
d="M184 343q-53 0 -88 14t-35 39q0 13 8 13q1 0 10 -2.5t27 -4.5t41 -2q38 0 95 11l99 234q5 12 15 12q14 0 21 -7.5t7 -14.5q0 -30 -73 -207q53 15 109 38l76 213q4 13 15 13q28 0 28 -20q0 -26 -45 -168q18 10 39 26l19 15.5l13.5 11.5t9 7.5t7 5t5.5 1.5q13 0 22.5 -18.5
t9.5 -44.5q0 -27 -44.5 -60t-117.5 -59q-10 -30 -32 -90q26 8 52 20q18 9 30.5 18t17.5 13.5t8 4.5q9 0 19.5 -18t10.5 -41q0 -28 -46.5 -52t-126.5 -40q-40 -99 -57 -133q-38 -77 -89 -77q-13 0 -21.5 4.5t-8.5 10.5q0 3 6 11.5t24 41t41 80.5l22 49q-53 -7 -103 -8
q-40 -88 -66 -132q-43 -76 -83 -76q-14 0 -24.5 6.5t-10.5 12.5q0 2 5 8t25 37t49 82l33 60h-1q-51 0 -87 18t-36 44q0 13 8 13q1 0 10 -2t27 -4.5t41 -2.5q34 0 73 3l14.5 29.5l16.5 34.5l14 29h-28zM345 277l37 90q-57 -14 -104 -19l-40 -90q64 9 107 19z" />
    <glyph glyph-name="dollar" unicode="$" horiz-adv-x="555" 
d="M439 708l-9 -21q56 -8 91 -35t35 -70q0 -34 -30 -58.5t-73 -24.5q-13 0 -22 5.5t-9 12.5q0 1 9.5 20t9.5 43q0 34 -31 54q-33 -101 -64 -218l20 -12q38 -23 58.5 -37.5t48 -39.5t40 -54.5t12.5 -64.5q0 -93 -80.5 -161t-200.5 -70q-10 -45 -18 -92q-4 -14 -13 -14
q-33 0 -33 42q0 15 8 68q-87 12 -139 60t-52 110q0 49 32.5 81.5t75.5 32.5q26 0 43.5 -11.5t17.5 -24.5q0 -6 -17.5 -31t-17.5 -54q0 -32 17.5 -59t49.5 -41q24 133 52 261q-64 41 -98.5 80.5t-34.5 96.5q0 76 66.5 135.5t162.5 70.5l8 25q16 44 28 57.5t32 13.5
q17 0 31.5 -11t14.5 -26q0 -3 -2 -6.5l-7.5 -12.5t-11.5 -20zM401 143q0 63 -92 124q-25 -99 -54 -235h8q60 0 99 31t39 80zM241 539q0 -42 43 -80q23 100 48 186q-37 -10 -64 -39.5t-27 -66.5z" />
    <glyph glyph-name="percent" unicode="%" horiz-adv-x="645" 
d="M640 593q9 9 19 9q9 0 14 -8.5t5 -19.5q0 -12 -6 -18l-38 -33l-122 -106.5l-117.5 -111t-127 -140t-96.5 -142.5q-6 -11 -10.5 -23t-7.5 -16t-8 -4q-12 0 -24.5 18t-12.5 40q0 41 115.5 171t263.5 260q-74 -26 -143 -29q-19 -68 -66 -116t-108 -48q-47 0 -78 34t-31 83
q0 64 39.5 119t83.5 73q9 25 30 39.5t44 14.5q42 0 69 -34.5t27 -95.5q0 -10 -2 -30q68 1 136 27.5t117 59.5zM349 106q0 61 37 114.5t80 73.5q7 26 30 40.5t48 14.5q40 0 67 -35.5t27 -96.5q0 -52 -21.5 -104t-64.5 -88.5t-95 -36.5q-50 0 -79 34t-29 84zM539 237
q0 -5 -9 -11t-20 -6q-12 0 -24.5 8t-18.5 23q-35 -40 -35 -97q0 -39 16.5 -59t42.5 -20q40 0 70.5 38.5t30.5 96.5q0 32 -11.5 45.5t-23.5 13.5q-8 0 -14 -6t-6 -15q0 -4 1 -8zM203 362q29 0 54.5 22.5t38.5 57.5q-48 7 -79.5 34.5t-36.5 64.5q-37 -41 -37 -99
q0 -39 17 -59.5t43 -20.5zM251 532q0 -16 14.5 -29.5t40.5 -19.5q2 14 2 22q0 53 -37 53q-9 0 -14.5 -8t-5.5 -18z" />
    <glyph glyph-name="ampersand" unicode="&#x26;" horiz-adv-x="859" 
d="M745 440q46 0 74.5 -27t28.5 -69t-27 -70t-56 -28q-9 0 -14 9q-16 35 -50 35q-19 0 -36.5 -9t-37 -29t-33.5 -37t-38.5 -50l-38.5 -51q82 -58 164 -58q71 0 113 55q9 12 14 12q15 0 15 -18q0 -17 -12.5 -38.5t-36 -43t-65 -36t-91.5 -14.5q-94 0 -186 53
q-90 -73 -197 -73q-99 0 -167 54t-68 149q0 46 17 85t49.5 67.5t64 48t73.5 38.5q-1 8 -1 25q0 117 62 203.5t166 86.5q61 0 95 -30.5t34 -79.5q0 -62 -58.5 -110.5t-171.5 -95.5q34 -145 149 -249q22 30 49 77l47.5 81t46 67.5t56.5 51.5t67 18zM138 186q0 -70 45.5 -113.5
t111.5 -43.5q50 0 94 27q-67 52 -113.5 124.5t-63.5 154.5q-74 -61 -74 -149zM449 594q0 26 -11 42t-29 16q-35 0 -61.5 -51t-26.5 -123q0 -20 1 -30q127 65 127 146z" />
    <glyph glyph-name="quotesingle" unicode="'" horiz-adv-x="202" 
d="M143 455q-14 0 -14 16q0 5 6 16.5t16.5 41t19.5 72.5q6 29 10 42.5t17 25.5t35 12q27 0 45 -17.5t18 -48.5q0 -49 -56 -104.5t-97 -55.5z" />
    <glyph glyph-name="parenleft" unicode="(" horiz-adv-x="324" 
d="M170 140q0 -135 57 -214q23 -31 23 -37q0 -12 -13 -12q-17 0 -44 19.5t-55.5 54.5t-48.5 95t-20 130q0 159 96 305.5t242 215.5q42 20 74 20q17 0 17 -12t-38 -32q-36 -21 -70.5 -49.5t-76 -76.5t-72 -104t-51 -135.5t-20.5 -167.5z" />
    <glyph glyph-name="parenright" unicode=")" horiz-adv-x="325" 
d="M215 454q0 135 -57 214q-23 31 -23 37q0 12 13 12q17 0 44 -19.5t55.5 -54.5t48.5 -95t20 -130q0 -159 -96 -305.5t-242 -215.5q-42 -20 -74 -20q-17 0 -17 12t38 32q36 21 70.5 49.5t76 76.5t72 104t51 135.5t20.5 167.5z" />
    <glyph glyph-name="asterisk" unicode="*" horiz-adv-x="388" 
d="M138 451q0 6 10.5 12t37 23.5t53.5 45.5q-39 6 -63 20.5t-24 33.5q0 13 9 13q1 0 24.5 -3t40.5 -3q29 0 43 1q8 141 74 141q31 0 31 -29q0 -7 -2 -15.5t-4 -13.5l-2 -5q-16 -37 -17 -66q26 7 39 14q16 7 28 14.5t16.5 12.5t8.5 8t7 3q11 0 19.5 -11t8.5 -29
q0 -73 -121 -87q7 -24 20.5 -45.5t23 -33t9.5 -13.5q0 -18 -20.5 -32.5t-48.5 -14.5q-43 0 -62 100q-45 -73 -92 -73q-19 0 -33 9.5t-14 22.5z" />
    <glyph glyph-name="plus" unicode="+" horiz-adv-x="441" 
d="M322 392q-7 -14 -29 -75q37 5 57 14q24 9 41 17.5t23.5 12t10.5 3.5q12 0 19.5 -13.5t7.5 -36.5q0 -82 -189 -85q-25 -81 -42 -156q-4 -16 -13 -16q-30 0 -30 49q0 44 11 124q-129 10 -129 77q0 16 10 16q3 0 15 -3.5t36 -6.5t56 -3h26q9 48 21 92q19 67 32 85t37 18
q19 0 36 -16.5t17 -37.5q0 -6 -24 -59z" />
    <glyph glyph-name="comma" unicode="," horiz-adv-x="234" 
d="M32 -101q-14 0 -14 16q0 5 6 16.5t16.5 41t19.5 72.5q6 29 10 42.5t17 25.5t35 12q27 0 45 -17.5t18 -48.5q0 -49 -56 -104.5t-97 -55.5z" />
    <glyph glyph-name="hyphen" unicode="-" horiz-adv-x="390" 
d="M181 147q-113 0 -113 64q0 13 8 13q1 0 15.5 -4.5t31.5 -4.5q110 0 166 26q18 9 31 17t17.5 11t8.5 3q9 0 15 -12.5t6 -32.5q0 -80 -186 -80z" />
    <glyph glyph-name="period" unicode="." horiz-adv-x="234" 
d="M109 -9q-26 0 -43.5 16.5t-17.5 39.5q0 32 26 55.5t61 23.5q26 0 42 -16t16 -39q0 -33 -25 -56.5t-59 -23.5z" />
    <glyph glyph-name="slash" unicode="/" horiz-adv-x="332" 
d="M-26 -76q0 65 124.5 278.5t243.5 374.5q79 106 101 106q10 0 10 -14q0 -16 -13 -37q-5 -8 -15.5 -23l-32.5 -47.5l-50 -77.5q-217 -345 -287 -590q-3 -11 -4.5 -22t-2.5 -15.5t-4 -7.5t-9 -3q-16 0 -38.5 23t-22.5 55z" />
    <glyph glyph-name="zero" unicode="0" horiz-adv-x="581" 
d="M244 -23q-93 0 -154 67t-61 184q0 115 56 219t148.5 167t193.5 63q38 0 64.5 -14.5t26.5 -35.5q0 -9 -11 -9q-9 0 -26 4.5t-46 4.5q-103 0 -188.5 -120t-85.5 -274q0 -83 27.5 -136.5t80.5 -53.5q45 0 87 49t67 124.5t25 151.5q0 43 -9.5 84.5t-31 71.5t-49.5 30
q-26 0 -26 9q0 10 28 23t55 13q71 0 113 -54t42 -139q0 -176 -97 -302.5t-229 -126.5z" />
    <glyph glyph-name="one" unicode="1" horiz-adv-x="387" 
d="M235 31q-4 -26 -4 -43q0 -7 -5.5 -12t-13.5 -5q-36 0 -73 29.5t-37 63.5q0 39 40.5 164.5t86.5 246.5q-80 -35 -148 -35q-36 0 -36 20q0 4 1 7t3 5l4 4t6.5 3.5t7 2.5t9 3t9.5 3q45 15 101.5 44.5t94.5 64.5q51 100 100 100q19 0 32 -13.5t13 -32.5q0 -51 -71 -131
q-78 -229 -120 -489z" />
    <glyph glyph-name="two" unicode="2" horiz-adv-x="527" 
d="M358 -29q-50 0 -140 33t-133 33q-14 -18 -38 -30.5t-43 -12.5q-18 0 -28 9.5t-10 24.5q0 30 31 54.5t76 33.5l54.5 45l58 47.5l53 46t52 49.5t42 48.5t36 53t20.5 51.5t9 55q0 55 -30 87.5t-75 32.5q-43 0 -73 -28.5t-30 -65.5q0 -25 14 -40.5t36 -15.5t43 18q7 5 11 5
q13 0 13 -24q0 -46 -36.5 -79.5t-87.5 -33.5t-86 33.5t-35 89.5q0 84 74 142t180 58q92 0 155 -48t63 -131q0 -41 -16.5 -80t-40.5 -68.5t-65 -63.5t-76 -58.5l-88 -61t-87 -62.5q122 -10 172 -10q59 0 88 42q9 15 17 15q13 0 26.5 -22.5t13.5 -54.5q0 -55 -34.5 -86
t-85.5 -31z" />
    <glyph glyph-name="three" unicode="3" horiz-adv-x="547" 
d="M216 337q0 22 34 37t83 15h12q34 27 51 64.5t17 72.5q0 46 -28 76t-76 30q-41 0 -67 -22t-26 -53q0 -20 11 -35t27 -19q12 -3 12 -13q0 -24 -25 -44.5t-61 -20.5q-40 0 -67.5 27t-27.5 72q0 72 71.5 119.5t169.5 47.5q90 0 151 -41.5t61 -112.5q0 -98 -118 -162
q44 -15 71 -53.5t27 -89.5q0 -94 -98 -174.5t-220 -80.5q-85 0 -143 42.5t-58 111.5q0 50 32.5 84t74.5 34q26 0 44 -13.5t18 -26.5q0 -6 -15.5 -34t-15.5 -57q0 -36 21.5 -61t57.5 -25q65 0 111.5 54.5t46.5 131.5q0 75 -58 104q-26 -16 -55 -16q-45 0 -45 31z" />
    <glyph glyph-name="four" unicode="4" horiz-adv-x="549" 
d="M222 34q0 28 32 107q-111 37 -145 37q-55 -41 -84 -41q-18 0 -28 9.5t-10 24.5q0 29 28 48t71 25q183 198 183 345q0 18 -6 34t-6 17q0 20 25 35.5t58 15.5q43 0 65 -26.5t22 -61.5q0 -99 -263 -356l133 -8q37 77 72 133.5t47 56.5t21.5 -7.5t9.5 -13.5l-11 -20
q-11 -21 -29 -63t-31 -88h6q26 0 53 11.5t38 27.5q9 15 17 15q13 0 26.5 -22.5t13.5 -54.5q0 -54 -37.5 -79t-92.5 -25q-22 0 -52 5q-17 -96 -17 -149q0 -7 -6 -11.5t-13 -4.5q-32 0 -61 27.5t-29 56.5z" />
    <glyph glyph-name="five" unicode="5" horiz-adv-x="533" 
d="M232 589q-19 -111 -43 -180q69 24 129 24q86 0 134 -50t48 -124q0 -111 -88.5 -196.5t-210.5 -85.5q-85 0 -144 43t-59 111q0 50 31.5 83t73.5 33q29 0 48 -14.5t19 -28.5q0 -5 -17 -28t-17 -56q0 -38 22 -63t62 -25q60 0 102 59t42 140q0 130 -121 130q-32 0 -69 -11.5
t-46 -11.5q-13 0 -20.5 7.5t-7.5 18.5q0 4 1.5 10.5l4 18l4.5 20.5q23 107 34 192q3 23 29 54.5t69 31.5q11 0 81 -11.5t112 -11.5q37 0 59 16q17 12 20 12q12 0 21 -16.5t9 -37.5q0 -46 -25.5 -71.5t-75.5 -25.5q-27 0 -62 7t-80.5 19.5t-68.5 17.5z" />
    <glyph glyph-name="six" unicode="6" horiz-adv-x="545" 
d="M242 -22q-97 0 -155 69t-58 178q0 105 54.5 212.5t150 180.5t200.5 73q69 0 110 -30.5t41 -75.5q0 -50 -36.5 -76t-78.5 -26q-18 0 -28.5 5.5t-10.5 12.5q0 1 14.5 26t14.5 54q0 25 -15.5 39.5t-38.5 14.5q-67 0 -134 -88t-94 -204q26 38 70.5 64t99.5 26q76 0 123 -47.5
t47 -128.5q0 -112 -85 -195.5t-191 -83.5zM298 368q-37 0 -73.5 -26.5t-55.5 -58.5q-2 -14 -2 -41q0 -82 29 -137t78 -55q50 0 83.5 56.5t33.5 129.5q0 58 -24.5 95t-68.5 37z" />
    <glyph glyph-name="seven" unicode="7" horiz-adv-x="468" 
d="M185 691q51 0 147 -38.5t132 -38.5q45 54 80 54q18 0 28 -9.5t10 -24.5q0 -30 -34 -56.5t-82 -36.5q-227 -235 -227 -376q0 -73 47 -85q16 -4 16 -16q0 -24 -35.5 -53.5t-82.5 -29.5q-46 0 -76.5 30t-30.5 78q0 141 321 448q-13 1 -82.5 9t-106.5 8q-58 0 -87 -42
q-9 -15 -17 -15q-13 0 -26.5 22.5t-13.5 54.5q0 55 34.5 86t85.5 31z" />
    <glyph glyph-name="eight" unicode="8" horiz-adv-x="553" 
d="M545 552q0 -91 -152 -165q63 -44 98.5 -87.5t35.5 -103.5q0 -92 -80.5 -159.5t-199.5 -67.5q-109 0 -173.5 55t-64.5 129q0 68 53 122.5t131 92.5q-66 63 -66 132q0 79 67 134t162 55q82 0 135.5 -38.5t53.5 -98.5zM401 142q0 18 -7.5 36.5t-15 31t-27.5 31t-29.5 26
l-37.5 28.5l-36 27q-115 -63 -115 -159q0 -55 35.5 -96.5t95.5 -41.5q58 0 97.5 33.5t39.5 83.5zM248 547q0 -35 23.5 -64t68.5 -60q99 58 99 129q0 34 -23.5 59t-64.5 25t-72 -23t-31 -66z" />
    <glyph glyph-name="nine" unicode="9" horiz-adv-x="541" 
d="M228 242q-72 0 -123 51.5t-51 141.5q0 108 77 182t190 74q109 0 166 -70t57 -164q0 -77 -36.5 -155.5t-94.5 -139.5t-127.5 -106.5t-137.5 -65.5q-41 -12 -66 -12q-35 0 -35 18q0 13 28 22q54 18 110.5 55.5t107 91.5t82.5 129t32 156q0 77 -32 128t-81 51
q-45 0 -78 -48.5t-33 -116.5q0 -63 32 -107t82 -44q13 0 31.5 4.5t21.5 4.5q7 0 7 -10q0 -22 -39 -46t-90 -24z" />
    <glyph glyph-name="colon" unicode=":" horiz-adv-x="234" 
d="M109 -9q-26 0 -43.5 16.5t-17.5 39.5q0 32 26 55.5t61 23.5q26 0 42 -16t16 -39q0 -33 -25 -56.5t-59 -23.5zM152 227q-26 0 -43.5 16.5t-17.5 39.5q0 32 26 55.5t61 23.5q26 0 42 -16t16 -39q0 -33 -25 -56.5t-59 -23.5z" />
    <glyph glyph-name="semicolon" unicode=";" horiz-adv-x="234" 
d="M32 -101q-14 0 -14 16q0 5 6 16.5t16.5 41t19.5 72.5q6 29 10 42.5t17 25.5t35 12q27 0 45 -17.5t18 -48.5q0 -49 -56 -104.5t-97 -55.5zM152 227q-26 0 -43.5 16.5t-17.5 39.5q0 32 26 55.5t61 23.5q26 0 42 -16t16 -39q0 -33 -25 -56.5t-59 -23.5z" />
    <glyph glyph-name="less" unicode="&#x3c;" horiz-adv-x="449" 
d="M355 101q-46 0 -116 40t-121 88.5t-51 73.5q0 10 9.5 21t15.5 13q2 1 9 2.5t23.5 6.5t42.5 15q92 34 150 68.5t76 50.5t26 16q19 0 31.5 -22t12.5 -45q0 -30 -55 -63.5t-128.5 -55.5t-129.5 -24q40 -25 101 -48q58 -22 96.5 -33.5t52 -13.5t15.5 -3q11 -5 11 -20
q0 -18 -22 -42.5t-49 -24.5z" />
    <glyph glyph-name="equal" unicode="=" horiz-adv-x="441" 
d="M278 322q-22 0 -48 2.5t-61.5 9t-58.5 22.5t-24 39q0 16 9 16q3 0 13.5 -2.5t31.5 -5t48 -2.5q48 0 102.5 9t82.5 19q25 8 42 16.5t23 12t11 3.5q12 0 20 -12.5t8 -36.5q0 -85 -199 -90zM314 148q-107 0 -183 26.5t-76 63.5q0 23 11 23q2 0 17.5 -6.5t55 -13t98.5 -6.5
q57 0 100.5 8t64 16t21.5 8q23 0 23 -41q0 -78 -132 -78z" />
    <glyph glyph-name="greater" unicode="&#x3e;" horiz-adv-x="449" 
d="M97 105q-17 0 -38.5 16.5t-21.5 36.5q0 15 11 20q2 1 32.5 8.5t85.5 25t114 42.5q40 16 59 29q-83 21 -163.5 71t-80.5 78q0 21 17 44t33 23q5 0 23.5 -18.5t75 -57.5t142.5 -77l44 -17q12 -3 19.5 -15t7.5 -25q0 -35 -154.5 -109.5t-205.5 -74.5z" />
    <glyph glyph-name="question" unicode="?" horiz-adv-x="404" 
d="M452 497q0 -38 -22 -72t-56.5 -61t-71.5 -52.5t-73 -58t-54 -65.5q-1 -2 -3 -5.5t-2.5 -5t-2 -3.5t-4 -2.5t-5.5 -0.5q-15 0 -27 15t-12 33q0 25 33 63t72 72t72 81.5t33 90.5q0 27 -13 44.5t-39 17.5q-28 0 -52.5 -29t-24.5 -76q0 -13 3 -25t3 -14q0 -16 -32 -16
q-37 0 -64.5 23.5t-27.5 63.5q0 54 54 91.5t130 37.5q80 0 133 -42t53 -105zM110 -9q-27 0 -44.5 16t-17.5 41q0 31 26 54.5t60 23.5q27 0 43 -16t16 -41q0 -31 -25 -54.5t-58 -23.5z" />
    <glyph glyph-name="at" unicode="@" horiz-adv-x="686" 
d="M686 303q0 -74 -29.5 -146.5t-78.5 -119t-102 -46.5q-49 0 -70 41q-46 -41 -101 -41q-50 0 -82.5 34.5t-32.5 94.5q0 98 70.5 178t158.5 80q39 0 65 -19.5t26 -44.5q0 -1 -0.5 -3t-0.5 -3h5q40 0 40 -47q0 -56 -67 -158q7 -30 35 -30q40 0 72.5 60t32.5 139
q0 89 -47.5 145t-140.5 56q-135 0 -233 -109.5t-98 -245.5q0 -97 55.5 -163t167.5 -66q49 0 93.5 14t69.5 31.5l45.5 31.5t27.5 14q8 0 8 -8t-11.5 -25.5t-36 -41t-57 -44.5t-81.5 -35.5t-102 -14.5q-69 0 -124 24t-88.5 64t-51 89.5t-17.5 103.5q0 104 58 205t161.5 167.5
t221.5 66.5q112 0 175.5 -60.5t63.5 -167.5zM353 69q23 0 40 17q0 92 44 166q-21 4 -21 12q0 4 4 12.5t4 17.5q0 13 -7.5 21t-18.5 8q-32 0 -65.5 -51.5t-33.5 -121.5q0 -38 15 -59.5t39 -21.5z" />
    <glyph glyph-name="A" unicode="A" horiz-adv-x="877" 
d="M893 602q-8 -21 -38.5 -87t-56.5 -134t-42 -133q102 -89 102 -191q0 -54 -33 -89t-86 -35q-62 0 -99.5 48t-37.5 130q0 56 20 131q-40 13 -88 21q-46 -73 -86 -127t-89 -104.5t-102 -77.5t-108 -27q-80 0 -126.5 37.5t-46.5 93.5q0 47 29.5 77t67.5 30q30 0 51 -14.5
t21 -34.5q0 -3 -15 -20t-15 -41q0 -25 17 -38.5t44 -13.5q72 0 145 71t155 196q-30 2 -47 2q-54 0 -102.5 -12t-67.5 -28q-16 -12 -22 -12q-8 0 -14.5 14t-6.5 33q0 48 46 79.5t123 31.5q78 0 147 -18l45.5 75l46.5 76l41 64.5t42.5 60l37.5 42.5t38.5 32t33.5 9
q35 0 60 -22t25 -53q0 -18 -9 -42zM775 630q-56 -56 -174 -256l-17 -29l61 -25q51 158 130 310zM810 61q0 63 -67 117q-5 -43 -5 -79q0 -39 12 -60t28 -21q14 0 23 12t9 31z" />
    <glyph glyph-name="B" unicode="B" horiz-adv-x="948" 
d="M191 183q73 0 164 -42q14 35 34.5 97.5t37.5 109.5t41.5 99t58 90t74.5 58q27 13 49 13q28 0 28 -12q0 -4 -5 -10.5t-15.5 -22.5t-21.5 -36q-24 -46 -50 -131t-56 -169.5t-67 -141.5q96 -50 168 -50q71 0 114 42t43 106q0 45 -24.5 77.5t-62.5 49.5q-25 -7 -50 -7
q-55 0 -55 35q0 16 15 27t45 11q29 0 53 -7q88 51 88 142q0 68 -59 107t-158 39q-152 0 -250.5 -65.5t-98.5 -155.5q0 -35 19 -58.5t51 -23.5q40 0 71 23q7 5 10 5q12 0 12 -21q0 -42 -40 -81t-106 -39q-64 0 -106 39t-42 107q0 129 140 226.5t357 97.5q160 0 241 -57.5
t81 -132.5q0 -54 -37 -102t-100 -79q61 -29 100 -82t39 -116q0 -90 -71 -149t-183 -59q-71 0 -128.5 23.5t-121.5 66.5q-85 -87 -214 -87q-85 0 -131.5 33.5t-46.5 88.5t46 89.5t120 34.5zM213 -3q67 0 115 85q-61 37 -111 37q-38 0 -59 -17t-21 -44q0 -26 21 -43.5
t55 -17.5z" />
    <glyph glyph-name="C" unicode="C" horiz-adv-x="629" 
d="M371 10q80 0 155.5 47t124.5 124q6 9 14 9q14 0 14 -16q0 -6 -5 -16q-57 -109 -159 -181t-221 -72q-118 0 -194 77t-76 201q0 103 47.5 202t122 169.5t169 113.5t185.5 43q80 0 133.5 -32t53.5 -93q0 -56 -45 -88.5t-104 -32.5q-34 0 -56.5 12.5t-22.5 23.5t8 13
q41 11 61.5 33t20.5 47q0 23 -17.5 39t-47.5 16q-85 0 -167 -65.5t-131.5 -164t-49.5 -192.5q0 -97 48.5 -157t138.5 -60z" />
    <glyph glyph-name="D" unicode="D" horiz-adv-x="1006" 
d="M990 264q0 -152 -96.5 -241t-233.5 -89q-71 0 -127.5 23.5t-119.5 65.5q-83 -86 -208 -86q-83 0 -131.5 34t-48.5 89q0 54 46 88.5t120 34.5q75 0 164 -42q13 34 33.5 95.5l37 107t40 96.5t56.5 88t74 57q27 13 49 13q28 0 28 -12q0 -4 -5 -11.5l-16 -23.5t-21 -34
q-22 -43 -47.5 -125t-55.5 -165.5t-66 -140.5q98 -51 166 -51q96 0 163 77t67 201q0 150 -99.5 247t-251.5 97q-121 0 -200 -60t-79 -145q0 -45 23 -69t59 -24q31 0 60 23q7 5 10 5q12 0 12 -21q0 -42 -40 -81t-103 -39q-65 0 -108.5 44.5t-43.5 117.5q0 123 120 213t294 90
q106 0 197 -37.5t152 -99.5t95.5 -142.5t34.5 -167.5zM213 -3q67 0 115 84q-62 38 -111 38q-38 0 -59 -17t-21 -44q0 -26 21 -43.5t55 -17.5z" />
    <glyph glyph-name="E" unicode="E" horiz-adv-x="590" 
d="M307 494q0 -62 31 -96q37 5 52 5q41 0 63.5 -14.5t22.5 -39.5q0 -22 -26.5 -36t-71.5 -14q-50 0 -90 18q-53 -22 -85 -65t-32 -94q0 -69 45 -108.5t116 -39.5q80 0 155.5 47t124.5 124q6 9 14 9q13 0 13 -16q0 -8 -4 -16q-57 -109 -159 -181t-221 -72q-106 0 -180.5 56
t-74.5 155q0 91 62 152.5t156 96.5q-45 50 -45 114q0 94 84 163t218 69q84 0 141 -32t57 -93q0 -54 -44.5 -83.5t-93.5 -29.5q-35 0 -54 11t-19 25q0 8 8 11q34 12 49.5 27.5t15.5 41.5q0 28 -22 44t-56 16q-62 0 -106 -45.5t-44 -109.5z" />
    <glyph glyph-name="F" unicode="F" horiz-adv-x="797" 
d="M795 654q45 0 66 30q1 2 4 6q9 13 17 13q17 0 34.5 -22t17.5 -55q0 -44 -31 -81t-89 -37q-54 0 -158 40q-20 -47 -60 -220q58 11 97 26q19 8 32 16.5t17.5 14t8.5 9t7 3.5q11 0 20.5 -15t9.5 -36q0 -98 -211 -99q-18 -70 -39.5 -121.5t-56.5 -99.5t-88 -73.5t-122 -25.5
q-79 0 -126 40t-47 97q0 47 28 74t67 27q29 0 51 -19t22 -40q0 -3 -16.5 -20.5t-16.5 -43.5q0 -25 16.5 -40.5t42.5 -15.5q16 0 30.5 5t27 18.5l22 24.5t19.5 36l16 40t15.5 49l14 49.5t14.5 55.5q-45 17 -45 48q0 14 10 14q2 0 17 -4.5t31 -5.5q49 184 112 265
q-142 57 -210 57q-70 0 -113.5 -41.5t-43.5 -99.5q0 -44 26 -73.5t71 -29.5q46 0 78 24q7 5 11 5q14 0 14 -24q0 -42 -44 -86t-112 -44q-66 0 -115.5 43.5t-49.5 120.5q0 110 85 184.5t219 74.5q64 0 211.5 -19t191.5 -19z" />
    <glyph glyph-name="G" unicode="G" horiz-adv-x="688" 
d="M733 158q-34 -62 -71.5 -97.5t-91.5 -64.5q-7 -106 -39 -178q-59 -129 -186 -129q-53 0 -89 31t-36 80q0 21 6 40t14 32.5t25 27t29 22t36.5 19.5t38 16l42.5 15.5t41 15.5q1 8 2.5 25t2.5 24q-99 -84 -215 -84q-105 0 -161.5 67.5t-56.5 164.5q0 132 79.5 255.5t201 197
t243.5 73.5q80 0 133.5 -32t53.5 -93q0 -56 -45 -88.5t-104 -32.5q-34 0 -56.5 12.5t-22.5 23.5t8 13q41 11 61.5 33t20.5 47q0 23 -17.5 39t-47.5 16q-85 0 -167.5 -66t-133 -165t-50.5 -193q0 -82 35.5 -130t105.5 -48q72 0 142 58q30 250 134 250q24 0 40.5 -16.5
t16.5 -53.5q0 -55 -81 -166q0 -48 -1 -76q36 21 66.5 51.5t70.5 86.5q6 9 15 9q13 0 13 -15q0 -8 -5 -17zM310 -173q0 -37 38 -37q31 0 57.5 38.5t39.5 107.5q-32 -13 -49 -21t-40.5 -22t-34.5 -30t-11 -36z" />
    <glyph glyph-name="H" unicode="H" horiz-adv-x="938" 
d="M631 110q0 100 27 200l-77.5 -13t-84.5 -15q-10 -46 -19 -80t-24 -78t-33.5 -75t-43.5 -59t-59.5 -42.5t-75.5 -14.5q-69 0 -105 37.5t-36 92.5q0 71 64 136t197 107q66 245 159 324q-63 18 -113 18q-78 0 -129.5 -35t-51.5 -87q0 -27 14.5 -43.5t37.5 -16.5q26 0 48 19
q7 5 11 5q14 0 14 -25q0 -40 -38.5 -78.5t-96.5 -38.5q-55 0 -92 37t-37 98q0 93 87 155.5t227 62.5q25 0 53 -3t42 -5t47.5 -8.5t39.5 -7.5q42 25 84 25q31 0 50.5 -12.5t19.5 -35.5q0 -24 -22.5 -38.5t-58.5 -14.5q-26 0 -53 6q-52 -68 -91 -249l-5 -20l81.5 12.5
t85.5 13.5q47 144 125 242.5t160 98.5q43 0 70 -29t27 -74q0 -73 -64 -146.5t-192 -118.5q-27 -98 -27 -188q0 -42 13 -65t36 -23q54 0 138 120q6 9 15 9q13 0 13 -15q0 -8 -5 -17q-117 -211 -232 -211q-54 0 -87 43.5t-33 119.5zM231 50q21 0 39 17t32 48.5t24 61t20 68.5
q-76 -29 -115 -70.5t-39 -77.5q0 -19 10 -33t29 -14zM959 588q-34 0 -72 -54t-68 -137q80 32 121 78.5t41 86.5q0 26 -22 26z" />
    <glyph glyph-name="I" unicode="I" horiz-adv-x="513" 
d="M583 701q65 0 65 -47q0 -24 -22.5 -38.5t-58.5 -14.5q-18 0 -27 -1q-23 -30 -41 -85t-30 -115.5l-26.5 -128t-35.5 -128t-50.5 -109.5t-78.5 -78t-113 -29q-24 0 -39 8t-15 17q0 14 26 19q43 8 74.5 55.5t53 119.5t41 148t50.5 158t70 133q-118 -26 -199 -84t-81 -124
q0 -30 18.5 -47t43.5 -17q26 0 48 19q7 5 11 5q14 0 14 -25q0 -40 -38.5 -78.5t-96.5 -38.5q-55 0 -92 37t-37 98q0 79 66.5 147t169.5 109.5t225 57.5q54 57 105 57z" />
    <glyph glyph-name="J" unicode="J" horiz-adv-x="566" 
d="M144 -264q-89 0 -135.5 48t-46.5 119q0 87 70.5 161.5t153.5 74.5q20 0 32.5 -7.5t12.5 -18.5q0 -4 -3 -7t-12.5 -8.5t-16.5 -11.5q-47 -37 -76 -93t-29 -106q0 -39 16.5 -63t49.5 -24q44 0 80 49t58.5 125t47.5 172.5l47.5 186.5t59.5 172.5t82 124.5q-65 18 -116 18
q-78 0 -129.5 -35t-51.5 -87q0 -27 14.5 -43.5t37.5 -16.5q26 0 48 19q7 5 11 5q14 0 14 -25q0 -40 -38.5 -78.5t-96.5 -38.5q-55 0 -92 37t-37 98q0 93 87 155.5t227 62.5q25 0 53 -3t42 -5t47.5 -8.5t39.5 -7.5q42 25 84 25q31 0 50.5 -12.5t19.5 -35.5q0 -24 -22.5 -38.5
t-58.5 -14.5q-25 0 -49 6q-25 -38 -46.5 -109t-38 -149l-36 -166t-48 -166t-67.5 -142t-100 -101.5t-139 -37.5z" />
    <glyph glyph-name="K" unicode="K" horiz-adv-x="947" 
d="M198 -14q52 0 89.5 50t62 129.5t47.5 164.5t62 170t90 130q-70 18 -115 18q-78 0 -129.5 -35t-51.5 -87q0 -27 14.5 -43.5t37.5 -16.5q26 0 48 19q7 5 11 5q14 0 14 -25q0 -40 -38.5 -78.5t-96.5 -38.5q-55 0 -92 37t-37 98q0 93 87 155.5t227 62.5q25 0 53 -3t42 -5
t47.5 -8.5t39.5 -7.5q42 25 84 25q31 0 50.5 -12.5t19.5 -35.5q0 -24 -22.5 -38.5t-58.5 -14.5q-26 0 -52 6q-28 -38 -52 -109t-40.5 -143t-45.5 -151t-64 -139t-99 -99t-149 -39q-80 0 -131.5 40.5t-51.5 96.5q0 47 28 74t67 27q29 0 51 -19t22 -40q0 -3 -16.5 -20.5
t-16.5 -43.5q0 -25 19 -40.5t46 -15.5zM1028 591q0 -55 -55 -117t-128 -107.5t-146 -72.5q17 -27 41.5 -89.5t48 -96.5t55.5 -34q50 0 125 107q6 9 15 9q13 0 13 -15q0 -8 -5 -17q-116 -209 -229 -209q-29 0 -52 11.5t-38.5 35.5t-26.5 47.5t-18 60t-10.5 60t-7.5 60.5
t-6 49q-23 0 -38 13t-15 30q0 19 16 30.5t42 11.5q27 0 54 -20q91 40 157.5 125t66.5 164q0 24 -8.5 43t-8.5 23q0 3 4 6.5t14 6t24 2.5q47 0 81.5 -30.5t34.5 -86.5z" />
    <glyph glyph-name="L" unicode="L" horiz-adv-x="835" 
d="M341 499q0 -73 81 -94q23 67 48 116.5t62 95t89 69.5t117 24q64 0 108 -33t44 -97q0 -83 -98 -149t-248 -79q-44 -161 -91 -247q135 -54 215 -54q34 0 60 14t39 30q11 14 18 14q12 0 22 -21q13 -27 13 -57q0 -57 -40 -97.5t-109 -40.5q-24 0 -48.5 6.5t-58.5 25.5
l-48.5 27.5t-60.5 41t-52 36.5q-88 -103 -222 -103q-67 0 -115.5 33.5t-48.5 85.5q0 56 46.5 92.5t122.5 36.5q70 0 156 -27q10 27 20 60l23 77.5l20 67.5q-98 11 -152 50.5t-54 96.5q0 43 26 73t57 41t62 11q26 0 42.5 -7.5t16.5 -18.5q0 -8 -6 -14q-1 -1 -8 -6t-14.5 -12
t-15.5 -16.5t-13 -23t-5 -28.5zM708 647q-82 0 -150 -243q90 16 146 67t56 115q0 24 -14 42.5t-38 18.5zM198 -14q71 0 118 98q-67 35 -119 35q-33 0 -55.5 -19.5t-22.5 -46.5q0 -30 22 -48.5t57 -18.5z" />
    <glyph glyph-name="M" unicode="M" horiz-adv-x="1167" 
d="M1079 616q-116 -95 -300 -383q-7 -55 -14 -84q-39 -173 -121 -173q-29 0 -49 21t-20 52q0 46 58 129q31 241 117 454q-35 -36 -79.5 -107.5t-84 -147t-91 -158t-101.5 -146t-114.5 -105t-130.5 -41.5q-80 0 -126.5 37.5t-46.5 93.5q0 47 29.5 77t67.5 30q30 0 51 -14.5
t21 -34.5q0 -3 -15 -20t-15 -41q0 -25 17 -38.5t44 -13.5q59 0 122 53t114.5 132.5t106 172.5l98 172.5t89.5 132.5t82 53q35 0 60 -22t25 -53q0 -18 -9 -42q-48 -135 -70 -260q236 357 330 357q28 0 53.5 -22t25.5 -53q0 -21 -9 -42q-8 -19 -39.5 -87.5l-53.5 -119.5
t-42 -120.5t-20 -119.5q0 -20 9.5 -37.5t24.5 -17.5q45 0 116 101q6 9 15 9q13 0 13 -15q0 -9 -5 -17q-47 -85 -97 -132.5t-114 -47.5q-44 0 -72 35.5t-28 96.5q0 95 55 236t123 270z" />
    <glyph glyph-name="N" unicode="N" horiz-adv-x="856" 
d="M988 639q0 -50 -39 -114t-103.5 -159.5t-103.5 -181.5q17 -51 17 -92q0 -48 -28 -82t-67 -34q-52 0 -52 67q0 24 7 49q-4 35 -20.5 81.5t-46.5 117.5t-44 107q-19 -67 -41 -127t-56.5 -125.5t-72.5 -112t-90 -76.5t-109 -30q-79 0 -121 37t-42 94q0 47 29.5 77t67.5 30
q30 0 51 -14.5t21 -34.5q0 -3 -15 -20t-15 -41q0 -25 17 -38.5t44 -13.5q53 0 103.5 51t88.5 131.5t64.5 158t43.5 150.5q-15 62 -15 109q0 45 22.5 77.5t52.5 32.5q59 0 59 -69q0 -25 -15 -73q16 -56 71 -174t66 -145l52 97.5l49 91.5t29.5 73.5t13.5 77.5q0 39 -19.5 64
t-44.5 31q-13 3 -13 10q0 19 27 37.5t64 18.5q44 0 78.5 -27.5t34.5 -86.5z" />
    <glyph glyph-name="O" unicode="O" horiz-adv-x="760" 
d="M625 325q0 97 -46 160.5t-138 72.5q-21 2 -21 14q0 16 28.5 29t69.5 13q99 0 163.5 -75.5t64.5 -192.5q0 -107 -54 -209t-153.5 -169t-216.5 -67q-81 0 -148 32t-110.5 102.5t-43.5 170.5q0 133 73.5 250t186 183t228.5 66q62 0 107 -18.5t45 -45.5q0 -14 -11 -14
q-1 0 -35.5 9t-75.5 9q-99 0 -183 -62.5t-131 -160.5t-47 -205q0 -113 52 -178t131 -65q110 0 187.5 102t77.5 249z" />
    <glyph glyph-name="P" unicode="P" horiz-adv-x="906" 
d="M215 -14q40 0 71 27t52 72t39 100.5l37.5 117t42.5 116.5t60 103t84 73q23 13 51 13q26 0 26 -12q0 -4 -2.5 -8t-7 -9t-13.5 -19t-19 -33q-16 -31 -30 -70t-32.5 -104l-25.5 -88q127 7 198.5 65.5t71.5 146.5q0 82 -67.5 131t-183.5 49q-143 0 -238.5 -69t-95.5 -158
q0 -36 18 -56t50 -20q40 0 71 23q7 5 10 5q12 0 12 -21q0 -42 -40 -81t-107 -39q-64 0 -105.5 39t-41.5 108q0 128 135.5 225.5t346.5 97.5q164 0 270 -66t106 -173t-107.5 -183.5t-320.5 -77.5q-22 -62 -47.5 -108.5t-64 -88.5t-94 -64.5t-126.5 -22.5q-80 0 -131.5 40.5
t-51.5 96.5q0 47 28 74t67 27q29 0 51 -19t22 -40q0 -3 -16.5 -20.5t-16.5 -43.5q0 -25 19 -40.5t46 -15.5z" />
    <glyph glyph-name="Q" unicode="Q" horiz-adv-x="719" 
d="M162 -153q-68 0 -108 26t-40 69q0 44 41 70t114 26q83 0 207 -50q92 75 155 189.5t63 233.5q0 102 -47 163.5t-130 61.5q-95 0 -173.5 -84.5t-78.5 -197.5q0 -82 41 -131t101 -49q69 0 110 61q11 15 20 15q12 0 12 -13q0 -15 -11.5 -40.5t-34.5 -55t-66 -50t-97 -20.5
q-95 0 -152 63t-57 162q0 71 31.5 144.5t86 134t137.5 98.5t178 38q123 0 199 -72.5t76 -198.5q0 -134 -81 -264.5t-205 -219.5q117 -47 180 -47q74 0 109 44q11 14 18 14q12 0 22 -21q13 -26 13 -58q0 -55 -40.5 -96t-102.5 -41q-28 0 -56.5 8.5t-60.5 27t-53.5 33
t-59.5 43.5t-54 40q-110 -56 -206 -56zM194 -91q53 0 113 34q-64 37 -115 37q-57 0 -57 -35q0 -36 59 -36z" />
    <glyph glyph-name="R" unicode="R" horiz-adv-x="956" 
d="M946 489q0 -64 -58 -118.5t-160 -90.5q13 -24 33 -84.5t40.5 -91t51.5 -30.5q50 0 125 107q6 9 15 9q13 0 13 -15q0 -8 -5 -17q-116 -209 -229 -209q-29 0 -51.5 11.5t-36.5 34t-23.5 46t-14.5 57.5t-7.5 58.5t-4.5 58.5t-3 48q-22 0 -37 13t-15 30q0 19 17 30.5t43 11.5
q28 0 51 -18q49 16 85 57.5t36 100.5q0 73 -65.5 121t-178.5 48q-143 0 -238.5 -69t-95.5 -158q0 -36 18 -56t50 -20q40 0 71 23q7 5 10 5q12 0 12 -21q0 -42 -40 -81t-107 -39q-64 0 -105.5 39t-41.5 108q0 128 135.5 225.5t346.5 97.5q164 0 264 -59.5t100 -162.5z
M215 -14q40 0 71 27t52 72t39 100.5l37.5 117t42.5 116.5t60 103t84 73q23 13 51 13q26 0 26 -12q0 -4 -2.5 -8t-7 -9t-13.5 -19t-19 -33q-21 -40 -43 -109t-38 -131t-46 -130t-66.5 -117t-99.5 -81t-145 -32q-80 0 -131.5 40.5t-51.5 96.5q0 47 28 74t67 27q29 0 51 -19
t22 -40q0 -3 -16.5 -20.5t-16.5 -43.5q0 -25 19 -40.5t46 -15.5z" />
    <glyph glyph-name="S" unicode="S" horiz-adv-x="638" 
d="M298 528q0 -42 31 -76.5t75.5 -61.5t88.5 -56.5t75 -74.5t31 -101q0 -108 -94 -183.5t-233 -75.5q-120 0 -194.5 58.5t-74.5 137.5q0 51 31.5 87t79.5 36q28 0 48.5 -15t20.5 -30q0 -5 -16 -31.5t-16 -57.5q0 -52 39.5 -89.5t107.5 -37.5q67 0 112.5 40.5t45.5 102.5
q0 46 -31 84.5t-75 67l-88 58.5t-75 73.5t-31 96.5q0 97 90.5 164t216.5 67q81 0 137 -31t56 -90q0 -53 -42 -81.5t-92 -28.5q-34 0 -52.5 10.5t-18.5 24.5q0 8 8 10q63 19 63 67q0 28 -22 43.5t-56 15.5q-55 0 -100.5 -33.5t-45.5 -89.5z" />
    <glyph glyph-name="T" unicode="T" horiz-adv-x="645" 
d="M818 703q55 0 84.5 -22.5t29.5 -56.5q0 -38 -36 -64t-97 -26q-54 0 -134 25q-20 -41 -38.5 -112t-31.5 -137t-38.5 -138t-58 -124t-91 -86.5t-137.5 -34.5t-126 40t-47 97q0 47 29.5 76t67.5 29q29 0 51 -19t22 -40q0 -3 -17.5 -22.5t-17.5 -45.5q0 -25 16.5 -40.5
t42.5 -15.5q45 0 76 43.5t51.5 115t40 148.5t51.5 159.5t75 132.5q-159 53 -220 53q-70 0 -113.5 -41.5t-43.5 -99.5q0 -44 26 -73.5t71 -29.5q46 0 78 24q7 5 11 5q14 0 14 -24q0 -42 -44 -86t-112 -44q-66 0 -115.5 43.5t-49.5 120.5q0 110 97.5 191.5t232.5 81.5
q21 0 46 -2t56 -7.5l52 -9t60 -11t53 -10.5q66 37 134 37z" />
    <glyph glyph-name="U" unicode="U" horiz-adv-x="956" 
d="M681 701q31 0 50 -12t19 -35q0 -24 -22.5 -38.5t-58.5 -14.5q-18 0 -36 3q-79 -69 -134.5 -192.5t-55.5 -225.5q0 -70 28.5 -111t81.5 -41q69 0 126 67v5q0 14 2 36q7 58 27.5 137.5t51.5 162t75 139t89 56.5q56 0 56 -84q0 -65 -52.5 -184.5t-121.5 -230.5q0 -77 34 -77
q54 0 138 120q6 9 15 9q13 0 13 -15q0 -9 -5 -17q-111 -199 -227 -199q-58 0 -83 67q-44 -53 -100 -83t-112 -30q-86 0 -134.5 66t-48.5 167q0 129 74 266t165 215q-82 21 -134 21q-78 0 -129.5 -35t-51.5 -87q0 -27 14.5 -43.5t37.5 -16.5q26 0 48 19q7 5 11 5q14 0 14 -25
q0 -40 -38.5 -78.5t-96.5 -38.5q-55 0 -92 37t-37 98q0 93 87 155.5t227 62.5q26 0 55 -3t47.5 -5.5t52 -8.5t45.5 -8q42 25 86 25z" />
    <glyph glyph-name="V" unicode="V" horiz-adv-x="933" 
d="M661 701q31 0 50 -12t19 -35q0 -24 -22.5 -38.5t-58.5 -14.5q-21 0 -38 4q-69 -88 -103.5 -197t-34.5 -201q0 -77 25.5 -123t70.5 -46q44 0 97 41.5t103 109.5q61 84 90.5 171.5t29.5 161.5q0 107 -51 136q-3 2 -10.5 4t-11 4.5t-3.5 8.5q0 27 29.5 50t72.5 23
q54 0 83 -37t29 -89q0 -97 -69 -235.5t-144 -233.5q-78 -100 -167 -163.5t-165 -63.5q-77 0 -119 60t-42 160q0 115 50.5 244.5t151.5 237.5q-74 20 -121 20q-87 0 -134 -34t-47 -88q0 -27 14.5 -43.5t37.5 -16.5q26 0 48 19q7 5 11 5q14 0 14 -25q0 -40 -38.5 -78.5
t-96.5 -38.5q-55 0 -92 37t-37 98q0 93 87 155.5t227 62.5q59 0 184 -25q40 25 81 25z" />
    <glyph glyph-name="W" unicode="W" horiz-adv-x="1197" 
d="M690 701q31 0 50 -12t19 -35q0 -24 -22.5 -38.5t-58.5 -14.5q-10 0 -32 2q-85 -76 -144 -206t-59 -230q0 -57 22 -90t67 -33q78 0 135 70q1 108 29 217.5t77.5 184t104.5 74.5q51 0 51 -76q0 -60 -35.5 -159.5t-86.5 -191.5q2 -63 26.5 -103t64.5 -40q50 0 91.5 35.5
t67.5 92.5t40.5 125t14.5 135q0 102 -31.5 168.5t-91.5 66.5q-3 0 -10.5 -1.5t-9.5 -1.5q-11 0 -11 15q0 30 36 64t87 34q69 0 104 -61.5t35 -162.5q0 -95 -29.5 -203t-80 -202t-126 -155.5t-158.5 -61.5q-50 0 -91 36t-58 93q-44 -54 -102 -83.5t-117 -29.5q-83 0 -123 53
t-40 142q0 126 71 274t179 235q-82 21 -135 21q-87 0 -134 -34t-47 -88q0 -27 14.5 -43.5t37.5 -16.5q26 0 48 19q7 5 11 5q14 0 14 -25q0 -40 -38.5 -78.5t-96.5 -38.5q-55 0 -92 37t-37 98q0 93 87 155.5t227 62.5q26 0 55 -3t47.5 -5.5t52 -8.5t45.5 -8q42 25 86 25z" />
    <glyph glyph-name="X" unicode="X" horiz-adv-x="988" 
d="M776 -40q-35 0 -65.5 16t-51.5 41t-40.5 64.5t-32.5 77t-27 88.5q-199 -320 -391 -320q-69 0 -116.5 37.5t-47.5 95.5q0 46 30 75.5t69 29.5q28 0 49 -14.5t21 -30.5q0 -8 -15 -24.5t-15 -38.5q0 -54 62 -54q76 0 165.5 90.5t170.5 222.5q-45 174 -74 234
q-49 100 -123 100q-45 0 -75 -30t-30 -72q0 -34 19 -57t47 -23q22 0 46 19q7 5 11 5q14 0 14 -24q0 -40 -42 -78.5t-101 -38.5q-56 0 -93 36.5t-37 100.5q0 91 74 155t180 64q56 0 102 -19.5t79.5 -56.5t57.5 -78.5t46 -96.5q155 262 327 262q65 0 102 -34t37 -87
q0 -52 -33.5 -82.5t-75.5 -30.5q-28 0 -49 13t-21 27q0 5 16.5 22.5t16.5 41.5q0 25 -14.5 37.5t-36.5 12.5q-54 0 -121.5 -71.5t-124.5 -170.5l22.5 -68l23 -68.5t21.5 -59t25 -54t28 -39.5t34.5 -28.5t39.5 -8.5q73 0 151 111q6 9 15 9q13 0 13 -15q0 -8 -5 -17
q-110 -198 -257 -198z" />
    <glyph glyph-name="Y" unicode="Y" horiz-adv-x="915" 
d="M382 -268q-119 0 -187.5 51.5t-68.5 129.5q0 61 41 100t99 39q33 0 62 -17t29 -36q0 -6 -15 -18q-44 -37 -44 -88q0 -41 29 -70.5t81 -29.5q73 0 133.5 51.5t99 129t62.5 176.5q-101 -104 -223 -104q-74 0 -116.5 52t-42.5 125q0 101 68 218t152 186q-80 21 -132 21
q-78 0 -129.5 -35t-51.5 -87q0 -27 14.5 -43.5t37.5 -16.5q26 0 48 19q7 5 11 5q14 0 14 -25q0 -40 -38.5 -78.5t-96.5 -38.5q-55 0 -92 37t-37 98q0 93 87 155.5t227 62.5q26 0 55 -3t47.5 -5.5t52 -8.5t45.5 -8q42 25 86 25q31 0 50 -12t19 -35q0 -24 -22.5 -38.5
t-58.5 -14.5q-17 0 -35 3q-65 -59 -114.5 -161t-49.5 -180q0 -46 20 -76t60 -30q34 0 78.5 19.5t84.5 61.5q94 472 238 472q61 0 61 -76q0 -108 -133 -326q-20 -111 -42.5 -190t-72 -164.5t-120.5 -136.5q-117 -85 -270 -85z" />
    <glyph glyph-name="Z" unicode="Z" horiz-adv-x="912" 
d="M927 703q54 0 82 -21t28 -54q0 -38 -34.5 -64t-92.5 -26q-35 0 -92 12q-48 -49 -170.5 -213.5t-198.5 -240.5q180 -55 274 -55q82 0 117 44q11 14 18 14q12 0 22 -21q13 -26 13 -58q0 -55 -40.5 -96t-102.5 -41q-28 0 -61 8t-77.5 27l-72.5 31.5t-86 42t-77 38.5
q-120 -93 -230 -93q-67 0 -109.5 29.5t-42.5 77.5q0 49 43 85.5t115 36.5q62 0 186 -36q36 45 100 142t126.5 178.5t126.5 135.5q-170 54 -242 54t-110 -32.5t-38 -75.5q0 -33 22.5 -54t55.5 -21q40 0 72 24q7 5 11 5q14 0 14 -23q0 -43 -49 -90.5t-118 -47.5
q-67 0 -121.5 44.5t-54.5 123.5q0 99 87 156t210 57q113 0 322 -66q80 63 175 63zM153 4q63 0 133 67q-82 35 -127 35q-34 0 -54 -16t-20 -39t19.5 -35t48.5 -12z" />
    <glyph glyph-name="bracketleft" unicode="[" horiz-adv-x="323" 
d="M447 632q-81 0 -127 -4q-47 -92 -101 -279t-85 -374q24 2 73 2q37 0 57 -4t25 -8.5t5 -12.5q0 -31 -18.5 -55t-36.5 -24q-3 0 -8 2.5t-8 2.5q-39 9 -113 14q-3 -4 -10 -4q-18 0 -28.5 12t-10.5 33q0 119 52 343.5t97 342.5q12 32 39.5 58.5t54.5 31.5q51 10 146 10
q49 0 49 -27q0 -14 -16.5 -37t-35.5 -23z" />
    <glyph glyph-name="backslash" unicode="\" horiz-adv-x="342" 
d="M265 -54q-57 139 -97 389t-40 341q0 22 18 35t52 13q14 0 19 -2.5t5 -13.5l-3 -50v-1q0 -140 26 -350t63 -368q4 -14 4 -26q0 -11 -12 -11q-19 3 -35 44z" />
    <glyph glyph-name="bracketright" unicode="]" horiz-adv-x="320" 
d="M387 590q-134 -248 -224 -687q-3 -15 -16 -15q-11 0 -25.5 1.5t-29.5 1.5q-63 0 -107.5 -6.5t-45.5 -6.5q-16 0 -16 12q0 23 50.5 42.5t132.5 29.5q10 95 63.5 300t115.5 361q-58 -1 -103.5 -5.5t-47.5 -4.5q-16 0 -16 12q0 13 14.5 32.5t37.5 29.5q28 12 86 20.5
t113 8.5q22 0 34.5 -20t12.5 -43q0 -8 -29 -63z" />
    <glyph glyph-name="asciicircum" unicode="^" horiz-adv-x="408" 
d="M73 462q0 28 29 71t66.5 80t74 64t50.5 27q11 0 23.5 -9t14.5 -14q1 -2 2.5 -7.5t6 -19t13.5 -35.5q26 -63 52 -102t37.5 -51.5t11.5 -19.5q0 -16 -27 -29.5t-50 -13.5q-42 0 -80 63.5t-47 134.5q-27 -31 -47 -60q-21 -32 -35 -61.5t-20 -47t-7 -18.5q-7 -10 -21 -10
q-17 0 -32 17.5t-15 40.5z" />
    <glyph glyph-name="underscore" unicode="_" horiz-adv-x="463" 
d="M-105 -142q0 32 136 59.5t286 27.5q111 0 111 -16q0 -35 -23.5 -63t-46.5 -28q-3 0 -10 2.5t-11 2.5q-103 16 -227 16q-81 0 -137 -7t-57 -7q-21 0 -21 13z" />
    <glyph glyph-name="grave" unicode="`" horiz-adv-x="197" 
d="M38 543q0 23 20.5 40.5t38.5 17.5q3 0 5.5 -0.5t4.5 -1t3.5 -1.5t2.5 -2t2 -3.5t1.5 -4t1.5 -5t1 -5.5t1 -6.5t1 -7.5q7 -49 27 -99q11 -27 11 -29q0 -12 -15 -12q-22 0 -64 41t-42 78z" />
    <glyph glyph-name="a" unicode="a" horiz-adv-x="405" 
d="M279 -5q-44 0 -65 38q-46 -42 -102 -42q-50 0 -82.5 34.5t-32.5 94.5q0 98 70.5 178t158.5 80q38 0 64.5 -19.5t26.5 -44.5l-1 -7q4 1 8 1q16 0 26.5 -12.5t10.5 -31.5q0 -60 -64 -157q5 -27 21 -27q38 0 109 101q6 9 15 9q13 0 13 -15q0 -8 -5 -17q-52 -94 -92 -128.5
t-79 -34.5zM160 69q23 0 40 17v12q0 84 44 154q-21 4 -21 12q0 4 4 12.5t4 17.5q0 29 -26 29q-32 0 -65.5 -51.5t-33.5 -121.5q0 -38 15 -59.5t39 -21.5z" />
    <glyph glyph-name="b" unicode="b" horiz-adv-x="399" 
d="M354 610q0 -101 -107 -243q19 11 37 11q48 0 73.5 -37t25.5 -87q0 -92 -68 -177.5t-159 -85.5q-75 0 -111.5 45t-36.5 120q0 59 19 133q17 68 42.5 138t58.5 135.5t73 107t79 41.5q36 0 55 -27.5t19 -73.5zM195 281q-11 0 -11 11v3q-27 -27 -60 -55q-10 -40 -10 -86
q0 -41 14.5 -71t44.5 -30q43 0 75.5 51t32.5 107q0 42 -13 63t-34 21q-9 0 -21.5 -7t-17.5 -7zM272 566q-20 0 -60.5 -83t-70.5 -182q63 68 102.5 137.5t39.5 111.5q0 16 -11 16z" />
    <glyph glyph-name="c" unicode="c" horiz-adv-x="335" 
d="M191 73q90 0 166 108q6 9 15 9q13 0 13 -15q0 -8 -5 -17q-35 -63 -81 -102.5t-83.5 -52t-75.5 -12.5q-56 0 -99 38t-43 105q0 92 66 168t149 76q46 0 77 -27.5t31 -62.5q0 -38 -23 -61t-52 -23q-22 0 -38.5 14t-16.5 30q0 2 14 22t14 39q0 21 -18 21q-29 0 -59.5 -51.5
t-30.5 -107.5q0 -44 21.5 -71t58.5 -27z" />
    <glyph glyph-name="d" unicode="d" horiz-adv-x="460" 
d="M215 378q25 0 44 -9q43 149 101.5 245.5t120.5 96.5q27 0 44 -24.5t17 -67.5q0 -70 -64 -218t-153 -256v-5q0 -68 34 -68q47 0 123 109q6 9 15 9q13 0 13 -15q0 -8 -5 -17q-51 -93 -104 -133q-43 -34 -92 -34q-53 0 -76 57q-53 -57 -118 -57q-52 0 -85 35t-33 96
q0 98 67 177t151 79zM157 69q32 0 63 29q-3 22 -3 47q0 52 11 104q0 1 0.5 3t0.5 3q-10 3 -10 9q0 4 4 12.5t4 17.5q0 29 -26 29q-32 0 -63.5 -51t-31.5 -122q0 -37 14.5 -59t36.5 -22zM467 577q-24 0 -70.5 -123t-64.5 -236q60 90 104.5 195t44.5 144q0 20 -14 20z" />
    <glyph glyph-name="e" unicode="e" horiz-adv-x="330" 
d="M184 71q91 0 168 110q6 9 15 9q13 0 13 -15q0 -8 -5 -17q-35 -63 -80.5 -102.5t-82 -52t-74.5 -12.5q-56 0 -98 37.5t-42 105.5q0 92 66 168t148 76q46 0 72.5 -24.5t26.5 -59.5q0 -52 -55 -95t-143 -54q11 -74 71 -74zM201 330q-27 0 -56.5 -46t-33.5 -99q45 12 78 44.5
t33 70.5q0 30 -21 30z" />
    <glyph glyph-name="f" unicode="f" horiz-adv-x="324" 
d="M399 601q0 -65 -73.5 -172.5t-174.5 -181.5q33 -1 69 -54q114 11 182 79q8 8 16 8q10 0 10 -11q0 -9 -8 -20q-21 -31 -76 -65.5t-98 -44.5q18 -35 31 -90t13 -93q0 -97 -41.5 -160.5t-109.5 -63.5q-65 0 -104 65t-39 177q0 114 30.5 247t76.5 240t103 178.5t106 71.5
q43 0 65 -29.5t22 -80.5zM217 -23q0 89 -37 156q-33 5 -55 32q-15 -75 -15 -155q0 -148 54 -148q24 0 38.5 34t14.5 81zM315 566q-12 0 -37 -32t-57.5 -94t-57.5 -134q66 61 114.5 135.5t48.5 108.5q0 16 -11 16z" />
    <glyph glyph-name="g" unicode="g" horiz-adv-x="403" 
d="M317 314q0 -5 -1 -7q2 0 4 0.5t4 0.5q20 0 31.5 -15.5t11.5 -38.5q0 -60 -63 -144q0 -22 -2 -74q28 21 52.5 50.5t70.5 94.5q6 9 15 9q13 0 13 -15q0 -8 -5 -17q-36 -66 -70.5 -105.5t-79.5 -68.5q-11 -107 -39 -164q-27 -56 -77.5 -89t-110.5 -33q-57 0 -96 29t-39 81
q0 29 14.5 53.5t33.5 41t55 33t59.5 25t66.5 22.5l27 9q3 25 3 33q-39 -28 -84 -28q-48 0 -81 32.5t-33 92.5q0 98 70.5 177t158.5 79q38 0 64.5 -19.5t26.5 -44.5zM160 69q23 0 43 20q13 105 43 162q-23 4 -23 13q0 4 4 12.5t4 17.5q0 29 -26 29q-32 0 -65.5 -51.5
t-33.5 -121.5q0 -38 15 -59.5t39 -21.5zM83 -246q36 0 63 48.5t40 139.5q-67 -25 -108 -56t-41 -76q0 -27 13 -41.5t33 -14.5z" />
    <glyph glyph-name="h" unicode="h" horiz-adv-x="443" 
d="M24 211q21 112 61 223t97.5 194t112.5 83q36 0 55 -27.5t19 -73.5q0 -80 -67.5 -186t-159.5 -182q-14 -55 -20 -105q32 60 65.5 109.5t77 90.5t78.5 41q24 0 40.5 -17.5t16.5 -52.5q0 -44 -30.5 -114t-30.5 -89q0 -24 17 -24q39 0 109 100q6 9 15 9q13 0 13 -15
q0 -8 -5 -17q-52 -94 -95 -130.5t-84 -36.5q-35 0 -57.5 24.5t-22.5 63.5q0 40 23 107t23 73q0 8 -6 8q-18 0 -56.5 -55t-63.5 -122q-4 -11 -11 -32t-10.5 -29t-9.5 -19t-13 -15t-17 -4q-47 0 -67 50q-8 21 -8 70q0 40 11 100zM287 566q-20 0 -58 -78.5t-69 -182.5
q61 67 99.5 135t38.5 110q0 16 -11 16z" />
    <glyph glyph-name="i" unicode="i" horiz-adv-x="235" 
d="M186 434q-27 0 -45.5 16.5t-18.5 41.5q0 34 25.5 57.5t60.5 23.5q33 0 50 -19t17 -44q0 -33 -26.5 -54.5t-62.5 -21.5zM124 378q26 0 41.5 -17t15.5 -43q0 -6 -2 -13t-4 -11t-8 -14.5l-10 -17.5q-44 -84 -44 -143q0 -41 27 -41q45 0 117 103q6 9 15 9q13 0 13 -15
q0 -8 -5 -17q-93 -167 -194 -167q-42 0 -64.5 32t-22.5 81q0 75 34 160q46 114 91 114z" />
    <glyph glyph-name="j" unicode="j" horiz-adv-x="219" 
d="M264 158q-39 -70 -74.5 -106t-91.5 -66q-10 -61 -22.5 -105.5t-34.5 -89.5t-57.5 -69t-83.5 -24q-43 0 -75 28t-32 68q0 36 15.5 65t48.5 52.5t62 38.5t77 35q3 26 7 75t6 63q13 103 42.5 179t75.5 76q29 0 43 -18t14 -42q0 -14 -7.5 -31.5t-18 -38t-25 -73.5t-25.5 -126
q-2 -10 -2 -14q34 21 61 50.5t74 95.5q6 9 15 9q13 0 13 -15q0 -8 -5 -17zM177 434q-27 0 -45.5 16.5t-18.5 41.5q0 34 25.5 57.5t60.5 23.5q33 0 50 -19t17 -44q0 -33 -26.5 -54.5t-62.5 -21.5zM-102 -246q55 0 88 172q-114 -67 -114 -134q0 -17 8 -27.5t18 -10.5z" />
    <glyph glyph-name="k" unicode="k" horiz-adv-x="443" 
d="M303 -9q-49 0 -80 37t-31 82q0 31 14.5 47.5t43.5 30.5q36 18 58.5 40.5t22.5 41.5t-21 19q-31 0 -81.5 -61t-79.5 -138q-4 -11 -11 -32t-10.5 -29t-9.5 -19t-13 -15t-17 -4q-47 0 -67 50q-8 21 -8 70q0 40 11 100q22 112 61.5 223t97 194t112.5 83q36 0 55 -27.5
t19 -73.5q0 -80 -67.5 -186t-159.5 -182q-16 -66 -21 -109q52 100 117 172.5t126 72.5q37 0 56.5 -20t19.5 -55q0 -38 -37 -77.5t-101 -59.5q5 -33 19.5 -53.5t34.5 -20.5q47 0 109 89q6 9 15 9q13 0 13 -15q0 -8 -5 -17q-54 -96 -95.5 -131.5t-89.5 -35.5zM287 566
q-20 0 -58 -78.5t-69 -182.5q61 67 99.5 135t38.5 110q0 16 -11 16z" />
    <glyph glyph-name="l" unicode="l" horiz-adv-x="261" 
d="M360 611q0 -76 -58 -180.5t-158 -189.5q-15 -68 -15 -111q0 -58 31 -58q47 0 123 109q6 9 15 9q13 0 13 -15q0 -8 -5 -17q-52 -94 -100.5 -130.5t-99.5 -36.5q-44 0 -69 32.5t-25 95.5q0 55 25 153.5t63 196.5t90 170t100 72q70 0 70 -100zM287 566q-18 0 -57 -81
t-68 -178q66 72 101 141.5t35 101.5q0 16 -11 16z" />
    <glyph glyph-name="m" unicode="m" horiz-adv-x="626" 
d="M301 363q24 0 45 -19.5t26 -66.5q80 101 152 101q25 0 43.5 -16.5t18.5 -51.5q0 -44 -32 -115t-32 -90q0 -24 17 -24q39 0 109 100q6 9 15 9q13 0 13 -15q0 -8 -5 -17q-52 -94 -95 -130.5t-84 -36.5q-35 0 -57.5 23.5t-22.5 62.5q0 40 22.5 103t22.5 72q0 17 -15 17
q-26 0 -70 -55q-6 -87 -38.5 -152.5t-74.5 -65.5q-23 0 -36 16t-13 41q0 57 52 127q6 29 6 47q0 35 -14 35q-20 0 -53.5 -51t-59.5 -121q-4 -11 -11 -32t-10.5 -29t-9.5 -19t-13 -15t-17 -4q-47 0 -67 50q-8 21 -8 70q0 31 14 98q14 70 33 102t47 32q22 0 38 -17t16 -39
q0 -11 -22 -66t-29 -109q103 251 199 251z" />
    <glyph glyph-name="n" unicode="n" horiz-adv-x="435" 
d="M153 287q0 -11 -22 -66.5t-29 -110.5q27 62 61.5 119t82.5 103t89 46q24 0 42.5 -17.5t18.5 -52.5q0 -44 -32.5 -114t-32.5 -89q0 -24 17 -24q39 0 109 100q6 9 15 9q13 0 13 -15q0 -8 -5 -17q-52 -94 -95 -130.5t-84 -36.5q-36 0 -59 24.5t-23 63.5t26 101.5t26 76.5
q0 12 -10 12q-19 0 -56.5 -55.5t-63.5 -123.5q-4 -11 -11 -32t-10.5 -29t-9.5 -19t-13 -15t-17 -4q-47 0 -67 50q-8 21 -8 70q0 31 14 98q14 70 33 102t47 32q22 0 38 -17t16 -39z" />
    <glyph glyph-name="o" unicode="o" horiz-adv-x="371" 
d="M478 257q-16 -23 -54.5 -45.5t-84.5 -31.5q-19 -79 -75 -134t-132 -55q-63 0 -98.5 39t-35.5 98q0 72 47.5 133.5t97.5 79.5q10 27 34.5 43t53.5 16q48 0 82 -42.5t34 -113.5q0 -4 -0.5 -12t-0.5 -12q62 13 113 60q9 8 16 8q11 0 11 -12q0 -8 -8 -19zM171 64
q35 0 61.5 32t35.5 80q-49 6 -83.5 33t-44.5 65q-37 -49 -37 -115q0 -41 18 -68t50 -27zM206 276q0 -21 18 -37t49 -21v5q0 38 -12 60t-30 22q-10 0 -17.5 -7.5t-7.5 -21.5z" />
    <glyph glyph-name="p" unicode="p" horiz-adv-x="420" 
d="M177 -7q-49 0 -72 26q-18 -159 -46.5 -244.5t-79.5 -85.5q-58 0 -58 83q0 65 72 228q9 116 28 211q5 28 10.5 47.5t14.5 41t23 32.5t31 11q19 0 35.5 -15.5t16.5 -38.5q0 -18 -8 -52q75 141 164 141q48 0 72 -36.5t24 -87.5q0 -58 -29.5 -118t-83 -101.5t-114.5 -41.5z
M265 279q-30 0 -70.5 -46.5t-69.5 -112.5q16 7 26 7q22 0 22 -13q0 -1 -2.5 -8.5t-2.5 -15.5q0 -36 29 -36q41 0 73 52.5t32 110.5q0 62 -37 62z" />
    <glyph glyph-name="q" unicode="q" horiz-adv-x="393" 
d="M317 314q0 -5 -2 -13h8q18 0 30.5 -12.5t12.5 -31.5q0 -58 -77 -163q-40 -113 -56 -184q17 29 45.5 73l52 77.5l51.5 73.5l33 47q6 9 15 9q13 0 13 -15q0 -8 -5 -17l-35.5 -60.5l-61.5 -105.5t-66.5 -121.5t-58.5 -119.5q-27 -62 -53 -62q-31 0 -52.5 26.5t-21.5 61.5
q0 46 63 219q-20 -5 -37 -5q-52 0 -85 35t-33 96q0 98 71.5 177t157.5 79q38 0 64.5 -19.5t26.5 -44.5zM160 69q14 0 22 4l42 109q16 45 29 68q-30 5 -30 14q0 4 4 12.5t4 17.5q0 29 -26 29q-32 0 -65.5 -51.5t-33.5 -121.5q0 -38 15 -59.5t39 -21.5z" />
    <glyph glyph-name="r" unicode="r" horiz-adv-x="310" 
d="M-4 145q46 65 64 135q-32 32 -32 72q0 30 17 52t42 22q19 0 30 -16.5t11 -44.5q0 -19 -9 -52h12q53 0 82 22q14 11 24 11q13 0 26 -14t13 -32q0 -17 -20 -49q-56 -90 -56 -142q0 -28 23 -28q39 0 109 100q6 9 15 9q13 0 13 -15q0 -8 -5 -17q-53 -95 -96.5 -131t-88.5 -36
q-38 0 -62.5 24t-24.5 63q0 62 73 151q-33 7 -63 25q-19 -45 -55 -109q-11 -18 -36 -18q-11 0 -11 7q0 6 5 11z" />
    <glyph glyph-name="s" unicode="s" horiz-adv-x="285" 
d="M-43 87q0 49 43.5 84.5t111.5 43.5q-3 7 -11 24t-11.5 25.5t-8.5 22t-7 24.5t-2 21q0 36 24.5 66.5t60.5 30.5q24 0 35.5 -14.5t11.5 -35.5q0 -45 -37 -85q8 -13 26 -36t25 -34q89 8 160 61q10 7 18 7q11 0 11 -10q0 -8 -9 -20q-19 -24 -64 -47t-95 -33q7 -23 7 -43
q0 -62 -47 -105.5t-120 -43.5q-59 0 -90.5 28t-31.5 69zM140 119q0 24 -10 52q-41 -7 -63.5 -30t-22.5 -51q0 -20 11 -33t29 -13q24 0 40 21t16 54z" />
    <glyph glyph-name="t" unicode="t" horiz-adv-x="261" 
d="M266 535q0 -5 -6 -15t-17 -26.5t-18 -28.5q-32 -55 -57 -123q33 9 51 17q19 9 31.5 18.5t17.5 14.5t8 5q9 0 17 -10.5t8 -29.5q0 -90 -158 -95q-17 -68 -17 -122q0 -68 34 -68q47 0 123 109q6 9 15 9q13 0 13 -15q0 -8 -5 -17q-52 -94 -100.5 -130.5t-99.5 -36.5
q-44 0 -68.5 33t-24.5 87q0 48 11 100q7 35 15 63q-41 19 -41 52q0 13 8 13q1 0 15.5 -4.5t31.5 -4.5h2q30 97 64 162q26 49 47 71.5t46 22.5q19 0 36.5 -14t17.5 -37z" />
    <glyph glyph-name="u" unicode="u" horiz-adv-x="446" 
d="M344 361q50 0 50 -60q0 -36 -23.5 -80.5t-49.5 -73.5q-1 -8 -1 -25q0 -44 31 -44q45 0 117 103q6 9 15 9q13 0 13 -15q0 -8 -5 -17q-93 -167 -194 -167q-57 0 -79 59q-55 -59 -121 -59q-46 0 -72 32t-26 81q0 75 34 160q46 114 91 114q26 0 41.5 -17t15.5 -43
q0 -14 -24 -56q-48 -86 -48 -140q0 -52 34 -52q32 0 67 33v1q0 68 37 160q39 97 97 97z" />
    <glyph glyph-name="v" unicode="v" horiz-adv-x="380" 
d="M160 62q36 0 74 55.5t38 114.5q0 35 -12 58t-34 27q-11 2 -11 15q0 22 20.5 42.5t50.5 20.5q41 0 62 -29t21 -76q0 -94 -88 -197.5t-167 -103.5q-52 0 -78 47.5t-26 108.5q0 92 25 163.5t70 71.5q26 0 43 -15t17 -39q0 -16 -14 -54q-26 -69 -26 -130q0 -80 35 -80z" />
    <glyph glyph-name="w" unicode="w" horiz-adv-x="595" 
d="M342 -11q-66 0 -99 56q-55 -55 -115 -55q-59 0 -88 49t-29 118q0 86 30 152t70 66q29 0 45.5 -15.5t16.5 -40.5q0 -8 -2 -13.5t-8.5 -16t-10.5 -19.5q-29 -62 -29 -125q0 -42 15.5 -62t34.5 -20q24 0 51 32q-8 34 -8 67q0 76 28.5 136.5t70.5 60.5q28 0 42 -19.5
t14 -48.5q0 -58 -41 -148q6 -79 54 -79q39 0 69 50.5t30 115.5q0 34 -14.5 58t-35.5 27q-11 2 -11 15q0 23 21 44.5t51 21.5q41 0 63.5 -32.5t22.5 -79.5q0 -59 -32 -127t-88.5 -118t-117.5 -50z" />
    <glyph glyph-name="x" unicode="x" horiz-adv-x="386" 
d="M43 -23q-7 -11 -17 -11q-6 0 -10.5 5.5t-4.5 13.5t5 21q17 44 69 120q-52 93 -52 162q0 43 27.5 66.5t59.5 23.5q9 0 15 -2t9 -4.5t5 -9.5t2.5 -10.5t1.5 -14t1 -15.5q3 -38 15 -86q102 148 153 148q24 0 38.5 -20t14.5 -47q0 -11 -16 -16q-81 -28 -168 -126
q19 -42 44 -66.5t50 -24.5q17 0 28.5 3t37 26t57.5 68q6 9 15 9q13 0 13 -15q0 -8 -5 -17q-53 -95 -94.5 -131t-84.5 -36q-74 0 -137 88z" />
    <glyph glyph-name="y" unicode="y" horiz-adv-x="408" 
d="M124 378q26 0 41.5 -17t15.5 -43q0 -6 -2 -13t-4 -11t-8 -14.5l-10 -17.5q-44 -81 -44 -143q0 -22 8 -35.5t22 -13.5q34 0 67 36q34 255 132 255q48 0 48 -56q0 -71 -81 -191q0 -22 -2 -78q28 21 52.5 50.5t70.5 94.5q6 9 15 9q13 0 13 -15q0 -8 -5 -17
q-36 -66 -70.5 -105.5t-79.5 -68.5q-11 -107 -39 -164q-27 -56 -77.5 -89t-110.5 -33q-57 0 -96 29t-39 81q0 29 15 54t33.5 41t56 33t59.5 25t68 23l24 8l5 41q-50 -42 -105 -42q-46 0 -72 32t-26 81q0 75 34 160q46 114 91 114zM88 -246q36 0 63 48.5t40 139.5
q-67 -25 -108 -56t-41 -76q0 -27 13 -41.5t33 -14.5z" />
    <glyph glyph-name="z" unicode="z" horiz-adv-x="388" 
d="M9 42q0 10 5 21t15 23t21 23.5t28.5 26l31 25l35 26l34.5 24.5l35.5 24.5l31.5 21.5q-10 2 -37 10.5t-39 8.5q-39 0 -48 -31q-1 -2 -2 -6t-1.5 -5.5t-1.5 -4t-2.5 -3t-4 -1.5t-5.5 -1q-27 0 -49 21.5t-22 56.5q0 32 24.5 55.5t65.5 23.5q35 0 102 -31t93 -37q28 13 37 13
q35 0 35 -29q0 -19 -21 -35.5t-39 -16.5h-6q-55 -28 -121 -71.5t-80 -62.5q12 0 57 -12t68 -12q46 0 89.5 27t71.5 67q6 9 15 9q13 0 13 -15q0 -8 -5 -17q-96 -173 -241 -173q-30 0 -65 16t-48 16q-11 0 -23.5 -5.5t-18.5 -5.5q-28 0 -28 36z" />
    <glyph glyph-name="braceleft" unicode="{" horiz-adv-x="255" 
d="M118 290q0 5 -1 8q-12 -4 -24 -4q-29 0 -29 24q0 17 13 27t32 10q5 0 15 -2q8 22 14 64.5t10.5 80.5t20.5 81.5t41 74.5t74 51.5t118 20.5q22 0 22 -10t-23 -16q-49 -14 -77.5 -48t-41.5 -77t-23.5 -88t-34 -90.5t-62.5 -74.5q21 -35 21 -81q0 -34 -14 -104t-14 -103
q0 -70 46 -111q8 -7 17 -12.5t13 -8.5t4 -7q0 -11 -32 -11q-149 0 -149 136q0 59 27 144q6 19 16.5 49t15.5 47.5t5 29.5z" />
    <glyph glyph-name="bar" unicode="|" horiz-adv-x="342" 
d="M396 641q-63 -128 -135.5 -352.5t-123.5 -498.5q-3 -17 -16 -17q-40 0 -40 51q0 77 57 357t126 469q25 69 43.5 89.5t50.5 20.5q26 0 48 -17t22 -40q0 -5 -3 -10.5t-11.5 -20t-17.5 -31.5z" />
    <glyph glyph-name="braceright" unicode="}" horiz-adv-x="306" 
d="M251 366q0 -11 3 -20q17 5 27 5q28 0 28 -24q0 -16 -12 -25.5t-29 -9.5q-12 0 -17 2q-9 -25 -16.5 -105.5t-20.5 -124.5q-51 -180 -252 -180q-22 0 -22 10q0 8 23 16q54 17 89 57.5t51.5 90.5t28 100t30.5 96t47 68q-24 30 -24 87q0 29 9 94.5t9 92.5q0 65 -40 91
q-4 3 -11.5 7.5t-10.5 6t-6.5 4.5t-4.5 5t-1 5q0 11 32 11q155 0 155 -119q0 -39 -32.5 -124t-32.5 -117z" />
    <glyph glyph-name="asciitilde" unicode="~" horiz-adv-x="390" 
d="M77 147q-9 0 -9 17q0 35 24.5 59t57.5 24q22 0 74.5 -4.5t67.5 -4.5q34 0 51 18q11 11 14 11q6 0 9.5 -10t3.5 -20q0 -40 -25 -64t-71 -24q-27 0 -79 15t-65 15t-23 -5t-14.5 -11l-8.5 -11t-7 -5z" />
    <glyph glyph-name="uni00A0" unicode="&#xa0;" horiz-adv-x="225" 
 />
    <glyph glyph-name="exclamdown" unicode="&#xa1;" horiz-adv-x="187" 
d="M-63 -135q26 45 68 141.5t69 193.5q5 17 16 17q40 0 40 -51q0 -48 -18.5 -138t-46.5 -174q-24 -70 -41 -89t-49 -19q-26 0 -48 17t-22 40q0 3 1 6t3.5 8.5t5.5 10.5l9.5 16zM140 397q26 0 43.5 -16.5t17.5 -39.5q0 -32 -26 -55.5t-61 -23.5q-26 0 -42 16t-16 39
q0 33 25 56.5t59 23.5z" />
    <glyph glyph-name="cent" unicode="&#xa2;" horiz-adv-x="367" 
d="M330 565q-18 -40 -25 -60q45 -9 75.5 -36.5t30.5 -65.5q0 -34 -24.5 -54.5t-53.5 -20.5q-24 0 -38 13t-14 24q0 5 15.5 19t15.5 35q0 27 -23 38q-38 -112 -71 -248q58 0 115 54q10 8 14 8q10 0 10 -13q0 -10 -6 -22q-16 -33 -58.5 -69t-95.5 -44q-15 -66 -27 -137
q-3 -10 -10 -10q-26 0 -26 32q0 27 13 115q-50 7 -83.5 44t-33.5 99q0 85 61 153.5t142 84.5q8 28 20 65q14 44 25 57t28 13q16 0 29 -10.5t13 -24.5q0 -2 -18 -39zM130 313q0 -61 36 -88q24 124 53 230q-39 -15 -64 -55.5t-25 -86.5z" />
    <glyph glyph-name="sterling" unicode="&#xa3;" horiz-adv-x="639" 
d="M463 -29q-36 0 -75 13.5t-99 44.5t-73 37q-55 -75 -125 -75q-37 0 -56.5 18.5t-19.5 44.5q0 38 37 65t90 27h8q13 36 29 120q-89 14 -89 59q0 14 8 14q1 0 11 -2.5t28.5 -4.5t40.5 -2h13q36 164 113.5 262.5t192.5 98.5q68 0 112.5 -33t44.5 -87q0 -50 -36.5 -78
t-74.5 -28q-18 0 -28.5 7t-10.5 14q0 2 10 29t10 51q0 29 -12 48t-37 19q-18 0 -33 -9.5t-29 -31t-24 -43t-22.5 -60.5t-20.5 -66.5t-21 -76.5q55 12 80 24q15 7 28.5 16.5t20.5 15t11 5.5q8 0 19 -19t11 -37q0 -39 -56 -60.5t-137 -27.5q-26 -83 -48 -131q130 -21 183 -21
q39 0 57 9t32 30q8 14 19 14q14 0 26 -21.5t12 -54.5q0 -55 -34.5 -86t-85.5 -31z" />
    <glyph glyph-name="currency" unicode="&#xa4;" horiz-adv-x="552" 
d="M255 98q-68 0 -111 37l-25.5 -35l-18.5 -26.5t-9 -11.5q-10 -10 -21 -10q-21 0 -36 12.5t-15 29.5q0 20 82 100q-15 34 -15 74q0 107 80 189q-23 59 -23 87q0 42 23 42q7 0 13.5 -4t12.5 -14t10 -17.5t11 -24t11 -24.5q59 33 123 33q52 0 94 -25q20 16 80 58q16 13 48 13
q11 0 11 -10q0 -5 -5.5 -12t-18 -18t-14.5 -13q-6 -6 -57 -60q31 -44 31 -103q0 -106 -80 -189q38 -27 66 -27q9 0 9 -16q0 -35 -25.5 -60t-61.5 -25q-22 0 -71 71q-48 -21 -98 -21zM276 159q65 0 112.5 62t47.5 130q0 52 -24 88t-75 36q-65 0 -113.5 -61.5t-48.5 -130.5
q0 -53 24 -88.5t77 -35.5z" />
    <glyph glyph-name="yen" unicode="&#xa5;" horiz-adv-x="608" 
d="M392 222h-3l-2 -1q-4 -34 -7 -52q40 4 60 8q16 3 27 6t15.5 5t7.5 3.5t5 1.5q17 0 17 -36q0 -66 -140 -66h-6q-25 -120 -50 -120q-36 0 -73 29.5t-37 63.5q0 1 20 44q-53 14 -84.5 34.5t-31.5 40.5q0 13 13 13l3 -1q3 -1 8.5 -2.5t13.5 -3.5t19.5 -4.5l24 -5t28 -4.5
l31.5 -4q0 1 6.5 21l10.5 33q-56 8 -91 25t-35 38q0 12 11 12l12 -3q12 -3 37.5 -5.5t60.5 -2.5h22l6 22v3q0 116 -95 211q-36 36 -80 36q-4 0 -11 -0.5t-9 -0.5q-15 0 -15 16q0 39 35 75t82 36q33 0 60 -13t46.5 -41.5t32 -53.5t23.5 -70t15 -67.5l12 -68.5q55 50 88 115.5
t33 123.5q0 24 -8.5 43t-8.5 23q0 3 4 6.5t14 6t24 2.5q47 0 81.5 -30.5t34.5 -86.5q0 -70 -76 -141t-181 -120v-18q41 6 79 18q15 5 26.5 9.5t15.5 7.5t7 4.5t6 1.5q8 0 13 -11.5t5 -28.5q0 -66 -152 -76z" />
    <glyph glyph-name="brokenbar" unicode="&#xa6;" horiz-adv-x="342" 
d="M396 641q-26 -45 -68 -141.5t-69 -193.5q-5 -17 -16 -17q-40 0 -40 51q0 48 18.5 138t46.5 174q24 70 41 89t49 19q26 0 48 -17t22 -40q0 -3 -1 -6t-3.5 -8.5t-5.5 -10.5l-9.5 -16zM233 130q-24 -50 -53.5 -150.5t-42.5 -189.5q-2 -17 -16 -17q-40 0 -40 51
q0 52 20 163.5t47 191.5q22 65 43 65q26 0 48 -15t22 -37q0 -3 -0.5 -6t-3 -8l-5 -10l-8 -16z" />
    <glyph glyph-name="section" unicode="&#xa7;" horiz-adv-x="555" 
d="M446 175q0 -24 -16 -52.5t-37 -28.5q-10 0 -10 7q0 2 1 9.5t1 13.5q0 32 -25 63.5t-60.5 60t-71 60.5t-60.5 76.5t-25 95.5q0 99 81.5 165t205.5 66q80 0 133.5 -31t53.5 -90q0 -53 -42.5 -82t-89.5 -29q-34 0 -53.5 10.5t-19.5 23.5q0 8 8 10q63 23 63 67q0 28 -19 44.5
t-51 16.5q-52 0 -88 -41.5t-36 -100.5q0 -41 16 -79t39.5 -67l46.5 -57.5t39 -62t16 -68.5zM104 250q0 24 16.5 52.5t37.5 28.5q9 0 9 -9q0 -2 -1 -8.5t-1 -12.5q0 -32 25 -63.5t60.5 -60t71 -60.5t60.5 -76.5t25 -95.5q0 -99 -81.5 -165t-205.5 -66q-77 0 -131 38.5
t-54 99.5q0 55 39.5 88t89.5 33q34 0 54 -13.5t20 -27.5q0 -8 -8 -10q-63 -23 -63 -79q0 -29 20 -49t52 -20q56 0 89 40.5t33 101.5q0 41 -16 79t-39.5 67l-46.5 57.5t-39 62t-16 68.5z" />
    <glyph glyph-name="dieresis" unicode="&#xa8;" horiz-adv-x="300" 
d="M66 436q-22 0 -36.5 15t-14.5 37q0 29 22 51.5t51 22.5q22 0 35.5 -14.5t13.5 -36.5q0 -31 -21 -53t-50 -22zM214 431q-22 0 -36.5 15t-14.5 37q0 29 22 51.5t51 22.5q22 0 35.5 -14.5t13.5 -36.5q0 -31 -21 -53t-50 -22z" />
    <glyph glyph-name="copyright" unicode="&#xa9;" horiz-adv-x="718" 
d="M735 465q0 -88 -49 -164.5t-118.5 -117.5t-137.5 -41t-114.5 43t-46.5 119q0 93 66.5 166t149.5 73q51 0 83.5 -28.5t32.5 -69.5q0 -36 -24 -60t-54 -24q-24 0 -41 15t-17 28q0 5 17 23.5t17 40.5q0 25 -22 25q-37 0 -68.5 -48.5t-31.5 -107.5q0 -49 25 -82.5t77 -33.5
q77 0 139 69.5t62 161.5q0 77 -48.5 127.5t-137.5 50.5q-135 0 -232.5 -109.5t-97.5 -245.5q0 -97 55.5 -163t167.5 -66q49 0 93.5 14t69.5 31.5l45.5 31.5t27.5 14q8 0 8 -8t-11.5 -25.5t-36 -41t-57 -44.5t-81.5 -35.5t-102 -14.5q-135 0 -208 83.5t-73 198.5
q0 103 57 204t158.5 168.5t217.5 67.5q110 0 175 -61t65 -164z" />
    <glyph glyph-name="ordfeminine" unicode="&#xaa;" horiz-adv-x="426" 
d="M369 367q-36 0 -54 32q-36 -32 -83 -32q-41 0 -68.5 29t-27.5 79q0 83 59.5 149.5t132.5 66.5q32 0 54 -16.5t22 -37.5v-5h6q32 0 32 -43q0 -49 -53 -123q3 -24 20 -24q18 0 38 22q6 7 13 7q10 0 10 -12q0 -7 -3 -14q-18 -41 -45 -59.5t-53 -18.5zM129 332q1 0 17.5 -5.5
t39.5 -5.5q22 0 69.5 8t67.5 8q35 0 54 -16t19 -42q0 -25 -19.5 -44.5t-39.5 -19.5q-5 0 -10 11q-7 14 -31.5 17.5t-61.5 4t-57 4.5q-24 5 -40 22.5t-16 42.5q0 15 8 15zM271 432q17 0 31 12v12q0 76 36 130q-13 4 -13 9q0 3 3.5 10.5t3.5 15.5q0 11 -6.5 17.5t-15.5 6.5
q-23 0 -51 -43.5t-28 -101.5q0 -68 40 -68z" />
    <glyph glyph-name="guillemotleft" unicode="&#xab;" horiz-adv-x="410" 
d="M254 340q16 0 16 -14q0 -6 -11 -18q-1 -1 -14.5 -13.5l-26 -25l-27 -28t-23.5 -30t-9 -24.5q0 -13 16.5 -44.5t32.5 -53.5q6 -10 6 -17q0 -16 -14 -16q-21 0 -80 51.5t-59 80.5t59 76.5t106 68.5q17 7 28 7zM391 340q16 0 16 -14q0 -6 -11 -18q-1 -1 -14.5 -13.5l-26 -25
l-27 -28t-23.5 -30t-9 -24.5q0 -13 16.5 -44.5t32.5 -53.5q6 -10 6 -17q0 -16 -14 -16q-21 0 -80 51.5t-59 80.5t59 76.5t106 68.5q17 7 28 7z" />
    <glyph glyph-name="logicalnot" unicode="&#xac;" horiz-adv-x="441" 
d="M278 322q-22 0 -48 2.5t-61.5 9t-58.5 22.5t-24 39q0 16 9 16q3 0 13.5 -2.5t31.5 -5t48 -2.5q48 0 102.5 9t82.5 19q11 4 24 10t20 8.5t12 2.5q19 0 33.5 -19t14.5 -39q0 -36 -38.5 -126.5t-62.5 -90.5q-19 0 -36 16.5t-17 37.5q0 4 5 12t18.5 32.5t29.5 58.5
q-52 -9 -98 -10z" />
    <glyph glyph-name="uni00AD" unicode="&#xad;" horiz-adv-x="390" 
d="M181 147q-113 0 -113 64q0 13 8 13q1 0 15.5 -4.5t31.5 -4.5q110 0 166 26q18 9 31 17t17.5 11t8.5 3q9 0 15 -12.5t6 -32.5q0 -80 -186 -80z" />
    <glyph glyph-name="registered" unicode="&#xae;" horiz-adv-x="453" 
d="M512 588q0 -65 -42.5 -128t-87.5 -63q-24 0 -47 33t-32 70q-23 -54 -36 -103q-3 -7 -7 -7q-9 0 -15.5 7.5t-6.5 17.5q0 49 33 143q10 30 17.5 38.5t21.5 8.5q12 0 21.5 -7.5t9.5 -17.5q0 -2 -14 -27q-3 -5 -18 -38l7 3q75 26 75 67q0 38 -52 38q-17 0 -44 -10
q-13 -5 -18 -5q-9 0 -9 9q0 15 33 28t61 13q39 0 64 -18t25 -53q0 -27 -28 -53t-83 -38q11 -16 29 -30t36 -14q26 0 50.5 38.5t24.5 89.5q0 44 -29.5 73t-81.5 29q-81 0 -135.5 -62.5t-54.5 -142.5q0 -56 32 -94.5t97 -38.5q36 0 66.5 13t48 26.5t21.5 13.5q5 0 5 -5
q0 -4 -6.5 -14t-21 -23.5t-33.5 -26t-47 -21t-59 -8.5q-78 0 -120 48.5t-42 114.5q0 95 72 175t178 80q64 0 103 -35t39 -94z" />
    <glyph glyph-name="macron" unicode="&#xaf;" horiz-adv-x="403" 
d="M63 446q0 13 16 27.5t41 23.5q58 22 157 22q69 0 69 -27q0 -23 -15 -41.5t-28 -18.5q-2 0 -7.5 1.5t-11.5 2.5q-48 9 -115 9q-39 0 -67 -5l-28 -4q-11 0 -11 10z" />
    <glyph glyph-name="degree" unicode="&#xb0;" horiz-adv-x="377" 
d="M140 496q0 53 33.5 93.5t73.5 55.5q7 21 29 33.5t46 12.5q44 0 75 -38.5t31 -96.5q0 -74 -49.5 -128.5t-116.5 -54.5q-54 0 -88 35t-34 88zM309 596q0 -5 2 -10t2 -6q0 -10 -18 -10q-27 0 -43 25q-25 -29 -25 -74q0 -36 18 -59t50 -23q35 0 59 31t24 73q0 32 -14 52.5
t-34 20.5q-21 0 -21 -20z" />
    <glyph glyph-name="plusminus" unicode="&#xb1;" horiz-adv-x="441" 
d="M332 451l-32 -78q35 5 62 15q24 9 41 17.5t23.5 12t10.5 3.5q12 0 19.5 -13.5t7.5 -36.5q0 -84 -194 -85q-20 -64 -34 -126q-4 -16 -13 -16q-30 0 -30 49q0 42 7 95q-128 7 -128 76q0 16 10 16q3 0 15 -3t36 -6.5t56 -3.5h23q10 50 22 94q19 67 32 85t37 18
q19 0 36 -16.5t17 -37.5q0 -6 -24 -59zM156 51q-140 16 -140 82q0 20 11 20l19 -6q19 -6 57.5 -11t93.5 -5q34 0 65.5 4t52.5 10t36 12t23 10t9 4q11 0 18 -12t7 -32q0 -81 -154 -81q-65 0 -98 5z" />
    <glyph glyph-name="twosuperior" unicode="&#xb2;" horiz-adv-x="406" 
d="M338 287q-30 0 -85 11.5t-86 11.5q-17 0 -29.5 -4t-19.5 -4q-22 0 -22 18q0 23 25.5 47.5t62 48.5l73 50.5t62 61t25.5 71.5q0 28 -11.5 44.5t-29.5 16.5q-21 0 -35.5 -19.5t-14.5 -45.5q0 -20 4.5 -38t4.5 -19q0 -14 -18 -14q-36 0 -59 21t-23 52q0 44 41.5 74t102.5 30
q65 0 102 -32t37 -81q0 -27 -13 -49.5t-39 -41.5t-51.5 -33.5l-65.5 -36t-66 -37.5q24 0 60 -4t46 -4q30 0 52 29q7 10 12 10q10 0 20 -19t10 -43q0 -72 -72 -72z" />
    <glyph glyph-name="threesuperior" unicode="&#xb3;" horiz-adv-x="407" 
d="M235 494q0 14 20 23.5t50 11.5q35 29 35 78q0 24 -12.5 40t-30.5 16q-22 0 -33 -13t-11 -31q0 -11 3.5 -19.5t6.5 -12.5t3 -5q0 -13 -14 -24t-32 -11q-23 0 -39 15.5t-16 41.5q0 43 42 71t100 28q54 0 91 -25t37 -66q0 -58 -66 -94q28 -9 44.5 -31t16.5 -52
q0 -59 -55 -103.5t-130 -44.5q-53 0 -91.5 27t-38.5 67q0 30 18.5 49.5t45.5 19.5q18 0 31.5 -8t13.5 -17q0 -4 -8 -20t-8 -30q0 -20 11.5 -33t31.5 -13q31 0 52.5 28.5t21.5 68.5t-17 56q-20 -10 -41 -10q-32 0 -32 22z" />
    <glyph glyph-name="acute" unicode="&#xb4;" horiz-adv-x="221" 
d="M185 543q0 -36 -55.5 -77.5t-81.5 -41.5q-12 0 -12 9q0 4 11 20q28 36 61 111q4 8 6.5 16.5t4 12t4.5 6t8 2.5q20 0 37 -18.5t17 -39.5z" />
    <glyph glyph-name="mu" unicode="&#xb5;" horiz-adv-x="446" 
d="M344 361q50 0 50 -60q0 -34 -21 -76t-47 -72q-2 -22 -2 -34q0 -41 27 -41q45 0 117 103q6 9 15 9q13 0 13 -15q0 -8 -5 -17q-93 -167 -194 -167q-57 0 -79 58q-54 -58 -121 -58q-25 0 -42 14q-10 -77 -10 -133q0 -55 7.5 -91.5t15.5 -51.5t8 -18q0 -14 -18 -14
q-20 0 -47 16t-44 44q-17 26 -17 102q0 122 34 252q69 267 140 267q26 0 41.5 -17t15.5 -43q0 -6 -2 -13t-4 -11t-8 -14.5l-10 -17.5q-44 -84 -44 -143q0 -22 8 -35.5t22 -13.5q34 0 67 36q0 67 37 158q39 97 97 97z" />
    <glyph glyph-name="paragraph" unicode="&#xb6;" horiz-adv-x="886" 
d="M198 -14q50 0 86.5 45.5t60 120.5t45.5 155t56.5 164.5t78.5 134.5q-119 32 -191 32q-70 0 -113.5 -41.5t-43.5 -99.5q0 -44 26 -73.5t71 -29.5q46 0 78 24q7 5 11 5q14 0 14 -24q0 -42 -44 -86t-112 -44q-66 0 -115.5 43.5t-49.5 120.5q0 110 97.5 191.5t232.5 81.5
q38 0 95 -7.5t101 -16l113 -22.5t97 -19q58 49 114 49q26 0 43 -14t17 -35q0 -49 -47 -77.5t-98 -28.5h-12q-18 -41 -34.5 -110t-28 -132t-33.5 -132t-50.5 -119t-79.5 -82.5t-119 -32.5q-25 0 -40 8t-15 17q0 14 27 19q51 10 87.5 77.5t55.5 150.5t53 187.5t77 166.5
q-16 4 -47.5 13.5t-47.5 13.5q-20 -36 -39 -95.5t-34 -118t-34 -123.5t-46 -119.5t-63 -100t-91.5 -71t-125.5 -25.5q-80 0 -131.5 40.5t-51.5 96.5q0 47 28 74t67 27q29 0 51 -19t22 -40q0 -3 -16.5 -20.5t-16.5 -43.5q0 -25 19 -40.5t46 -15.5z" />
    <glyph glyph-name="periodcentered" unicode="&#xb7;" horiz-adv-x="238" 
d="M125 137q-26 0 -43.5 16.5t-17.5 39.5q0 32 26 55.5t61 23.5q26 0 42 -16t16 -39q0 -33 -25 -56.5t-59 -23.5z" />
    <glyph glyph-name="cedilla" unicode="&#xb8;" horiz-adv-x="218" 
d="M64 -59q0 31 30.5 65t57.5 34q16 0 16 -11q0 -7 -21 -22t-21 -35q0 -14 23 -45t23 -57q0 -35 -37.5 -61.5t-69.5 -26.5q-19 0 -19 12q0 7 13 15q21 14 21 38q0 20 -8 48t-8 46z" />
    <glyph glyph-name="onesuperior" unicode="&#xb9;" horiz-adv-x="299" 
d="M376 671q0 -31 -48 -82q-50 -162 -63 -286q-1 -18 -15 -18q-30 0 -53.5 18t-23.5 47q0 43 69 214q-41 -13 -78 -13q-23 0 -23 14q0 3 1 5t2.5 3.5t4.5 3l5 2.5t6.5 2.5l7.5 2.5q70 21 109 59q16 26 37 40t36 14q11 0 18.5 -7.5t7.5 -18.5z" />
    <glyph glyph-name="ordmasculine" unicode="&#xba;" horiz-adv-x="381" 
d="M138 476q0 56 35.5 103.5t76.5 64.5q6 22 26.5 35.5t43.5 13.5q46 0 73 -34.5t27 -90.5q0 -77 -47 -138.5t-126 -61.5q-48 0 -78.5 32t-30.5 76zM122 332q1 0 17.5 -5.5t39.5 -5.5q22 0 64.5 8t62.5 8q35 0 54 -16t19 -42q0 -25 -19.5 -44.5t-39.5 -19.5q-4 0 -10 11
q-7 14 -29 17.5t-56.5 4t-54.5 4.5q-24 5 -40 22.5t-16 42.5q0 15 8 15zM309 596q0 -4 2 -10t2 -7q0 -10 -19 -10q-24 0 -38 24q-27 -32 -27 -83q0 -35 15 -53t38 -18q41 0 65 35.5t24 78.5q0 27 -11 45t-30 18q-21 0 -21 -20z" />
    <glyph glyph-name="guillemotright" unicode="&#xbb;" horiz-adv-x="410" 
d="M194 56q-16 0 -16 14q0 6 11 18q1 1 14.5 13.5l26 25l27 28t23.5 30t9 24.5q0 13 -16.5 44.5t-32.5 53.5q-6 10 -6 17q0 16 14 16q21 0 80 -51.5t59 -80.5t-59 -76.5t-106 -68.5q-18 -7 -28 -7zM57 56q-16 0 -16 14q0 6 11 18q1 1 14.5 13.5l26 25l27 28t23.5 30t9 24.5
q0 13 -16.5 44.5t-32.5 53.5q-6 10 -6 17q0 16 14 16q21 0 80 -51.5t59 -80.5t-59 -76.5t-106 -68.5q-17 -7 -28 -7z" />
    <glyph glyph-name="onequarter" unicode="&#xbc;" horiz-adv-x="698" 
d="M474 20q0 17 20 65q-58 18 -85 18q-26 -22 -53 -22q-26 0 -26 25q0 20 21 33.5t51 17.5q97 105 110 236q2 18 19 18q29 0 52.5 -17.5t23.5 -41.5q0 -31 -38.5 -78.5t-109.5 -116.5q12 -1 36.5 -3.5t29.5 -2.5q54 108 70 108q27 0 27 -16q0 -1 -6 -12t-16.5 -34.5
t-18.5 -48.5q37 0 51 22q5 7 10 7q8 0 17 -15.5t9 -34.5q0 -32 -22.5 -47t-54.5 -15q-9 0 -29 2q-9 -51 -9 -87q0 -10 -12 -10q-20 0 -43.5 16.5t-23.5 33.5zM644 636q9 9 19 9q14 0 14 -18q0 -6 -3 -12t-6 -9l-10.5 -10t-9.5 -9q-152 -144 -258.5 -267t-185.5 -263
q-6 -11 -10.5 -23t-7.5 -16t-8 -4q-12 0 -24.5 18t-12.5 40q0 36 77 138t197 224t229 202zM350 671q0 -31 -48 -82q-50 -162 -63 -286q-1 -18 -15 -18q-30 0 -53.5 18t-23.5 47q0 43 69 214q-41 -13 -78 -13q-23 0 -23 14q0 3 1 5t2.5 3.5t4.5 3l5 2.5t6.5 2.5l7.5 2.5
q70 21 109 59q16 26 37 40t36 14q11 0 18.5 -7.5t7.5 -18.5z" />
    <glyph glyph-name="onehalf" unicode="&#xbd;" horiz-adv-x="741" 
d="M621 -14q-31 0 -86 11.5t-85 11.5q-17 0 -29.5 -4t-19.5 -4q-22 0 -22 18q0 23 25.5 47.5t62 48.5l73 50.5t62 61t25.5 71.5q0 28 -11.5 44.5t-29.5 16.5q-21 0 -35.5 -19.5t-14.5 -45.5q0 -20 4.5 -38t4.5 -19q0 -14 -18 -14q-36 0 -59 21t-23 52q0 44 41.5 74t102.5 30
q65 0 102 -32t37 -81q0 -27 -13 -49.5t-39 -41.5t-51.5 -33.5l-65.5 -36t-66 -37.5q24 0 60 -4t46 -4q30 0 52 29q7 10 12 10q10 0 20 -19t10 -43q0 -72 -72 -72zM644 636q9 9 19 9q14 0 14 -18q0 -6 -3 -12t-6 -9l-10.5 -10t-9.5 -9q-152 -144 -258.5 -267t-185.5 -263
q-6 -11 -10.5 -23t-7.5 -16t-8 -4q-12 0 -24.5 18t-12.5 40q0 36 77 138t197 224t229 202zM350 671q0 -31 -48 -82q-50 -162 -63 -286q-1 -18 -15 -18q-30 0 -53.5 18t-23.5 47q0 43 69 214q-41 -13 -78 -13q-23 0 -23 14q0 3 1 5t2.5 3.5t4.5 3l5 2.5t6.5 2.5l7.5 2.5
q70 21 109 59q16 26 37 40t36 14q11 0 18.5 -7.5t7.5 -18.5z" />
    <glyph glyph-name="threequarters" unicode="&#xbe;" horiz-adv-x="768" 
d="M202 494q0 14 20 23.5t50 11.5q35 29 35 78q0 24 -12.5 40t-30.5 16q-22 0 -33 -13t-11 -31q0 -11 3 -19.5t6.5 -12.5t3.5 -5q0 -13 -14 -24t-32 -11q-23 0 -39 15.5t-16 41.5q0 43 42 71t100 28q54 0 91 -25t37 -66q0 -58 -66 -94q28 -9 44.5 -31t16.5 -52
q0 -59 -55 -103.5t-130 -44.5q-53 0 -91.5 27t-38.5 67q0 30 18.5 49.5t45.5 19.5q18 0 31.5 -8t13.5 -17q0 -4 -8 -20t-8 -30q0 -20 11.5 -33t31.5 -13q31 0 52.5 28.5t21.5 68.5t-17 56q-20 -10 -41 -10q-32 0 -32 22zM714 636q9 9 19 9q14 0 14 -18q0 -6 -3 -12t-6 -9
l-10.5 -10t-9.5 -9q-152 -144 -258.5 -267t-185.5 -263q-6 -11 -10.5 -23t-7.5 -16t-8 -4q-12 0 -24.5 18t-12.5 40q0 36 77 138t197 224t229 202zM544 20q0 17 20 65q-58 18 -85 18q-26 -22 -53 -22q-26 0 -26 25q0 20 21 33.5t51 17.5q97 105 110 236q2 18 19 18
q29 0 52.5 -17.5t23.5 -41.5q0 -31 -38.5 -78.5t-109.5 -116.5q12 -1 36.5 -3.5t29.5 -2.5q54 108 70 108q27 0 27 -16q0 -1 -6 -12t-16.5 -34.5t-18.5 -48.5q37 0 51 22q5 7 10 7q8 0 17 -15.5t9 -34.5q0 -32 -22.5 -47t-54.5 -15q-9 0 -29 2q-9 -51 -9 -87q0 -10 -12 -10
q-20 0 -43.5 16.5t-23.5 33.5z" />
    <glyph glyph-name="questiondown" unicode="&#xbf;" horiz-adv-x="381" 
d="M-35 -112q0 38 22 72t56.5 61t71.5 52.5t73 58t54 65.5q1 2 3 5.5t2.5 5t2 3.5t4 2.5t5.5 0.5q15 0 27 -15t12 -33q0 -25 -33 -63t-72 -72t-72 -81.5t-33 -90.5q0 -27 13 -44.5t39 -17.5q28 0 52.5 29t24.5 76q0 13 -3 25t-3 14q0 16 32 16q37 0 64.5 -23.5t27.5 -63.5
q0 -54 -54 -91.5t-130 -37.5q-80 0 -133 42t-53 105zM307 394q27 0 44.5 -16t17.5 -41q0 -31 -26 -54.5t-60 -23.5q-27 0 -43 16t-16 41q0 31 25 54.5t58 23.5z" />
    <glyph glyph-name="Agrave" unicode="&#xc0;" horiz-adv-x="877" 
d="M893 602q-8 -21 -38.5 -87t-56.5 -134t-42 -133q102 -89 102 -191q0 -54 -33 -89t-86 -35q-62 0 -99.5 48t-37.5 130q0 56 20 131q-40 13 -88 21q-46 -73 -86 -127t-89 -104.5t-102 -77.5t-108 -27q-80 0 -126.5 37.5t-46.5 93.5q0 47 29.5 77t67.5 30q30 0 51 -14.5
t21 -34.5q0 -3 -15 -20t-15 -41q0 -25 17 -38.5t44 -13.5q72 0 145 71t155 196q-30 2 -47 2q-54 0 -102.5 -12t-67.5 -28q-16 -12 -22 -12q-8 0 -14.5 14t-6.5 33q0 48 46 79.5t123 31.5q78 0 147 -18l45.5 75l46.5 76l41 64.5t42.5 60l37.5 42.5t38.5 32t33.5 9
q35 0 60 -22t25 -53q0 -18 -9 -42zM775 630q-56 -56 -174 -256l-17 -29l61 -25q51 158 130 310zM810 61q0 63 -67 117q-5 -43 -5 -79q0 -39 12 -60t28 -21q14 0 23 12t9 31zM881 743q-25 0 -61 11t-67 33t-31 48q0 24 23 47t38 23q7 0 11.5 -4.5t8 -12t14 -23.5t25.5 -34
q15 -17 28 -30t20 -18.5l12.5 -10t7.5 -7t2 -6.5q0 -16 -31 -16z" />
    <glyph glyph-name="Aacute" unicode="&#xc1;" horiz-adv-x="877" 
d="M893 602q-8 -21 -38.5 -87t-56.5 -134t-42 -133q102 -89 102 -191q0 -54 -33 -89t-86 -35q-62 0 -99.5 48t-37.5 130q0 56 20 131q-40 13 -88 21q-46 -73 -86 -127t-89 -104.5t-102 -77.5t-108 -27q-80 0 -126.5 37.5t-46.5 93.5q0 47 29.5 77t67.5 30q30 0 51 -14.5
t21 -34.5q0 -3 -15 -20t-15 -41q0 -25 17 -38.5t44 -13.5q72 0 145 71t155 196q-30 2 -47 2q-54 0 -102.5 -12t-67.5 -28q-16 -12 -22 -12q-8 0 -14.5 14t-6.5 33q0 48 46 79.5t123 31.5q78 0 147 -18l45.5 75l46.5 76l41 64.5t42.5 60l37.5 42.5t38.5 32t33.5 9
q35 0 60 -22t25 -53q0 -18 -9 -42zM775 630q-56 -56 -174 -256l-17 -29l61 -25q51 158 130 310zM810 61q0 63 -67 117q-5 -43 -5 -79q0 -39 12 -60t28 -21q14 0 23 12t9 31zM826 743q-31 0 -31 16q0 4 2 6.5t8 7l14 10t23 18t32 29.5q20 19 33 36t17 24t8.5 11t11.5 4
q16 0 38.5 -19.5t22.5 -43.5q0 -38 -67.5 -68.5t-111.5 -30.5z" />
    <glyph glyph-name="Acircumflex" unicode="&#xc2;" horiz-adv-x="877" 
d="M893 602q-8 -21 -38.5 -87t-56.5 -134t-42 -133q102 -89 102 -191q0 -54 -33 -89t-86 -35q-62 0 -99.5 48t-37.5 130q0 56 20 131q-40 13 -88 21q-46 -73 -86 -127t-89 -104.5t-102 -77.5t-108 -27q-80 0 -126.5 37.5t-46.5 93.5q0 47 29.5 77t67.5 30q30 0 51 -14.5
t21 -34.5q0 -3 -15 -20t-15 -41q0 -25 17 -38.5t44 -13.5q72 0 145 71t155 196q-30 2 -47 2q-54 0 -102.5 -12t-67.5 -28q-16 -12 -22 -12q-8 0 -14.5 14t-6.5 33q0 48 46 79.5t123 31.5q78 0 147 -18l45.5 75l46.5 76l41 64.5t42.5 60l37.5 42.5t38.5 32t33.5 9
q35 0 60 -22t25 -53q0 -18 -9 -42zM775 630q-56 -56 -174 -256l-17 -29l61 -25q51 158 130 310zM810 61q0 63 -67 117q-5 -43 -5 -79q0 -39 12 -60t28 -21q14 0 23 12t9 31zM752 735q-16 0 -16 13q0 4 5 9.5t14 12.5t12 10q42 36 85 88q12 14 17 17.5t17 3.5t32.5 -10.5
t28.5 -29.5l6 -17q6 -18 14 -37q7 -16 15 -27.5t11 -16.5t3 -11q0 -13 -18 -13q-25 0 -56 20t-51 48q-89 -60 -119 -60z" />
    <glyph glyph-name="Atilde" unicode="&#xc3;" horiz-adv-x="877" 
d="M893 602q-8 -21 -38.5 -87t-56.5 -134t-42 -133q102 -89 102 -191q0 -54 -33 -89t-86 -35q-62 0 -99.5 48t-37.5 130q0 56 20 131q-40 13 -88 21q-46 -73 -86 -127t-89 -104.5t-102 -77.5t-108 -27q-80 0 -126.5 37.5t-46.5 93.5q0 47 29.5 77t67.5 30q30 0 51 -14.5
t21 -34.5q0 -3 -15 -20t-15 -41q0 -25 17 -38.5t44 -13.5q72 0 145 71t155 196q-30 2 -47 2q-54 0 -102.5 -12t-67.5 -28q-16 -12 -22 -12q-8 0 -14.5 14t-6.5 33q0 48 46 79.5t123 31.5q78 0 147 -18l45.5 75l46.5 76l41 64.5t42.5 60l37.5 42.5t38.5 32t33.5 9
q35 0 60 -22t25 -53q0 -18 -9 -42zM775 630q-56 -56 -174 -256l-17 -29l61 -25q51 158 130 310zM810 61q0 63 -67 117q-5 -43 -5 -79q0 -39 12 -60t28 -21q14 0 23 12t9 31zM719 750q-11 0 -11 21q0 40 28 68.5t68 28.5q22 0 54.5 -1t44.5 -1q60 0 81 27q11 14 18 14
q12 0 12 -30q0 -41 -24 -76.5t-71 -35.5q-29 0 -73.5 12t-62.5 12t-31 -9.5t-21 -19.5t-12 -10z" />
    <glyph glyph-name="Adieresis" unicode="&#xc4;" horiz-adv-x="877" 
d="M893 602q-8 -21 -38.5 -87t-56.5 -134t-42 -133q102 -89 102 -191q0 -54 -33 -89t-86 -35q-62 0 -99.5 48t-37.5 130q0 56 20 131q-40 13 -88 21q-46 -73 -86 -127t-89 -104.5t-102 -77.5t-108 -27q-80 0 -126.5 37.5t-46.5 93.5q0 47 29.5 77t67.5 30q30 0 51 -14.5
t21 -34.5q0 -3 -15 -20t-15 -41q0 -25 17 -38.5t44 -13.5q72 0 145 71t155 196q-30 2 -47 2q-54 0 -102.5 -12t-67.5 -28q-16 -12 -22 -12q-8 0 -14.5 14t-6.5 33q0 48 46 79.5t123 31.5q78 0 147 -18l45.5 75l46.5 76l41 64.5t42.5 60l37.5 42.5t38.5 32t33.5 9
q35 0 60 -22t25 -53q0 -18 -9 -42zM775 630q-56 -56 -174 -256l-17 -29l61 -25q51 158 130 310zM810 61q0 63 -67 117q-5 -43 -5 -79q0 -39 12 -60t28 -21q14 0 23 12t9 31zM760 743q-24 0 -40.5 17t-16.5 41q0 32 24.5 57t56.5 25q24 0 39.5 -16.5t15.5 -40.5
q0 -34 -23.5 -58.5t-55.5 -24.5zM943 733q-24 0 -40.5 17t-16.5 41q0 32 24.5 57t57.5 25q24 0 39 -16.5t15 -40.5q0 -34 -23.5 -58.5t-55.5 -24.5z" />
    <glyph glyph-name="Aring" unicode="&#xc5;" horiz-adv-x="877" 
d="M893 602q-8 -21 -38.5 -87t-56.5 -134t-42 -133q102 -89 102 -191q0 -54 -33 -89t-86 -35q-62 0 -99.5 48t-37.5 130q0 56 20 131q-40 13 -88 21q-46 -73 -86 -127t-89 -104.5t-102 -77.5t-108 -27q-80 0 -126.5 37.5t-46.5 93.5q0 47 29.5 77t67.5 30q30 0 51 -14.5
t21 -34.5q0 -3 -15 -20t-15 -41q0 -25 17 -38.5t44 -13.5q72 0 145 71t155 196q-30 2 -47 2q-54 0 -102.5 -12t-67.5 -28q-16 -12 -22 -12q-8 0 -14.5 14t-6.5 33q0 48 46 79.5t123 31.5q78 0 147 -18l45.5 75l46.5 76l41 64.5t42.5 60l37.5 42.5t38.5 32t33.5 9
q35 0 60 -22t25 -53q0 -18 -9 -42zM775 630q-56 -56 -174 -256l-17 -29l61 -25q51 158 130 310zM810 61q0 63 -67 117q-5 -43 -5 -79q0 -39 12 -60t28 -21q14 0 23 12t9 31zM910 902q34 0 57.5 -22t23.5 -58q0 -41 -27 -70t-69 -29q-40 0 -60.5 23.5t-20.5 56.5
q0 37 27.5 68t68.5 31zM901 768q17 0 29 14.5t12 34.5q0 18 -10 29t-25 11q-17 0 -29.5 -14.5t-12.5 -33.5q0 -18 10.5 -29.5t25.5 -11.5z" />
    <glyph glyph-name="AE" unicode="&#xc6;" horiz-adv-x="1190" 
d="M1103 711q81 0 125.5 -35.5t44.5 -89.5t-44.5 -83.5t-93.5 -29.5q-35 0 -54 11t-19 25q0 8 8 11q34 12 49.5 27.5t15.5 41.5t-17.5 43t-46.5 17q-83 0 -158.5 -74t-119.5 -184h5q120 0 194.5 -16.5t74.5 -45.5q0 -36 -24.5 -65t-43.5 -29q-7 0 -19 12q-60 59 -210 75
q-15 -60 -15 -117q0 -87 44.5 -141t132.5 -54q80 0 155.5 47t124.5 124q6 9 14 9q13 0 13 -16q0 -8 -4 -16q-57 -109 -159 -181t-221 -72q-122 0 -184 70.5t-62 180.5q0 86 34 172q-52 -2 -79 -5q-40 -68 -72 -117t-77 -105.5t-86 -91.5t-92.5 -58.5t-103.5 -23.5
q-70 0 -115 38t-45 102q0 61 47 113.5t128.5 89t176.5 62t204 40.5l34.5 56.5l34.5 57l32.5 52t33 50.5l30.5 42.5t31.5 37.5t29.5 26.5t30 19t28 5.5q27 0 52.5 -21t26.5 -52q101 65 211 65zM193 35q74 0 147 74.5t155 205.5q-161 -23 -270.5 -79t-109.5 -132
q0 -32 21 -50.5t57 -18.5zM597 380l72 6l111 259q-25 -21 -55.5 -62t-50.5 -74l-59 -99q-10 -18 -18 -30z" />
    <glyph glyph-name="Ccedilla" unicode="&#xc7;" horiz-adv-x="629" 
d="M194 -144q0 32 28 58q-90 22 -144 94t-54 175t47.5 202t122 169.5t169 113.5t185.5 43q80 0 133.5 -32t53.5 -93q0 -56 -45 -88.5t-104 -32.5q-34 0 -56.5 12.5t-22.5 23.5t8 13q41 11 61.5 33t20.5 47q0 23 -17.5 39t-47.5 16q-85 0 -167 -65.5t-131.5 -164
t-49.5 -192.5q0 -97 48.5 -157t138.5 -60q80 0 155.5 47t124.5 124q6 9 14 9q14 0 14 -16q0 -6 -5 -16q-57 -109 -159 -181t-221 -72q-4 0 -11.5 0.5t-10.5 0.5q-14 -12 -14 -30q0 -13 31.5 -43.5t31.5 -54.5q0 -37 -40.5 -63t-97.5 -26q-25 0 -25 13q0 10 14 18
q11 6 21.5 21.5t10.5 29.5q0 19 -5 44t-5 41z" />
    <glyph glyph-name="Egrave" unicode="&#xc8;" horiz-adv-x="590" 
d="M307 494q0 -62 31 -96q37 5 52 5q41 0 63.5 -14.5t22.5 -39.5q0 -22 -26.5 -36t-71.5 -14q-50 0 -90 18q-53 -22 -85 -65t-32 -94q0 -69 45 -108.5t116 -39.5q80 0 155.5 47t124.5 124q6 9 14 9q13 0 13 -16q0 -8 -4 -16q-57 -109 -159 -181t-221 -72q-106 0 -180.5 56
t-74.5 155q0 91 62 152.5t156 96.5q-45 50 -45 114q0 94 84 163t218 69q84 0 141 -32t57 -93q0 -54 -44.5 -83.5t-93.5 -29.5q-35 0 -54 11t-19 25q0 8 8 11q34 12 49.5 27.5t15.5 41.5q0 28 -22 44t-56 16q-62 0 -106 -45.5t-44 -109.5zM519 743q-25 0 -61 11t-67 33
t-31 48q0 24 23 47t38 23q7 0 11.5 -4.5t8 -12t14 -23.5t25.5 -34q15 -17 28 -30t20 -18.5l12.5 -10t7.5 -7t2 -6.5q0 -16 -31 -16z" />
    <glyph glyph-name="Eacute" unicode="&#xc9;" horiz-adv-x="590" 
d="M307 494q0 -62 31 -96q37 5 52 5q41 0 63.5 -14.5t22.5 -39.5q0 -22 -26.5 -36t-71.5 -14q-50 0 -90 18q-53 -22 -85 -65t-32 -94q0 -69 45 -108.5t116 -39.5q80 0 155.5 47t124.5 124q6 9 14 9q13 0 13 -16q0 -8 -4 -16q-57 -109 -159 -181t-221 -72q-106 0 -180.5 56
t-74.5 155q0 91 62 152.5t156 96.5q-45 50 -45 114q0 94 84 163t218 69q84 0 141 -32t57 -93q0 -54 -44.5 -83.5t-93.5 -29.5q-35 0 -54 11t-19 25q0 8 8 11q34 12 49.5 27.5t15.5 41.5q0 28 -22 44t-56 16q-62 0 -106 -45.5t-44 -109.5zM460 743q-31 0 -31 16q0 4 2 6.5
t8 7l14 10t23 18t32 29.5q20 19 33 36t17 24t8.5 11t11.5 4q16 0 38.5 -19.5t22.5 -43.5q0 -38 -67.5 -68.5t-111.5 -30.5z" />
    <glyph glyph-name="Ecircumflex" unicode="&#xca;" horiz-adv-x="590" 
d="M307 494q0 -62 31 -96q37 5 52 5q41 0 63.5 -14.5t22.5 -39.5q0 -22 -26.5 -36t-71.5 -14q-50 0 -90 18q-53 -22 -85 -65t-32 -94q0 -69 45 -108.5t116 -39.5q80 0 155.5 47t124.5 124q6 9 14 9q13 0 13 -16q0 -8 -4 -16q-57 -109 -159 -181t-221 -72q-106 0 -180.5 56
t-74.5 155q0 91 62 152.5t156 96.5q-45 50 -45 114q0 94 84 163t218 69q84 0 141 -32t57 -93q0 -54 -44.5 -83.5t-93.5 -29.5q-35 0 -54 11t-19 25q0 8 8 11q34 12 49.5 27.5t15.5 41.5q0 28 -22 44t-56 16q-62 0 -106 -45.5t-44 -109.5zM381 735q-16 0 -16 13q0 4 5 9.5
t14 12.5t12 10q42 36 85 88q12 14 17 17.5t17 3.5t32.5 -10.5t28.5 -29.5l6 -17q6 -18 14 -37q7 -16 15 -27.5t11 -16.5t3 -11q0 -13 -18 -13q-25 0 -56 20t-51 48q-89 -60 -119 -60z" />
    <glyph glyph-name="Edieresis" unicode="&#xcb;" horiz-adv-x="590" 
d="M307 494q0 -62 31 -96q37 5 52 5q41 0 63.5 -14.5t22.5 -39.5q0 -22 -26.5 -36t-71.5 -14q-50 0 -90 18q-53 -22 -85 -65t-32 -94q0 -69 45 -108.5t116 -39.5q80 0 155.5 47t124.5 124q6 9 14 9q13 0 13 -16q0 -8 -4 -16q-57 -109 -159 -181t-221 -72q-106 0 -180.5 56
t-74.5 155q0 91 62 152.5t156 96.5q-45 50 -45 114q0 94 84 163t218 69q84 0 141 -32t57 -93q0 -54 -44.5 -83.5t-93.5 -29.5q-35 0 -54 11t-19 25q0 8 8 11q34 12 49.5 27.5t15.5 41.5q0 28 -22 44t-56 16q-62 0 -106 -45.5t-44 -109.5zM393 743q-24 0 -40.5 17t-16.5 41
q0 32 24.5 57t56.5 25q24 0 39.5 -16.5t15.5 -40.5q0 -34 -23.5 -58.5t-55.5 -24.5zM576 733q-24 0 -40.5 17t-16.5 41q0 32 24.5 57t57.5 25q24 0 39 -16.5t15 -40.5q0 -34 -23.5 -58.5t-55.5 -24.5z" />
    <glyph glyph-name="Igrave" unicode="&#xcc;" horiz-adv-x="513" 
d="M583 701q65 0 65 -47q0 -24 -22.5 -38.5t-58.5 -14.5q-18 0 -27 -1q-23 -30 -41 -85t-30 -115.5l-26.5 -128t-35.5 -128t-50.5 -109.5t-78.5 -78t-113 -29q-24 0 -39 8t-15 17q0 14 26 19q43 8 74.5 55.5t53 119.5t41 148t50.5 158t70 133q-118 -26 -199 -84t-81 -124
q0 -30 18.5 -47t43.5 -17q26 0 48 19q7 5 11 5q14 0 14 -25q0 -40 -38.5 -78.5t-96.5 -38.5q-55 0 -92 37t-37 98q0 79 66.5 147t169.5 109.5t225 57.5q54 57 105 57zM580 743q-25 0 -61 11t-67 33t-31 48q0 24 23 47t38 23q7 0 11.5 -4.5t8 -12t14 -23.5t25.5 -34
q15 -17 28 -30t20 -18.5l12.5 -10t7.5 -7t2 -6.5q0 -16 -31 -16z" />
    <glyph glyph-name="Iacute" unicode="&#xcd;" horiz-adv-x="513" 
d="M583 701q65 0 65 -47q0 -24 -22.5 -38.5t-58.5 -14.5q-18 0 -27 -1q-23 -30 -41 -85t-30 -115.5l-26.5 -128t-35.5 -128t-50.5 -109.5t-78.5 -78t-113 -29q-24 0 -39 8t-15 17q0 14 26 19q43 8 74.5 55.5t53 119.5t41 148t50.5 158t70 133q-118 -26 -199 -84t-81 -124
q0 -30 18.5 -47t43.5 -17q26 0 48 19q7 5 11 5q14 0 14 -25q0 -40 -38.5 -78.5t-96.5 -38.5q-55 0 -92 37t-37 98q0 79 66.5 147t169.5 109.5t225 57.5q54 57 105 57zM518 743q-31 0 -31 16q0 4 2 6.5t8 7l14 10t23 18t32 29.5q20 19 33 36t17 24t8.5 11t11.5 4
q16 0 38.5 -19.5t22.5 -43.5q0 -38 -67.5 -68.5t-111.5 -30.5z" />
    <glyph glyph-name="Icircumflex" unicode="&#xce;" horiz-adv-x="513" 
d="M583 701q65 0 65 -47q0 -24 -22.5 -38.5t-58.5 -14.5q-18 0 -27 -1q-23 -30 -41 -85t-30 -115.5l-26.5 -128t-35.5 -128t-50.5 -109.5t-78.5 -78t-113 -29q-24 0 -39 8t-15 17q0 14 26 19q43 8 74.5 55.5t53 119.5t41 148t50.5 158t70 133q-118 -26 -199 -84t-81 -124
q0 -30 18.5 -47t43.5 -17q26 0 48 19q7 5 11 5q14 0 14 -25q0 -40 -38.5 -78.5t-96.5 -38.5q-55 0 -92 37t-37 98q0 79 66.5 147t169.5 109.5t225 57.5q54 57 105 57zM429 735q-16 0 -16 13q0 4 5 9.5t14 12.5t12 10q42 36 85 88q12 14 17 17.5t17 3.5t32.5 -10.5
t28.5 -29.5l6 -17q6 -18 14 -37q7 -16 15 -27.5t11 -16.5t3 -11q0 -13 -18 -13q-25 0 -56 20t-51 48q-89 -60 -119 -60z" />
    <glyph glyph-name="Idieresis" unicode="&#xcf;" horiz-adv-x="513" 
d="M583 701q65 0 65 -47q0 -24 -22.5 -38.5t-58.5 -14.5q-18 0 -27 -1q-23 -30 -41 -85t-30 -115.5l-26.5 -128t-35.5 -128t-50.5 -109.5t-78.5 -78t-113 -29q-24 0 -39 8t-15 17q0 14 26 19q43 8 74.5 55.5t53 119.5t41 148t50.5 158t70 133q-118 -26 -199 -84t-81 -124
q0 -30 18.5 -47t43.5 -17q26 0 48 19q7 5 11 5q14 0 14 -25q0 -40 -38.5 -78.5t-96.5 -38.5q-55 0 -92 37t-37 98q0 79 66.5 147t169.5 109.5t225 57.5q54 57 105 57zM462 743q-24 0 -40.5 17t-16.5 41q0 32 24.5 57t56.5 25q24 0 39.5 -16.5t15.5 -40.5q0 -34 -23.5 -58.5
t-55.5 -24.5zM645 733q-24 0 -40.5 17t-16.5 41q0 32 24.5 57t57.5 25q24 0 39 -16.5t15 -40.5q0 -34 -23.5 -58.5t-55.5 -24.5z" />
    <glyph glyph-name="Eth" unicode="&#xd0;" horiz-adv-x="1006" 
d="M191 183q75 0 164 -42q11 27 38 107q-138 11 -218 64t-80 143q0 113 110 184.5t272 71.5q221 0 367 -132t146 -316q0 -152 -96.5 -240.5t-232.5 -88.5q-72 0 -129.5 23.5t-118.5 65.5q-83 -86 -208 -86q-83 0 -131.5 34t-48.5 89q0 54 46 88.5t120 34.5zM756 343
q0 -38 -61 -62.5t-159 -32.5q-35 -99 -74 -162q98 -51 166 -51q96 0 163 76.5t67 199.5q0 155 -109 250.5t-269 95.5q-114 0 -180.5 -54t-66.5 -135q0 -60 46.5 -103.5t134.5 -52.5q36 105 77 173.5t105 99.5q27 13 49 13q28 0 28 -12q0 -4 -5 -11.5l-16 -23.5t-21 -34
q-24 -45 -71 -196q61 13 106 36q21 10 34 21t17.5 16t8.5 5q11 0 20.5 -20t9.5 -36zM213 -3q67 0 115 84q-62 38 -111 38q-38 0 -59 -17t-21 -44q0 -26 21 -43.5t55 -17.5z" />
    <glyph glyph-name="Ntilde" unicode="&#xd1;" horiz-adv-x="856" 
d="M988 639q0 -50 -39 -114t-103.5 -159.5t-103.5 -181.5q17 -51 17 -92q0 -48 -28 -82t-67 -34q-52 0 -52 67q0 24 7 49q-4 35 -20.5 81.5t-46.5 117.5t-44 107q-19 -67 -41 -127t-56.5 -125.5t-72.5 -112t-90 -76.5t-109 -30q-79 0 -121 37t-42 94q0 47 29.5 77t67.5 30
q30 0 51 -14.5t21 -34.5q0 -3 -15 -20t-15 -41q0 -25 17 -38.5t44 -13.5q53 0 103.5 51t88.5 131.5t64.5 158t43.5 150.5q-15 62 -15 109q0 45 22.5 77.5t52.5 32.5q59 0 59 -69q0 -25 -15 -73q16 -56 71 -174t66 -145l52 97.5l49 91.5t29.5 73.5t13.5 77.5q0 39 -19.5 64
t-44.5 31q-13 3 -13 10q0 19 27 37.5t64 18.5q44 0 78.5 -27.5t34.5 -86.5zM642 750q-11 0 -11 21q0 40 28 68.5t68 28.5q22 0 54.5 -1t44.5 -1q60 0 81 27q11 14 18 14q12 0 12 -30q0 -41 -24 -76.5t-71 -35.5q-29 0 -73.5 12t-62.5 12t-31 -9.5t-21 -19.5t-12 -10z" />
    <glyph glyph-name="Ograve" unicode="&#xd2;" horiz-adv-x="760" 
d="M625 325q0 97 -46 160.5t-138 72.5q-21 2 -21 14q0 16 28.5 29t69.5 13q99 0 163.5 -75.5t64.5 -192.5q0 -107 -54 -209t-153.5 -169t-216.5 -67q-81 0 -148 32t-110.5 102.5t-43.5 170.5q0 133 73.5 250t186 183t228.5 66q62 0 107 -18.5t45 -45.5q0 -14 -11 -14
q-1 0 -35.5 9t-75.5 9q-99 0 -183 -62.5t-131 -160.5t-47 -205q0 -113 52 -178t131 -65q110 0 187.5 102t77.5 249zM535 743q-25 0 -61 11t-67 33t-31 48q0 24 23 47t38 23q7 0 11.5 -4.5t8 -12t14 -23.5t25.5 -34q15 -17 28 -30t20 -18.5l12.5 -10t7.5 -7t2 -6.5
q0 -16 -31 -16z" />
    <glyph glyph-name="Oacute" unicode="&#xd3;" horiz-adv-x="760" 
d="M625 325q0 97 -46 160.5t-138 72.5q-21 2 -21 14q0 16 28.5 29t69.5 13q99 0 163.5 -75.5t64.5 -192.5q0 -107 -54 -209t-153.5 -169t-216.5 -67q-81 0 -148 32t-110.5 102.5t-43.5 170.5q0 133 73.5 250t186 183t228.5 66q62 0 107 -18.5t45 -45.5q0 -14 -11 -14
q-1 0 -35.5 9t-75.5 9q-99 0 -183 -62.5t-131 -160.5t-47 -205q0 -113 52 -178t131 -65q110 0 187.5 102t77.5 249zM481 743q-31 0 -31 16q0 4 2 6.5t8 7l14 10t23 18t32 29.5q20 19 33 36t17 24t8.5 11t11.5 4q16 0 38.5 -19.5t22.5 -43.5q0 -38 -67.5 -68.5t-111.5 -30.5z
" />
    <glyph glyph-name="Ocircumflex" unicode="&#xd4;" horiz-adv-x="760" 
d="M625 325q0 97 -46 160.5t-138 72.5q-21 2 -21 14q0 16 28.5 29t69.5 13q99 0 163.5 -75.5t64.5 -192.5q0 -107 -54 -209t-153.5 -169t-216.5 -67q-81 0 -148 32t-110.5 102.5t-43.5 170.5q0 133 73.5 250t186 183t228.5 66q62 0 107 -18.5t45 -45.5q0 -14 -11 -14
q-1 0 -35.5 9t-75.5 9q-99 0 -183 -62.5t-131 -160.5t-47 -205q0 -113 52 -178t131 -65q110 0 187.5 102t77.5 249zM412 735q-16 0 -16 13q0 4 5 9.5t14 12.5t12 10q42 36 85 88q12 14 17 17.5t17 3.5t32.5 -10.5t28.5 -29.5l6 -17q6 -18 14 -37q7 -16 15 -27.5t11 -16.5
t3 -11q0 -13 -18 -13q-25 0 -56 20t-51 48q-89 -60 -119 -60z" />
    <glyph glyph-name="Otilde" unicode="&#xd5;" horiz-adv-x="760" 
d="M625 325q0 97 -46 160.5t-138 72.5q-21 2 -21 14q0 16 28.5 29t69.5 13q99 0 163.5 -75.5t64.5 -192.5q0 -107 -54 -209t-153.5 -169t-216.5 -67q-81 0 -148 32t-110.5 102.5t-43.5 170.5q0 133 73.5 250t186 183t228.5 66q62 0 107 -18.5t45 -45.5q0 -14 -11 -14
q-1 0 -35.5 9t-75.5 9q-99 0 -183 -62.5t-131 -160.5t-47 -205q0 -113 52 -178t131 -65q110 0 187.5 102t77.5 249zM424 750q-11 0 -11 21q0 40 28 68.5t68 28.5q22 0 54.5 -1t44.5 -1q60 0 81 27q11 14 18 14q12 0 12 -30q0 -41 -24 -76.5t-71 -35.5q-29 0 -73.5 12
t-62.5 12t-31 -9.5t-21 -19.5t-12 -10z" />
    <glyph glyph-name="Odieresis" unicode="&#xd6;" horiz-adv-x="760" 
d="M625 325q0 97 -46 160.5t-138 72.5q-21 2 -21 14q0 16 28.5 29t69.5 13q99 0 163.5 -75.5t64.5 -192.5q0 -107 -54 -209t-153.5 -169t-216.5 -67q-81 0 -148 32t-110.5 102.5t-43.5 170.5q0 133 73.5 250t186 183t228.5 66q62 0 107 -18.5t45 -45.5q0 -14 -11 -14
q-1 0 -35.5 9t-75.5 9q-99 0 -183 -62.5t-131 -160.5t-47 -205q0 -113 52 -178t131 -65q110 0 187.5 102t77.5 249zM450 743q-24 0 -40.5 17t-16.5 41q0 32 24.5 57t56.5 25q24 0 39.5 -16.5t15.5 -40.5q0 -34 -23.5 -58.5t-55.5 -24.5zM633 733q-24 0 -40.5 17t-16.5 41
q0 32 24.5 57t57.5 25q24 0 39 -16.5t15 -40.5q0 -34 -23.5 -58.5t-55.5 -24.5z" />
    <glyph glyph-name="multiply" unicode="&#xd7;" horiz-adv-x="408" 
d="M197 383l21 -42q85 86 144 129q21 17 47 17q11 0 11 -10q0 -5 -5.5 -12t-18 -18t-14.5 -13q-64 -65 -133 -144q33 -45 65 -68q40 -29 68 -29q9 0 9 -16q0 -35 -25.5 -60t-61.5 -25q-32 0 -109 132q-21 -26 -38.5 -51l-26 -37.5t-11.5 -15.5q-10 -10 -21 -10
q-27 0 -46.5 8.5t-19.5 19.5q0 20 111 128l19 19q-55 112 -55 157q0 42 23 42q9 0 16 -5.5t13.5 -16.5t11.5 -22l12.5 -28t13.5 -29z" />
    <glyph glyph-name="Oslash" unicode="&#xd8;" horiz-adv-x="760" 
d="M763 735q11 8 20 8q14 0 14 -15q0 -16 -18 -37q-11 -13 -123 -119l-5 -5q95 -77 95 -221q0 -107 -54 -209t-153.5 -169t-216.5 -67q-86 0 -156 37q-19 -34 -41 -79q-5 -10 -9 -20.5t-5.5 -15t-4.5 -7.5t-8 -3q-13 0 -35.5 24t-22.5 53q0 27 51 108q-71 79 -71 208
q0 133 73.5 250t186 183t228.5 66q57 0 100.5 -16t50.5 -40q55 49 104 86zM625 325q0 103 -50 165q-187 -201 -346 -451q51 -65 131 -65q110 0 187.5 102t77.5 249zM602 597q34 31 35 32q-54 16 -99 16q-99 0 -183 -62.5t-131 -160.5t-47 -205q0 -47 9 -85q163 212 346 396
q-38 24 -91 30q-21 2 -21 14q0 16 28.5 29t69.5 13q44 0 84 -17z" />
    <glyph glyph-name="Ugrave" unicode="&#xd9;" horiz-adv-x="956" 
d="M681 701q31 0 50 -12t19 -35q0 -24 -22.5 -38.5t-58.5 -14.5q-18 0 -36 3q-79 -69 -134.5 -192.5t-55.5 -225.5q0 -70 28.5 -111t81.5 -41q69 0 126 67v5q0 14 2 36q7 58 27.5 137.5t51.5 162t75 139t89 56.5q56 0 56 -84q0 -65 -52.5 -184.5t-121.5 -230.5q0 -77 34 -77
q54 0 138 120q6 9 15 9q13 0 13 -15q0 -9 -5 -17q-111 -199 -227 -199q-58 0 -83 67q-44 -53 -100 -83t-112 -30q-86 0 -134.5 66t-48.5 167q0 129 74 266t165 215q-82 21 -134 21q-78 0 -129.5 -35t-51.5 -87q0 -27 14.5 -43.5t37.5 -16.5q26 0 48 19q7 5 11 5q14 0 14 -25
q0 -40 -38.5 -78.5t-96.5 -38.5q-55 0 -92 37t-37 98q0 93 87 155.5t227 62.5q26 0 55 -3t47.5 -5.5t52 -8.5t45.5 -8q42 25 86 25zM898 710q-25 0 -61 11t-67 33t-31 48q0 24 23 47t38 23q7 0 11.5 -4.5t8 -12t14 -23.5t25.5 -34q15 -17 28 -30t20 -18.5l12.5 -10t7.5 -7
t2 -6.5q0 -16 -31 -16z" />
    <glyph glyph-name="Uacute" unicode="&#xda;" horiz-adv-x="956" 
d="M681 701q31 0 50 -12t19 -35q0 -24 -22.5 -38.5t-58.5 -14.5q-18 0 -36 3q-79 -69 -134.5 -192.5t-55.5 -225.5q0 -70 28.5 -111t81.5 -41q69 0 126 67v5q0 14 2 36q7 58 27.5 137.5t51.5 162t75 139t89 56.5q56 0 56 -84q0 -65 -52.5 -184.5t-121.5 -230.5q0 -77 34 -77
q54 0 138 120q6 9 15 9q13 0 13 -15q0 -9 -5 -17q-111 -199 -227 -199q-58 0 -83 67q-44 -53 -100 -83t-112 -30q-86 0 -134.5 66t-48.5 167q0 129 74 266t165 215q-82 21 -134 21q-78 0 -129.5 -35t-51.5 -87q0 -27 14.5 -43.5t37.5 -16.5q26 0 48 19q7 5 11 5q14 0 14 -25
q0 -40 -38.5 -78.5t-96.5 -38.5q-55 0 -92 37t-37 98q0 93 87 155.5t227 62.5q26 0 55 -3t47.5 -5.5t52 -8.5t45.5 -8q42 25 86 25zM825 708q-31 0 -31 16q0 4 2 6.5t8 7l14 10t23 18t32 29.5q20 19 33 36t17 24t8.5 11t11.5 4q16 0 38.5 -19.5t22.5 -43.5
q0 -38 -67.5 -68.5t-111.5 -30.5z" />
    <glyph glyph-name="Ucircumflex" unicode="&#xdb;" horiz-adv-x="956" 
d="M681 701q31 0 50 -12t19 -35q0 -24 -22.5 -38.5t-58.5 -14.5q-18 0 -36 3q-79 -69 -134.5 -192.5t-55.5 -225.5q0 -70 28.5 -111t81.5 -41q69 0 126 67v5q0 14 2 36q7 58 27.5 137.5t51.5 162t75 139t89 56.5q56 0 56 -84q0 -65 -52.5 -184.5t-121.5 -230.5q0 -77 34 -77
q54 0 138 120q6 9 15 9q13 0 13 -15q0 -9 -5 -17q-111 -199 -227 -199q-58 0 -83 67q-44 -53 -100 -83t-112 -30q-86 0 -134.5 66t-48.5 167q0 129 74 266t165 215q-82 21 -134 21q-78 0 -129.5 -35t-51.5 -87q0 -27 14.5 -43.5t37.5 -16.5q26 0 48 19q7 5 11 5q14 0 14 -25
q0 -40 -38.5 -78.5t-96.5 -38.5q-55 0 -92 37t-37 98q0 93 87 155.5t227 62.5q26 0 55 -3t47.5 -5.5t52 -8.5t45.5 -8q42 25 86 25zM735 725q-16 0 -16 13q0 4 5 9.5t14 12.5t12 10q42 36 85 88q12 14 17 17.5t17 3.5t32.5 -10.5t28.5 -29.5l6 -17q6 -18 14 -37
q7 -16 15 -27.5t11 -16.5t3 -11q0 -13 -18 -13q-25 0 -56 20t-51 48q-89 -60 -119 -60z" />
    <glyph glyph-name="Udieresis" unicode="&#xdc;" horiz-adv-x="956" 
d="M681 701q31 0 50 -12t19 -35q0 -24 -22.5 -38.5t-58.5 -14.5q-18 0 -36 3q-79 -69 -134.5 -192.5t-55.5 -225.5q0 -70 28.5 -111t81.5 -41q69 0 126 67v5q0 14 2 36q7 58 27.5 137.5t51.5 162t75 139t89 56.5q56 0 56 -84q0 -65 -52.5 -184.5t-121.5 -230.5q0 -77 34 -77
q54 0 138 120q6 9 15 9q13 0 13 -15q0 -9 -5 -17q-111 -199 -227 -199q-58 0 -83 67q-44 -53 -100 -83t-112 -30q-86 0 -134.5 66t-48.5 167q0 129 74 266t165 215q-82 21 -134 21q-78 0 -129.5 -35t-51.5 -87q0 -27 14.5 -43.5t37.5 -16.5q26 0 48 19q7 5 11 5q14 0 14 -25
q0 -40 -38.5 -78.5t-96.5 -38.5q-55 0 -92 37t-37 98q0 93 87 155.5t227 62.5q26 0 55 -3t47.5 -5.5t52 -8.5t45.5 -8q42 25 86 25zM753 723q-24 0 -40.5 17t-16.5 41q0 32 24.5 57t56.5 25q24 0 39.5 -16.5t15.5 -40.5q0 -34 -23.5 -58.5t-55.5 -24.5zM936 713
q-24 0 -40.5 17t-16.5 41q0 32 24.5 57t57.5 25q24 0 39 -16.5t15 -40.5q0 -34 -23.5 -58.5t-55.5 -24.5z" />
    <glyph glyph-name="Yacute" unicode="&#xdd;" horiz-adv-x="915" 
d="M382 -268q-119 0 -187.5 51.5t-68.5 129.5q0 61 41 100t99 39q33 0 62 -17t29 -36q0 -6 -15 -18q-44 -37 -44 -88q0 -41 29 -70.5t81 -29.5q73 0 133.5 51.5t99 129t62.5 176.5q-101 -104 -223 -104q-74 0 -116.5 52t-42.5 125q0 101 68 218t152 186q-80 21 -132 21
q-78 0 -129.5 -35t-51.5 -87q0 -27 14.5 -43.5t37.5 -16.5q26 0 48 19q7 5 11 5q14 0 14 -25q0 -40 -38.5 -78.5t-96.5 -38.5q-55 0 -92 37t-37 98q0 93 87 155.5t227 62.5q26 0 55 -3t47.5 -5.5t52 -8.5t45.5 -8q42 25 86 25q31 0 50 -12t19 -35q0 -24 -22.5 -38.5
t-58.5 -14.5q-17 0 -35 3q-65 -59 -114.5 -161t-49.5 -180q0 -46 20 -76t60 -30q34 0 78.5 19.5t84.5 61.5q94 472 238 472q61 0 61 -76q0 -108 -133 -326q-20 -111 -42.5 -190t-72 -164.5t-120.5 -136.5q-117 -85 -270 -85zM820 743q-31 0 -31 16q0 4 2 6.5t8 7l14 10
t23 18t32 29.5q20 19 33 36t17 24t8.5 11t11.5 4q16 0 38.5 -19.5t22.5 -43.5q0 -38 -67.5 -68.5t-111.5 -30.5z" />
    <glyph glyph-name="Thorn" unicode="&#xde;" horiz-adv-x="906" 
d="M694 702q31 0 50.5 -12.5t19.5 -35.5q0 -24 -22.5 -38.5t-58.5 -14.5q-26 0 -52 6q-25 -33 -47 -95q27 3 56 3q121 0 194 -50t73 -133q0 -96 -92 -157.5t-219 -61.5q-69 0 -131 20q-93 -206 -284 -206q-80 0 -131.5 40.5t-51.5 96.5q0 47 28 74t67 27q29 0 51 -19t22 -40
q0 -3 -16.5 -20.5t-16.5 -43.5q0 -25 19 -40.5t46 -15.5q52 0 89.5 50t62 129.5t47.5 164.5t62 170t90 130q-70 18 -115 18q-78 0 -129.5 -35t-51.5 -87q0 -27 14.5 -43.5t37.5 -16.5q26 0 48 19q7 5 11 5q14 0 14 -25q0 -40 -38.5 -78.5t-96.5 -38.5q-55 0 -92 37t-37 98
q0 93 87 155.5t227 62.5q25 0 53 -3t42 -5t47.5 -8.5t39.5 -7.5q42 25 84 25zM591 462q-16 0 -23 -1q-6 -19 -33.5 -121t-47.5 -155q45 -14 93 -14q82 0 135 41.5t53 111.5q0 61 -44.5 99.5t-132.5 38.5z" />
    <glyph glyph-name="germandbls" unicode="&#xdf;" horiz-adv-x="454" 
d="M182 322q0 25 27 40.5t61 22.5q77 79 77 151q0 43 -30 43q-20 0 -54 -43.5t-68 -113t-59 -172.5t-25 -206q0 -40 3.5 -68t7 -41t3.5 -18q0 -14 -18 -14q-20 0 -47 16t-44 44q-15 23 -15 81q0 38 8 90q22 141 72 273t117 218t130 86q44 0 70 -32t26 -88q0 -94 -96 -205
q53 -12 81 -54t28 -91q0 -95 -63.5 -172t-155.5 -77q-39 0 -66.5 21.5t-27.5 57.5q0 32 22.5 55t53.5 23q22 0 22 -13q0 -2 -7 -17.5t-7 -30.5q0 -43 32 -43q37 0 63.5 53.5t26.5 111.5q0 94 -57 119q-36 -32 -62 -32q-29 0 -29 25z" />
    <glyph glyph-name="agrave" unicode="&#xe0;" horiz-adv-x="405" 
d="M279 -5q-44 0 -65 38q-46 -42 -102 -42q-50 0 -82.5 34.5t-32.5 94.5q0 98 70.5 178t158.5 80q38 0 64.5 -19.5t26.5 -44.5l-1 -7q4 1 8 1q16 0 26.5 -12.5t10.5 -31.5q0 -60 -64 -157q5 -27 21 -27q38 0 109 101q6 9 15 9q13 0 13 -15q0 -8 -5 -17q-52 -94 -92 -128.5
t-79 -34.5zM160 69q23 0 40 17v12q0 84 44 154q-21 4 -21 12q0 4 4 12.5t4 17.5q0 29 -26 29q-32 0 -65.5 -51.5t-33.5 -121.5q0 -38 15 -59.5t39 -21.5zM163 543q0 23 20.5 40.5t38.5 17.5q3 0 5.5 -0.5t4.5 -1t3.5 -1.5t2.5 -2t2 -3.5t1.5 -4t1.5 -5t1 -5.5t1 -6.5t1 -7.5
q7 -49 27 -99q11 -27 11 -29q0 -12 -15 -12q-22 0 -64 41t-42 78z" />
    <glyph glyph-name="aacute" unicode="&#xe1;" horiz-adv-x="405" 
d="M279 -5q-44 0 -65 38q-46 -42 -102 -42q-50 0 -82.5 34.5t-32.5 94.5q0 98 70.5 178t158.5 80q38 0 64.5 -19.5t26.5 -44.5l-1 -7q4 1 8 1q16 0 26.5 -12.5t10.5 -31.5q0 -60 -64 -157q5 -27 21 -27q38 0 109 101q6 9 15 9q13 0 13 -15q0 -8 -5 -17q-52 -94 -92 -128.5
t-79 -34.5zM160 69q23 0 40 17v12q0 84 44 154q-21 4 -21 12q0 4 4 12.5t4 17.5q0 29 -26 29q-32 0 -65.5 -51.5t-33.5 -121.5q0 -38 15 -59.5t39 -21.5zM361 543q0 -36 -55.5 -77.5t-81.5 -41.5q-12 0 -12 9q0 4 11 20q28 36 61 111q4 8 6.5 16.5t4 12t4.5 6t8 2.5
q20 0 37 -18.5t17 -39.5z" />
    <glyph glyph-name="acircumflex" unicode="&#xe2;" horiz-adv-x="405" 
d="M279 -5q-44 0 -65 38q-46 -42 -102 -42q-50 0 -82.5 34.5t-32.5 94.5q0 98 70.5 178t158.5 80q38 0 64.5 -19.5t26.5 -44.5l-1 -7q4 1 8 1q16 0 26.5 -12.5t10.5 -31.5q0 -60 -64 -157q5 -27 21 -27q38 0 109 101q6 9 15 9q13 0 13 -15q0 -8 -5 -17q-52 -94 -92 -128.5
t-79 -34.5zM160 69q23 0 40 17v12q0 84 44 154q-21 4 -21 12q0 4 4 12.5t4 17.5q0 29 -26 29q-32 0 -65.5 -51.5t-33.5 -121.5q0 -38 15 -59.5t39 -21.5zM145 424q-12 0 -12 10q0 9 18 25q38 37 81 111q18 31 35 31q33 0 38 -37q8 -62 26 -103q11 -26 11 -27q0 -10 -13 -10
q-15 0 -38 18t-40 43q-23 -23 -57 -42t-49 -19z" />
    <glyph glyph-name="atilde" unicode="&#xe3;" horiz-adv-x="405" 
d="M279 -5q-44 0 -65 38q-46 -42 -102 -42q-50 0 -82.5 34.5t-32.5 94.5q0 98 70.5 178t158.5 80q38 0 64.5 -19.5t26.5 -44.5l-1 -7q4 1 8 1q16 0 26.5 -12.5t10.5 -31.5q0 -60 -64 -157q5 -27 21 -27q38 0 109 101q6 9 15 9q13 0 13 -15q0 -8 -5 -17q-52 -94 -92 -128.5
t-79 -34.5zM160 69q23 0 40 17v12q0 84 44 154q-21 4 -21 12q0 4 4 12.5t4 17.5q0 29 -26 29q-32 0 -65.5 -51.5t-33.5 -121.5q0 -38 15 -59.5t39 -21.5zM152 446q-9 0 -9 17q0 26 23 53t55 27q22 0 55.5 -13.5t48.5 -13.5q27 0 43 20q8 11 14 11q10 0 10 -24
q0 -32 -23.5 -61t-62.5 -29q-24 0 -55.5 22.5t-45.5 22.5q-20 0 -35.5 -16t-17.5 -16z" />
    <glyph glyph-name="adieresis" unicode="&#xe4;" horiz-adv-x="405" 
d="M279 -5q-44 0 -65 38q-46 -42 -102 -42q-50 0 -82.5 34.5t-32.5 94.5q0 98 70.5 178t158.5 80q38 0 64.5 -19.5t26.5 -44.5l-1 -7q4 1 8 1q16 0 26.5 -12.5t10.5 -31.5q0 -60 -64 -157q5 -27 21 -27q38 0 109 101q6 9 15 9q13 0 13 -15q0 -8 -5 -17q-52 -94 -92 -128.5
t-79 -34.5zM160 69q23 0 40 17v12q0 84 44 154q-21 4 -21 12q0 4 4 12.5t4 17.5q0 29 -26 29q-32 0 -65.5 -51.5t-33.5 -121.5q0 -38 15 -59.5t39 -21.5zM176 436q-22 0 -36.5 15t-14.5 37q0 29 22 51.5t51 22.5q22 0 35.5 -14.5t13.5 -36.5q0 -31 -21 -53t-50 -22zM324 431
q-22 0 -36.5 15t-14.5 37q0 29 22 51.5t51 22.5q22 0 35.5 -14.5t13.5 -36.5q0 -31 -21 -53t-50 -22z" />
    <glyph glyph-name="aring" unicode="&#xe5;" horiz-adv-x="405" 
d="M279 -5q-44 0 -65 38q-46 -42 -102 -42q-50 0 -82.5 34.5t-32.5 94.5q0 98 70.5 178t158.5 80q38 0 64.5 -19.5t26.5 -44.5l-1 -7q4 1 8 1q16 0 26.5 -12.5t10.5 -31.5q0 -60 -64 -157q5 -27 21 -27q38 0 109 101q6 9 15 9q13 0 13 -15q0 -8 -5 -17q-52 -94 -92 -128.5
t-79 -34.5zM160 69q23 0 40 17v12q0 84 44 154q-21 4 -21 12q0 4 4 12.5t4 17.5q0 29 -26 29q-32 0 -65.5 -51.5t-33.5 -121.5q0 -38 15 -59.5t39 -21.5zM275 578q29 0 49.5 -19.5t20.5 -52.5q0 -36 -23.5 -62.5t-60.5 -26.5q-34 0 -52 21.5t-18 50.5q0 33 24.5 61t59.5 28z
M267 462q13 0 22 12.5t9 27.5q0 14 -7.5 23t-18.5 9q-13 0 -22 -12t-9 -27q0 -13 7 -23t19 -10z" />
    <glyph glyph-name="ae" unicode="&#xe6;" horiz-adv-x="541" 
d="M395 71q91 0 168 110q6 9 15 9q13 0 13 -15q0 -8 -5 -17q-35 -63 -80.5 -102.5t-82 -52t-74.5 -12.5q-77 0 -118 60q-53 -60 -119 -60q-50 0 -82.5 34.5t-32.5 94.5q0 98 70.5 178t158.5 80q61 0 85 -42q53 42 112 42q46 0 72.5 -24.5t26.5 -59.5q0 -52 -55 -95t-143 -54
q11 -74 71 -74zM160 69q29 0 52 31q-3 17 -3 34q0 60 32 118q-18 5 -18 12q0 4 4 12.5t4 17.5q0 29 -26 29q-32 0 -65.5 -51.5t-33.5 -121.5q0 -38 15 -59.5t39 -21.5zM412 330q-27 0 -56.5 -46t-33.5 -99q45 12 78 44.5t33 70.5q0 30 -21 30z" />
    <glyph glyph-name="ccedilla" unicode="&#xe7;" horiz-adv-x="335" 
d="M79 -59q0 26 22 55q-44 11 -73.5 47t-29.5 91q0 92 66 168t149 76q46 0 77 -27.5t31 -62.5q0 -38 -23 -61t-52 -23q-22 0 -38.5 14t-16.5 30q0 2 14 22t14 39q0 21 -18 21q-29 0 -59.5 -51.5t-30.5 -107.5q0 -44 21.5 -71t58.5 -27q90 0 166 108q6 9 15 9q13 0 13 -15
q0 -8 -5 -17q-50 -89 -112 -127t-122 -40q-5 -8 -5 -19q0 -14 23 -45t23 -57q0 -35 -37.5 -61.5t-69.5 -26.5q-19 0 -19 12q0 7 13 15q21 14 21 38q0 20 -8 48t-8 46z" />
    <glyph glyph-name="egrave" unicode="&#xe8;" horiz-adv-x="330" 
d="M133 543q0 23 20.5 40.5t38.5 17.5q3 0 5.5 -0.5t4.5 -1t3.5 -1.5t2.5 -2t2 -3.5t1.5 -4t1.5 -5t1 -5.5t1 -6.5t1 -7.5q7 -49 27 -99q11 -27 11 -29q0 -12 -15 -12q-22 0 -64 41t-42 78zM184 71q91 0 168 110q6 9 15 9q13 0 13 -15q0 -8 -5 -17q-35 -63 -80.5 -102.5
t-82 -52t-74.5 -12.5q-56 0 -98 37.5t-42 105.5q0 92 66 168t148 76q46 0 72.5 -24.5t26.5 -59.5q0 -52 -55 -95t-143 -54q11 -74 71 -74zM201 330q-27 0 -56.5 -46t-33.5 -99q45 12 78 44.5t33 70.5q0 30 -21 30z" />
    <glyph glyph-name="eacute" unicode="&#xe9;" horiz-adv-x="330" 
d="M350 543q0 -36 -55.5 -77.5t-81.5 -41.5q-12 0 -12 9q0 4 11 20q28 36 61 111q4 8 6.5 16.5t4 12t4.5 6t8 2.5q20 0 37 -18.5t17 -39.5zM184 71q91 0 168 110q6 9 15 9q13 0 13 -15q0 -8 -5 -17q-35 -63 -80.5 -102.5t-82 -52t-74.5 -12.5q-56 0 -98 37.5t-42 105.5
q0 92 66 168t148 76q46 0 72.5 -24.5t26.5 -59.5q0 -52 -55 -95t-143 -54q11 -74 71 -74zM201 330q-27 0 -56.5 -46t-33.5 -99q45 12 78 44.5t33 70.5q0 30 -21 30z" />
    <glyph glyph-name="ecircumflex" unicode="&#xea;" horiz-adv-x="330" 
d="M128 424q-12 0 -12 10q0 9 18 25q38 37 81 111q18 31 35 31q33 0 38 -37q8 -62 26 -103q11 -26 11 -27q0 -10 -13 -10q-15 0 -38 18t-40 43q-23 -23 -57 -42t-49 -19zM184 71q91 0 168 110q6 9 15 9q13 0 13 -15q0 -8 -5 -17q-35 -63 -80.5 -102.5t-82 -52t-74.5 -12.5
q-56 0 -98 37.5t-42 105.5q0 92 66 168t148 76q46 0 72.5 -24.5t26.5 -59.5q0 -52 -55 -95t-143 -54q11 -74 71 -74zM201 330q-27 0 -56.5 -46t-33.5 -99q45 12 78 44.5t33 70.5q0 30 -21 30z" />
    <glyph glyph-name="edieresis" unicode="&#xeb;" horiz-adv-x="330" 
d="M160 436q-22 0 -36.5 15t-14.5 37q0 29 22 51.5t51 22.5q22 0 35.5 -14.5t13.5 -36.5q0 -31 -21 -53t-50 -22zM308 431q-22 0 -36.5 15t-14.5 37q0 29 22 51.5t51 22.5q22 0 35.5 -14.5t13.5 -36.5q0 -31 -21 -53t-50 -22zM184 71q91 0 168 110q6 9 15 9q13 0 13 -15
q0 -8 -5 -17q-35 -63 -80.5 -102.5t-82 -52t-74.5 -12.5q-56 0 -98 37.5t-42 105.5q0 92 66 168t148 76q46 0 72.5 -24.5t26.5 -59.5q0 -52 -55 -95t-143 -54q11 -74 71 -74zM201 330q-27 0 -56.5 -46t-33.5 -99q45 12 78 44.5t33 70.5q0 30 -21 30z" />
    <glyph glyph-name="igrave" unicode="&#xec;" horiz-adv-x="235" 
d="M124 378q26 0 41.5 -17t15.5 -43q0 -6 -2 -13t-4 -11t-8 -14.5l-10 -17.5q-44 -84 -44 -143q0 -41 27 -41q45 0 117 103q6 9 15 9q13 0 13 -15q0 -8 -5 -17q-93 -167 -194 -167q-42 0 -64.5 32t-22.5 81q0 75 34 160q46 114 91 114zM104 543q0 23 20.5 40.5t38.5 17.5
q3 0 5.5 -0.5t4.5 -1t3.5 -1.5t2.5 -2t2 -3.5t1.5 -4t1.5 -5t1 -5.5t1 -6.5t1 -7.5q7 -49 27 -99q11 -27 11 -29q0 -12 -15 -12q-22 0 -64 41t-42 78z" />
    <glyph glyph-name="iacute" unicode="&#xed;" horiz-adv-x="235" 
d="M124 378q26 0 41.5 -17t15.5 -43q0 -6 -2 -13t-4 -11t-8 -14.5l-10 -17.5q-44 -84 -44 -143q0 -41 27 -41q45 0 117 103q6 9 15 9q13 0 13 -15q0 -8 -5 -17q-93 -167 -194 -167q-42 0 -64.5 32t-22.5 81q0 75 34 160q46 114 91 114zM295 543q0 -36 -55.5 -77.5
t-81.5 -41.5q-12 0 -12 9q0 4 11 20q28 36 61 111q4 8 6.5 16.5t4 12t4.5 6t8 2.5q20 0 37 -18.5t17 -39.5z" />
    <glyph glyph-name="icircumflex" unicode="&#xee;" horiz-adv-x="235" 
d="M124 378q26 0 41.5 -17t15.5 -43q0 -6 -2 -13t-4 -11t-8 -14.5l-10 -17.5q-44 -84 -44 -143q0 -41 27 -41q45 0 117 103q6 9 15 9q13 0 13 -15q0 -8 -5 -17q-93 -167 -194 -167q-42 0 -64.5 32t-22.5 81q0 75 34 160q46 114 91 114zM82 424q-12 0 -12 10q0 9 18 25
q38 37 81 111q18 31 35 31q33 0 38 -37q8 -62 26 -103q11 -26 11 -27q0 -10 -13 -10q-15 0 -38 18t-40 43q-23 -23 -57 -42t-49 -19z" />
    <glyph glyph-name="idieresis" unicode="&#xef;" horiz-adv-x="235" 
d="M120 435q-20 0 -34 15t-14 36q0 29 21 51t49 22q22 0 35 -15t13 -36q0 -31 -21.5 -52t-48.5 -21zM250 426q-20 0 -33 14.5t-13 36.5q0 29 21 51t47 22q22 0 35 -14.5t13 -34.5q0 -32 -21.5 -53.5t-48.5 -21.5zM124 378q26 0 41.5 -17t15.5 -43q0 -6 -2 -13t-4 -11
t-8 -14.5l-10 -17.5q-44 -84 -44 -143q0 -41 27 -41q45 0 117 103q6 9 15 9q13 0 13 -15q0 -8 -5 -17q-93 -167 -194 -167q-42 0 -64.5 32t-22.5 81q0 75 34 160q46 114 91 114z" />
    <glyph glyph-name="eth" unicode="&#xf0;" horiz-adv-x="372" 
d="M225 698q39 0 73 -44q19 -25 37 -62q21 19 37 38t22.5 27.5t11.5 8.5q10 0 20 -24t10 -39q0 -35 -77 -81q18 -72 18 -151q0 -97 -31 -183.5t-89.5 -141.5t-130.5 -55q-60 0 -94.5 37t-34.5 100q0 92 67.5 171t149.5 79q44 0 67 -22q-6 60 -27 116q-66 -24 -100 -24
q-26 0 -26 17q0 13 19 21q41 14 79 34l4 2q-31 55 -73 83q-18 11 -18 15q0 21 26 49.5t60 28.5zM164 60q42 0 74 52t41 138q-6 -3 -17 -3q-43 0 -43 18q0 3 4 12t4 17q0 13 -7.5 21t-18.5 8q-31 0 -63 -51.5t-32 -119.5q0 -92 58 -92z" />
    <glyph glyph-name="ntilde" unicode="&#xf1;" horiz-adv-x="435" 
d="M153 287q0 -11 -22 -66.5t-29 -110.5q27 62 61.5 119t82.5 103t89 46q24 0 42.5 -17.5t18.5 -52.5q0 -44 -32.5 -114t-32.5 -89q0 -24 17 -24q39 0 109 100q6 9 15 9q13 0 13 -15q0 -8 -5 -17q-52 -94 -95 -130.5t-84 -36.5q-36 0 -59 24.5t-23 63.5t26 101.5t26 76.5
q0 12 -10 12q-19 0 -56.5 -55.5t-63.5 -123.5q-4 -11 -11 -32t-10.5 -29t-9.5 -19t-13 -15t-17 -4q-47 0 -67 50q-8 21 -8 70q0 31 14 98q14 70 33 102t47 32q22 0 38 -17t16 -39zM169 446q-9 0 -9 17q0 26 23 53t55 27q22 0 55.5 -13.5t48.5 -13.5q27 0 43 20q8 11 14 11
q10 0 10 -24q0 -32 -23.5 -61t-62.5 -29q-24 0 -55.5 22.5t-45.5 22.5q-20 0 -35.5 -16t-17.5 -16z" />
    <glyph glyph-name="ograve" unicode="&#xf2;" horiz-adv-x="371" 
d="M478 257q-16 -23 -54.5 -45.5t-84.5 -31.5q-19 -79 -75 -134t-132 -55q-63 0 -98.5 39t-35.5 98q0 72 47.5 133.5t97.5 79.5q10 27 34.5 43t53.5 16q48 0 82 -42.5t34 -113.5q0 -4 -0.5 -12t-0.5 -12q62 13 113 60q9 8 16 8q11 0 11 -12q0 -8 -8 -19zM171 64
q35 0 61.5 32t35.5 80q-49 6 -83.5 33t-44.5 65q-37 -49 -37 -115q0 -41 18 -68t50 -27zM206 276q0 -21 18 -37t49 -21v5q0 38 -12 60t-30 22q-10 0 -17.5 -7.5t-7.5 -21.5zM165 543q0 23 20.5 40.5t38.5 17.5q3 0 5.5 -0.5t4.5 -1t3.5 -1.5t2.5 -2t2 -3.5t1.5 -4t1.5 -5
t1 -5.5t1 -6.5t1 -7.5q7 -49 27 -99q11 -27 11 -29q0 -12 -15 -12q-22 0 -64 41t-42 78z" />
    <glyph glyph-name="oacute" unicode="&#xf3;" horiz-adv-x="371" 
d="M478 257q-16 -23 -54.5 -45.5t-84.5 -31.5q-19 -79 -75 -134t-132 -55q-63 0 -98.5 39t-35.5 98q0 72 47.5 133.5t97.5 79.5q10 27 34.5 43t53.5 16q48 0 82 -42.5t34 -113.5q0 -4 -0.5 -12t-0.5 -12q62 13 113 60q9 8 16 8q11 0 11 -12q0 -8 -8 -19zM171 64
q35 0 61.5 32t35.5 80q-49 6 -83.5 33t-44.5 65q-37 -49 -37 -115q0 -41 18 -68t50 -27zM206 276q0 -21 18 -37t49 -21v5q0 38 -12 60t-30 22q-10 0 -17.5 -7.5t-7.5 -21.5zM356 543q0 -36 -55.5 -77.5t-81.5 -41.5q-12 0 -12 9q0 4 11 20q28 36 61 111q4 8 6.5 16.5t4 12
t4.5 6t8 2.5q20 0 37 -18.5t17 -39.5z" />
    <glyph glyph-name="ocircumflex" unicode="&#xf4;" horiz-adv-x="371" 
d="M478 257q-16 -23 -54.5 -45.5t-84.5 -31.5q-19 -79 -75 -134t-132 -55q-63 0 -98.5 39t-35.5 98q0 72 47.5 133.5t97.5 79.5q10 27 34.5 43t53.5 16q48 0 82 -42.5t34 -113.5q0 -4 -0.5 -12t-0.5 -12q62 13 113 60q9 8 16 8q11 0 11 -12q0 -8 -8 -19zM171 64
q35 0 61.5 32t35.5 80q-49 6 -83.5 33t-44.5 65q-37 -49 -37 -115q0 -41 18 -68t50 -27zM206 276q0 -21 18 -37t49 -21v5q0 38 -12 60t-30 22q-10 0 -17.5 -7.5t-7.5 -21.5zM153 424q-12 0 -12 10q0 9 18 25q38 37 81 111q18 31 35 31q33 0 38 -37q8 -62 26 -103
q11 -26 11 -27q0 -10 -13 -10q-15 0 -38 18t-40 43q-23 -23 -57 -42t-49 -19z" />
    <glyph glyph-name="otilde" unicode="&#xf5;" horiz-adv-x="371" 
d="M478 257q-16 -23 -54.5 -45.5t-84.5 -31.5q-19 -79 -75 -134t-132 -55q-63 0 -98.5 39t-35.5 98q0 72 47.5 133.5t97.5 79.5q10 27 34.5 43t53.5 16q48 0 82 -42.5t34 -113.5q0 -4 -0.5 -12t-0.5 -12q62 13 113 60q9 8 16 8q11 0 11 -12q0 -8 -8 -19zM171 64
q35 0 61.5 32t35.5 80q-49 6 -83.5 33t-44.5 65q-37 -49 -37 -115q0 -41 18 -68t50 -27zM206 276q0 -21 18 -37t49 -21v5q0 38 -12 60t-30 22q-10 0 -17.5 -7.5t-7.5 -21.5zM156 446q-9 0 -9 17q0 26 23 53t55 27q22 0 55.5 -13.5t48.5 -13.5q27 0 43 20q8 11 14 11
q10 0 10 -24q0 -32 -23.5 -61t-62.5 -29q-24 0 -55.5 22.5t-45.5 22.5q-20 0 -35.5 -16t-17.5 -16z" />
    <glyph glyph-name="odieresis" unicode="&#xf6;" horiz-adv-x="371" 
d="M478 257q-16 -23 -54.5 -45.5t-84.5 -31.5q-19 -79 -75 -134t-132 -55q-63 0 -98.5 39t-35.5 98q0 72 47.5 133.5t97.5 79.5q10 27 34.5 43t53.5 16q48 0 82 -42.5t34 -113.5q0 -4 -0.5 -12t-0.5 -12q62 13 113 60q9 8 16 8q11 0 11 -12q0 -8 -8 -19zM171 64
q35 0 61.5 32t35.5 80q-49 6 -83.5 33t-44.5 65q-37 -49 -37 -115q0 -41 18 -68t50 -27zM206 276q0 -21 18 -37t49 -21v5q0 38 -12 60t-30 22q-10 0 -17.5 -7.5t-7.5 -21.5zM177 436q-22 0 -36.5 15t-14.5 37q0 29 22 51.5t51 22.5q22 0 35.5 -14.5t13.5 -36.5
q0 -31 -21 -53t-50 -22zM325 431q-22 0 -36.5 15t-14.5 37q0 29 22 51.5t51 22.5q22 0 35.5 -14.5t13.5 -36.5q0 -31 -21 -53t-50 -22z" />
    <glyph glyph-name="divide" unicode="&#xf7;" horiz-adv-x="441" 
d="M205 230q-145 5 -145 77q0 16 10 16q3 0 15 -3.5t36 -6.5t56 -3q119 0 173 21q24 9 41 17.5t23.5 12t10.5 3.5q12 0 19.5 -13.5t7.5 -36.5q0 -85 -202 -85q-29 0 -45 1zM217 63q-22 0 -36.5 15t-14.5 37q0 29 22 51.5t51 22.5q22 0 35.5 -14.5t13.5 -36.5q0 -31 -21 -53
t-50 -22zM270 365q-22 0 -36.5 15t-14.5 37q0 29 22 51.5t51 22.5q22 0 35.5 -14.5t13.5 -36.5q0 -31 -21 -53t-50 -22z" />
    <glyph glyph-name="oslash" unicode="&#xf8;" horiz-adv-x="348" 
d="M376 460q6 6 14 6q12 0 12 -16q0 -6 -11 -23q-6 -10 -69 -82l-7 -8q20 -40 20 -95q0 -95 -58 -173t-151 -78q-14 0 -28 3q-20 -48 -32 -84q-3 -9 -5.5 -19t-4 -13t-7.5 -4q-11 0 -30 17t-19 41q0 26 37 92q-39 36 -39 100q0 68 43 128t94 84q6 29 30 48t58 19
q39 0 68 -31q45 53 85 88zM270 282q-76 -95 -127 -193q13 -5 25 -5q48 0 81.5 43.5t33.5 102.5q0 28 -13 52zM221 318q-16 0 -27 -11t-15 -24q-3 -14 -12 -14q-11 0 -22 16q-46 -46 -46 -112q0 -24 6 -42q55 82 136 182q-10 5 -20 5z" />
    <glyph glyph-name="ugrave" unicode="&#xf9;" horiz-adv-x="446" 
d="M344 361q50 0 50 -60q0 -36 -23.5 -80.5t-49.5 -73.5q-1 -8 -1 -25q0 -44 31 -44q45 0 117 103q6 9 15 9q13 0 13 -15q0 -8 -5 -17q-93 -167 -194 -167q-57 0 -79 59q-55 -59 -121 -59q-46 0 -72 32t-26 81q0 75 34 160q46 114 91 114q26 0 41.5 -17t15.5 -43
q0 -14 -24 -56q-48 -86 -48 -140q0 -52 34 -52q32 0 67 33v1q0 68 37 160q39 97 97 97zM200 543q0 23 20.5 40.5t38.5 17.5q3 0 5.5 -0.5t4.5 -1t3.5 -1.5t2.5 -2t2 -3.5t1.5 -4t1.5 -5t1 -5.5t1 -6.5t1 -7.5q7 -49 27 -99q11 -27 11 -29q0 -12 -15 -12q-22 0 -64 41t-42 78
z" />
    <glyph glyph-name="uacute" unicode="&#xfa;" horiz-adv-x="446" 
d="M344 361q50 0 50 -60q0 -36 -23.5 -80.5t-49.5 -73.5q-1 -8 -1 -25q0 -44 31 -44q45 0 117 103q6 9 15 9q13 0 13 -15q0 -8 -5 -17q-93 -167 -194 -167q-57 0 -79 59q-55 -59 -121 -59q-46 0 -72 32t-26 81q0 75 34 160q46 114 91 114q26 0 41.5 -17t15.5 -43
q0 -14 -24 -56q-48 -86 -48 -140q0 -52 34 -52q32 0 67 33v1q0 68 37 160q39 97 97 97zM378 543q0 -36 -55.5 -77.5t-81.5 -41.5q-12 0 -12 9q0 4 11 20q28 36 61 111q4 8 6.5 16.5t4 12t4.5 6t8 2.5q20 0 37 -18.5t17 -39.5z" />
    <glyph glyph-name="ucircumflex" unicode="&#xfb;" horiz-adv-x="446" 
d="M344 361q50 0 50 -60q0 -36 -23.5 -80.5t-49.5 -73.5q-1 -8 -1 -25q0 -44 31 -44q45 0 117 103q6 9 15 9q13 0 13 -15q0 -8 -5 -17q-93 -167 -194 -167q-57 0 -79 59q-55 -59 -121 -59q-46 0 -72 32t-26 81q0 75 34 160q46 114 91 114q26 0 41.5 -17t15.5 -43
q0 -14 -24 -56q-48 -86 -48 -140q0 -52 34 -52q32 0 67 33v1q0 68 37 160q39 97 97 97zM176 424q-12 0 -12 10q0 9 18 25q38 37 81 111q18 31 35 31q33 0 38 -37q8 -62 26 -103q11 -26 11 -27q0 -10 -13 -10q-15 0 -38 18t-40 43q-23 -23 -57 -42t-49 -19z" />
    <glyph glyph-name="udieresis" unicode="&#xfc;" horiz-adv-x="446" 
d="M344 361q50 0 50 -60q0 -36 -23.5 -80.5t-49.5 -73.5q-1 -8 -1 -25q0 -44 31 -44q45 0 117 103q6 9 15 9q13 0 13 -15q0 -8 -5 -17q-93 -167 -194 -167q-57 0 -79 59q-55 -59 -121 -59q-46 0 -72 32t-26 81q0 75 34 160q46 114 91 114q26 0 41.5 -17t15.5 -43
q0 -14 -24 -56q-48 -86 -48 -140q0 -52 34 -52q32 0 67 33v1q0 68 37 160q39 97 97 97zM196 436q-22 0 -36.5 15t-14.5 37q0 29 22 51.5t51 22.5q22 0 35.5 -14.5t13.5 -36.5q0 -31 -21 -53t-50 -22zM344 431q-22 0 -36.5 15t-14.5 37q0 29 22 51.5t51 22.5q22 0 35.5 -14.5
t13.5 -36.5q0 -31 -21 -53t-50 -22z" />
    <glyph glyph-name="yacute" unicode="&#xfd;" horiz-adv-x="408" 
d="M124 378q26 0 41.5 -17t15.5 -43q0 -6 -2 -13t-4 -11t-8 -14.5l-10 -17.5q-44 -81 -44 -143q0 -22 8 -35.5t22 -13.5q34 0 67 36q34 255 132 255q48 0 48 -56q0 -71 -81 -191q0 -22 -2 -78q28 21 52.5 50.5t70.5 94.5q6 9 15 9q13 0 13 -15q0 -8 -5 -17
q-36 -66 -70.5 -105.5t-79.5 -68.5q-11 -107 -39 -164q-27 -56 -77.5 -89t-110.5 -33q-57 0 -96 29t-39 81q0 29 15 54t33.5 41t56 33t59.5 25t68 23l24 8l5 41q-50 -42 -105 -42q-46 0 -72 32t-26 81q0 75 34 160q46 114 91 114zM88 -246q36 0 63 48.5t40 139.5
q-67 -25 -108 -56t-41 -76q0 -27 13 -41.5t33 -14.5zM368 543q0 -36 -55.5 -77.5t-81.5 -41.5q-12 0 -12 9q0 4 11 20q28 36 61 111q4 8 6.5 16.5t4 12t4.5 6t8 2.5q20 0 37 -18.5t17 -39.5z" />
    <glyph glyph-name="thorn" unicode="&#xfe;" horiz-adv-x="420" 
d="M177 -7q-49 0 -72 26q-18 -159 -46.5 -244.5t-79.5 -85.5q-58 0 -58 83q0 70 76 237q16 160 38 260q23 103 65 204t94 169.5t96 68.5q70 0 70 -100q0 -108 -99 -244q24 11 47 11q48 0 72 -36.5t24 -87.5q0 -58 -29.5 -118t-83 -101.5t-114.5 -41.5zM265 279
q-30 0 -70.5 -46.5t-69.5 -112.5q16 7 26 7q22 0 22 -13q0 -1 -2.5 -8.5t-2.5 -15.5q0 -36 29 -36q41 0 73 50.5t32 106.5q0 68 -37 68zM287 566q-22 0 -56 -75t-66 -181q64 71 98.5 140t34.5 100q0 16 -11 16z" />
    <glyph glyph-name="ydieresis" unicode="&#xff;" horiz-adv-x="408" 
d="M124 378q26 0 41.5 -17t15.5 -43q0 -6 -2 -13t-4 -11t-8 -14.5l-10 -17.5q-44 -81 -44 -143q0 -22 8 -35.5t22 -13.5q34 0 67 36q34 255 132 255q48 0 48 -56q0 -71 -81 -191q0 -22 -2 -78q28 21 52.5 50.5t70.5 94.5q6 9 15 9q13 0 13 -15q0 -8 -5 -17
q-36 -66 -70.5 -105.5t-79.5 -68.5q-11 -107 -39 -164q-27 -56 -77.5 -89t-110.5 -33q-57 0 -96 29t-39 81q0 29 15 54t33.5 41t56 33t59.5 25t68 23l24 8l5 41q-50 -42 -105 -42q-46 0 -72 32t-26 81q0 75 34 160q46 114 91 114zM88 -246q36 0 63 48.5t40 139.5
q-67 -25 -108 -56t-41 -76q0 -27 13 -41.5t33 -14.5zM190 436q-22 0 -36.5 15t-14.5 37q0 29 22 51.5t51 22.5q22 0 35.5 -14.5t13.5 -36.5q0 -31 -21 -53t-50 -22zM338 431q-22 0 -36.5 15t-14.5 37q0 29 22 51.5t51 22.5q22 0 35.5 -14.5t13.5 -36.5q0 -31 -21 -53
t-50 -22z" />
    <glyph glyph-name="Amacron" unicode="&#x100;" horiz-adv-x="877" 
d="M893 602q-8 -21 -38.5 -87t-56.5 -134t-42 -133q102 -89 102 -191q0 -54 -33 -89t-86 -35q-62 0 -99.5 48t-37.5 130q0 56 20 131q-40 13 -88 21q-46 -73 -86 -127t-89 -104.5t-102 -77.5t-108 -27q-80 0 -126.5 37.5t-46.5 93.5q0 47 29.5 77t67.5 30q30 0 51 -14.5
t21 -34.5q0 -3 -15 -20t-15 -41q0 -25 17 -38.5t44 -13.5q72 0 145 71t155 196q-30 2 -47 2q-54 0 -102.5 -12t-67.5 -28q-16 -12 -22 -12q-8 0 -14.5 14t-6.5 33q0 48 46 79.5t123 31.5q78 0 147 -18l45.5 75l46.5 76l41 64.5t42.5 60l37.5 42.5t38.5 32t33.5 9
q35 0 60 -22t25 -53q0 -18 -9 -42zM775 630q-56 -56 -174 -256l-17 -29l61 -25q51 158 130 310zM810 61q0 63 -67 117q-5 -43 -5 -79q0 -39 12 -60t28 -21q14 0 23 12t9 31zM680 756q0 15 18.5 32t47.5 27q69 25 200 25q80 0 80 -31q0 -26 -17 -47.5t-33 -21.5q-2 0 -4 0.5
t-7 2t-11 2.5q-60 10 -142 10q-46 0 -82 -5t-37 -5q-13 0 -13 11z" />
    <glyph glyph-name="amacron" unicode="&#x101;" horiz-adv-x="405" 
d="M279 -5q-44 0 -65 38q-46 -42 -102 -42q-50 0 -82.5 34.5t-32.5 94.5q0 98 70.5 178t158.5 80q38 0 64.5 -19.5t26.5 -44.5l-1 -7q4 1 8 1q16 0 26.5 -12.5t10.5 -31.5q0 -60 -64 -157q5 -27 21 -27q38 0 109 101q6 9 15 9q13 0 13 -15q0 -8 -5 -17q-52 -94 -92 -128.5
t-79 -34.5zM160 69q23 0 40 17v12q0 84 44 154q-21 4 -21 12q0 4 4 12.5t4 17.5q0 29 -26 29q-32 0 -65.5 -51.5t-33.5 -121.5q0 -38 15 -59.5t39 -21.5zM111 446q0 13 16 27.5t41 23.5q58 22 157 22q69 0 69 -27q0 -23 -15 -41.5t-28 -18.5q-2 0 -7.5 1.5t-11.5 2.5
q-48 9 -115 9q-39 0 -67 -5l-28 -4q-11 0 -11 10z" />
    <glyph glyph-name="Abreve" unicode="&#x102;" horiz-adv-x="877" 
d="M893 602q-8 -21 -38.5 -87t-56.5 -134t-42 -133q102 -89 102 -191q0 -54 -33 -89t-86 -35q-62 0 -99.5 48t-37.5 130q0 56 20 131q-40 13 -88 21q-46 -73 -86 -127t-89 -104.5t-102 -77.5t-108 -27q-80 0 -126.5 37.5t-46.5 93.5q0 47 29.5 77t67.5 30q30 0 51 -14.5
t21 -34.5q0 -3 -15 -20t-15 -41q0 -25 17 -38.5t44 -13.5q72 0 145 71t155 196q-30 2 -47 2q-54 0 -102.5 -12t-67.5 -28q-16 -12 -22 -12q-8 0 -14.5 14t-6.5 33q0 48 46 79.5t123 31.5q78 0 147 -18l45.5 75l46.5 76l41 64.5t42.5 60l37.5 42.5t38.5 32t33.5 9
q35 0 60 -22t25 -53q0 -18 -9 -42zM775 630q-56 -56 -174 -256l-17 -29l61 -25q51 158 130 310zM810 61q0 63 -67 117q-5 -43 -5 -79q0 -39 12 -60t28 -21q14 0 23 12t9 31zM834 882q0 -23 16.5 -46t44.5 -23q37 0 61.5 20t35.5 40t15 20q19 0 19 -32q0 -39 -45 -83.5
t-115 -44.5q-48 0 -79 25t-31 60q0 29 21 53.5t45 24.5q12 0 12 -14z" />
    <glyph glyph-name="abreve" unicode="&#x103;" horiz-adv-x="405" 
d="M279 -5q-44 0 -65 38q-46 -42 -102 -42q-50 0 -82.5 34.5t-32.5 94.5q0 98 70.5 178t158.5 80q38 0 64.5 -19.5t26.5 -44.5l-1 -7q4 1 8 1q16 0 26.5 -12.5t10.5 -31.5q0 -60 -64 -157q5 -27 21 -27q38 0 109 101q6 9 15 9q13 0 13 -15q0 -8 -5 -17q-52 -94 -92 -128.5
t-79 -34.5zM160 69q23 0 40 17v12q0 84 44 154q-21 4 -21 12q0 4 4 12.5t4 17.5q0 29 -26 29q-32 0 -65.5 -51.5t-33.5 -121.5q0 -38 15 -59.5t39 -21.5zM221 564q0 -69 52 -69q47 0 77 57q2 3 3.5 7t2.5 6t2.5 4.5t3 3.5t3.5 2t4 1q14 0 14 -23q0 -40 -38.5 -86.5
t-101.5 -46.5q-47 0 -72 26t-25 62q0 28 20 49.5t42 21.5q13 0 13 -15z" />
    <glyph glyph-name="Aogonek" unicode="&#x104;" horiz-adv-x="872" 
d="M799 210q-19 19 -50 33q-8 -46 -8 -86q0 -60 31 -82q16 8 29 8q23 0 23 -23q0 -26 -30.5 -53t-79.5 -29q-71 -73 -71 -141q0 -39 27 -39q4 0 9 2.5t8 2.5q10 0 10 -17q0 -33 -29.5 -61.5t-69.5 -28.5q-32 0 -54 21.5t-22 59.5q0 90 139 214q-56 34 -56 143q0 60 22 142
q-36 5 -80 7q-47 -77 -88 -133.5t-93 -111t-109 -83t-117 -28.5q-70 0 -115 38t-45 102q0 115 147.5 187.5t387.5 82.5l47.5 78l47.5 78.5l44 70t44.5 63.5t41 47t41.5 34t39 11q28 0 53.5 -22t25.5 -53q0 -21 -9 -42q-1 -2 -50 -106t-70 -171q90 -17 90 -52
q0 -27 -17 -48.5t-34 -21.5q-4 0 -10 7zM200 35q69 0 138 66.5t144 183.5q-167 -2 -263.5 -56.5t-96.5 -124.5q0 -32 21 -50.5t57 -18.5zM590 339q10 0 28.5 -0.5t27.5 -0.5q46 142 126 293q-17 -18 -34.5 -39.5t-41 -58.5l-34.5 -55l-43 -72.5l-39 -66.5h10z" />
    <glyph glyph-name="aogonek" unicode="&#x105;" horiz-adv-x="405" 
d="M317 314q0 -5 -1 -7q3 1 8 1q16 0 26.5 -12.5t10.5 -31.5q0 -60 -64 -157q5 -27 21 -27q38 0 109 101q6 9 15 9q13 0 13 -15q0 -8 -5 -17q-25 -47 -42 -70.5t-45.5 -52.5t-41.5 -44q-70 -78 -70 -126q0 -18 7.5 -27t17.5 -9q11 0 11 -12q0 -22 -23.5 -40.5t-56.5 -18.5
q-29 0 -47.5 18.5t-18.5 50.5q0 68 121 170q-32 6 -48 36q-46 -42 -102 -42q-50 0 -82.5 34.5t-32.5 94.5q0 98 70.5 178t158.5 80q38 0 64.5 -19.5t26.5 -44.5zM160 69q23 0 40 17v12q0 84 44 154q-21 4 -21 12q0 4 4 12.5t4 17.5q0 29 -26 29q-32 0 -65.5 -51.5
t-33.5 -121.5q0 -38 15 -59.5t39 -21.5z" />
    <glyph glyph-name="Cacute" unicode="&#x106;" horiz-adv-x="629" 
d="M371 10q80 0 155.5 47t124.5 124q6 9 14 9q14 0 14 -16q0 -6 -5 -16q-57 -109 -159 -181t-221 -72q-118 0 -194 77t-76 201q0 103 47.5 202t122 169.5t169 113.5t185.5 43q80 0 133.5 -32t53.5 -93q0 -56 -45 -88.5t-104 -32.5q-34 0 -56.5 12.5t-22.5 23.5t8 13
q41 11 61.5 33t20.5 47q0 23 -17.5 39t-47.5 16q-85 0 -167 -65.5t-131.5 -164t-49.5 -192.5q0 -97 48.5 -157t138.5 -60zM533 743q-31 0 -31 16q0 4 2 6.5t8 7l14 10t23 18t32 29.5q20 19 33 36t17 24t8.5 11t11.5 4q16 0 38.5 -19.5t22.5 -43.5q0 -38 -67.5 -68.5
t-111.5 -30.5z" />
    <glyph glyph-name="cacute" unicode="&#x107;" horiz-adv-x="335" 
d="M191 73q90 0 166 108q6 9 15 9q13 0 13 -15q0 -8 -5 -17q-35 -63 -81 -102.5t-83.5 -52t-75.5 -12.5q-56 0 -99 38t-43 105q0 92 66 168t149 76q46 0 77 -27.5t31 -62.5q0 -38 -23 -61t-52 -23q-22 0 -38.5 14t-16.5 30q0 2 14 22t14 39q0 21 -18 21q-29 0 -59.5 -51.5
t-30.5 -107.5q0 -44 21.5 -71t58.5 -27zM361 543q0 -36 -55.5 -77.5t-81.5 -41.5q-12 0 -12 9q0 4 11 20q28 36 61 111q4 8 6.5 16.5t4 12t4.5 6t8 2.5q20 0 37 -18.5t17 -39.5z" />
    <glyph glyph-name="Ccircumflex" unicode="&#x108;" horiz-adv-x="629" 
d="M371 10q80 0 155.5 47t124.5 124q6 9 14 9q14 0 14 -16q0 -6 -5 -16q-57 -109 -159 -181t-221 -72q-118 0 -194 77t-76 201q0 103 47.5 202t122 169.5t169 113.5t185.5 43q80 0 133.5 -32t53.5 -93q0 -56 -45 -88.5t-104 -32.5q-34 0 -56.5 12.5t-22.5 23.5t8 13
q41 11 61.5 33t20.5 47q0 23 -17.5 39t-47.5 16q-85 0 -167 -65.5t-131.5 -164t-49.5 -192.5q0 -97 48.5 -157t138.5 -60zM449 735q-16 0 -16 13q0 4 5 9.5t14 12.5t12 10q42 36 85 88q12 14 17 17.5t17 3.5t32.5 -10.5t28.5 -29.5l6 -17q6 -18 14 -37q7 -16 15 -27.5
t11 -16.5t3 -11q0 -13 -18 -13q-25 0 -56 20t-51 48q-89 -60 -119 -60z" />
    <glyph glyph-name="ccircumflex" unicode="&#x109;" horiz-adv-x="335" 
d="M191 73q90 0 166 108q6 9 15 9q13 0 13 -15q0 -8 -5 -17q-35 -63 -81 -102.5t-83.5 -52t-75.5 -12.5q-56 0 -99 38t-43 105q0 92 66 168t149 76q46 0 77 -27.5t31 -62.5q0 -38 -23 -61t-52 -23q-22 0 -38.5 14t-16.5 30q0 2 14 22t14 39q0 21 -18 21q-29 0 -59.5 -51.5
t-30.5 -107.5q0 -44 21.5 -71t58.5 -27zM150 424q-12 0 -12 10q0 9 18 25q38 37 81 111q18 31 35 31q33 0 38 -37q8 -62 26 -103q11 -26 11 -27q0 -10 -13 -10q-15 0 -38 18t-40 43q-23 -23 -57 -42t-49 -19z" />
    <glyph glyph-name="Cdotaccent" unicode="&#x10a;" horiz-adv-x="629" 
d="M371 10q80 0 155.5 47t124.5 124q6 9 14 9q14 0 14 -16q0 -6 -5 -16q-57 -109 -159 -181t-221 -72q-118 0 -194 77t-76 201q0 103 47.5 202t122 169.5t169 113.5t185.5 43q80 0 133.5 -32t53.5 -93q0 -56 -45 -88.5t-104 -32.5q-34 0 -56.5 12.5t-22.5 23.5t8 13
q41 11 61.5 33t20.5 47q0 23 -17.5 39t-47.5 16q-85 0 -167 -65.5t-131.5 -164t-49.5 -192.5q0 -97 48.5 -157t138.5 -60zM579 745q-30 0 -50 18t-20 46q0 36 28 62t67 26q36 0 54.5 -21t18.5 -48q0 -36 -29 -59.5t-69 -23.5z" />
    <glyph glyph-name="cdotaccent" unicode="&#x10b;" horiz-adv-x="335" 
d="M191 73q90 0 166 108q6 9 15 9q13 0 13 -15q0 -8 -5 -17q-35 -63 -81 -102.5t-83.5 -52t-75.5 -12.5q-56 0 -99 38t-43 105q0 92 66 168t149 76q46 0 77 -27.5t31 -62.5q0 -38 -23 -61t-52 -23q-22 0 -38.5 14t-16.5 30q0 2 14 22t14 39q0 21 -18 21q-29 0 -59.5 -51.5
t-30.5 -107.5q0 -44 21.5 -71t58.5 -27zM244 434q-27 0 -45.5 16.5t-18.5 41.5q0 34 25.5 57.5t60.5 23.5q33 0 50 -19t17 -44q0 -33 -26.5 -54.5t-62.5 -21.5z" />
    <glyph glyph-name="Ccaron" unicode="&#x10c;" horiz-adv-x="629" 
d="M371 10q80 0 155.5 47t124.5 124q6 9 14 9q14 0 14 -16q0 -6 -5 -16q-57 -109 -159 -181t-221 -72q-118 0 -194 77t-76 201q0 103 47.5 202t122 169.5t169 113.5t185.5 43q80 0 133.5 -32t53.5 -93q0 -56 -45 -88.5t-104 -32.5q-34 0 -56.5 12.5t-22.5 23.5t8 13
q41 11 61.5 33t20.5 47q0 23 -17.5 39t-47.5 16q-85 0 -167 -65.5t-131.5 -164t-49.5 -192.5q0 -97 48.5 -157t138.5 -60zM727 881q16 0 16 -13q0 -4 -5 -10t-14 -13t-12 -10q-41 -35 -84 -87q-12 -14 -17 -17.5t-17 -3.5q-43 0 -59 31q-3 5 -13 31t-14 35l-11.5 22
l-7.5 13.5t-3.5 7.5t-1.5 9q0 13 18 13t45.5 -19t46.5 -46q34 23 76 40t57 17z" />
    <glyph glyph-name="ccaron" unicode="&#x10d;" horiz-adv-x="335" 
d="M191 73q90 0 166 108q6 9 15 9q13 0 13 -15q0 -8 -5 -17q-35 -63 -81 -102.5t-83.5 -52t-75.5 -12.5q-56 0 -99 38t-43 105q0 92 66 168t149 76q46 0 77 -27.5t31 -62.5q0 -38 -23 -61t-52 -23q-22 0 -38.5 14t-16.5 30q0 2 14 22t14 39q0 21 -18 21q-29 0 -59.5 -51.5
t-30.5 -107.5q0 -44 21.5 -71t58.5 -27zM349 601q12 0 12 -10q0 -7 -18 -25q-42 -43 -81 -111q-7 -12 -10.5 -17t-9.5 -9.5t-13 -4.5q-33 0 -40 37q-12 71 -26 103q-11 26 -11 27q0 10 13 10q15 0 37 -17.5t39 -43.5q23 23 57.5 42t50.5 19z" />
    <glyph glyph-name="Dcaron" unicode="&#x10e;" horiz-adv-x="1006" 
d="M990 264q0 -152 -96.5 -241t-233.5 -89q-71 0 -127.5 23.5t-119.5 65.5q-83 -86 -208 -86q-83 0 -131.5 34t-48.5 89q0 54 46 88.5t120 34.5q75 0 164 -42q13 34 33.5 95.5l37 107t40 96.5t56.5 88t74 57q27 13 49 13q28 0 28 -12q0 -4 -5 -11.5l-16 -23.5t-21 -34
q-22 -43 -47.5 -125t-55.5 -165.5t-66 -140.5q98 -51 166 -51q96 0 163 77t67 201q0 150 -99.5 247t-251.5 97q-121 0 -200 -60t-79 -145q0 -45 23 -69t59 -24q31 0 60 23q7 5 10 5q12 0 12 -21q0 -42 -40 -81t-103 -39q-65 0 -108.5 44.5t-43.5 117.5q0 123 120 213t294 90
q106 0 197 -37.5t152 -99.5t95.5 -142.5t34.5 -167.5zM213 -3q67 0 115 84q-62 38 -111 38q-38 0 -59 -17t-21 -44q0 -26 21 -43.5t55 -17.5zM787 881q16 0 16 -13q0 -4 -5 -10t-14 -13t-12 -10q-41 -35 -84 -87q-12 -14 -17 -17.5t-17 -3.5q-43 0 -59 31q-3 5 -13 31
t-14 35l-11.5 22l-7.5 13.5t-3.5 7.5t-1.5 9q0 13 18 13t45.5 -19t46.5 -46q34 23 76 40t57 17z" />
    <glyph glyph-name="dcaron" unicode="&#x10f;" horiz-adv-x="460" 
d="M215 378q25 0 44 -9q43 149 101.5 245.5t120.5 96.5q27 0 44 -24.5t17 -67.5q0 -70 -64 -218t-153 -256v-5q0 -68 34 -68q47 0 123 109q6 9 15 9q13 0 13 -15q0 -8 -5 -17q-51 -93 -104 -133q-43 -34 -92 -34q-53 0 -76 57q-53 -57 -118 -57q-52 0 -85 35t-33 96
q0 98 67 177t151 79zM157 69q32 0 63 29q-3 22 -3 47q0 52 11 104q0 1 0.5 3t0.5 3q-10 3 -10 9q0 4 4 12.5t4 17.5q0 29 -26 29q-32 0 -63.5 -51t-31.5 -122q0 -37 14.5 -59t36.5 -22zM467 577q-24 0 -70.5 -123t-64.5 -236q60 90 104.5 195t44.5 144q0 20 -14 20zM696 623
q0 -37 -56.5 -98t-79.5 -61q-12 0 -12 9q0 8 9 21q31 43 56 150q6 22 10.5 29.5t15.5 7.5q20 0 38.5 -18.5t18.5 -39.5z" />
    <glyph glyph-name="Dcroat" unicode="&#x110;" horiz-adv-x="1006" 
d="M191 183q75 0 164 -42q11 27 38 107q-138 11 -218 64t-80 143q0 113 110 184.5t272 71.5q221 0 367 -132t146 -316q0 -152 -96.5 -240.5t-232.5 -88.5q-72 0 -129.5 23.5t-118.5 65.5q-83 -86 -208 -86q-83 0 -131.5 34t-48.5 89q0 54 46 88.5t120 34.5zM756 343
q0 -38 -61 -62.5t-159 -32.5q-35 -99 -74 -162q98 -51 166 -51q96 0 163 76.5t67 199.5q0 155 -109 250.5t-269 95.5q-114 0 -180.5 -54t-66.5 -135q0 -60 46.5 -103.5t134.5 -52.5q36 105 77 173.5t105 99.5q27 13 49 13q28 0 28 -12q0 -4 -5 -11.5l-16 -23.5t-21 -34
q-24 -45 -71 -196q61 13 106 36q21 10 34 21t17.5 16t8.5 5q11 0 20.5 -20t9.5 -36zM213 -3q67 0 115 84q-62 38 -111 38q-38 0 -59 -17t-21 -44q0 -26 21 -43.5t55 -17.5z" />
    <glyph glyph-name="dcroat" unicode="&#x111;" horiz-adv-x="460" 
d="M215 378q25 0 44 -9q10 37 24 76h-6q-39 0 -67 -5l-28 -4q-11 0 -11 10q0 13 16 27.5t41 23.5q18 7 79 10q83 204 174 204q27 0 44 -24.5t17 -67.5q0 -40 -25 -115q46 -7 46 -21q0 -23 -15 -41.5t-28 -18.5q-2 0 -7.5 1.5t-11.5 2.5q-3 0 -11 2q-69 -167 -165 -284v-5
q0 -68 34 -68q47 0 123 109q6 9 15 9q13 0 13 -15q0 -8 -5 -17q-52 -94 -100.5 -130.5t-99.5 -36.5q-49 0 -72 57q-53 -57 -118 -57q-52 0 -85 35t-33 96q0 98 67 177t151 79zM157 69q32 0 63 29q-3 22 -3 47q0 52 11 104q0 1 0.5 3t0.5 3q-10 3 -10 9q0 4 4 12.5t4 17.5
q0 29 -26 29q-32 0 -63.5 -51t-31.5 -122q0 -37 14.5 -59t36.5 -22zM445 435q-33 4 -54 5q-42 -115 -59 -222q65 97 113 217zM467 577q-16 0 -48 -67q21 0 53 -2q9 32 9 49q0 20 -14 20z" />
    <glyph glyph-name="Emacron" unicode="&#x112;" horiz-adv-x="590" 
d="M307 494q0 -62 31 -96q37 5 52 5q41 0 63.5 -14.5t22.5 -39.5q0 -22 -26.5 -36t-71.5 -14q-50 0 -90 18q-53 -22 -85 -65t-32 -94q0 -69 45 -108.5t116 -39.5q80 0 155.5 47t124.5 124q6 9 14 9q13 0 13 -16q0 -8 -4 -16q-57 -109 -159 -181t-221 -72q-106 0 -180.5 56
t-74.5 155q0 91 62 152.5t156 96.5q-45 50 -45 114q0 94 84 163t218 69q84 0 141 -32t57 -93q0 -54 -44.5 -83.5t-93.5 -29.5q-35 0 -54 11t-19 25q0 8 8 11q34 12 49.5 27.5t15.5 41.5q0 28 -22 44t-56 16q-62 0 -106 -45.5t-44 -109.5zM325 756q0 15 18.5 32t47.5 27
q69 25 200 25q80 0 80 -31q0 -26 -17 -47.5t-33 -21.5q-2 0 -4 0.5t-7 2t-11 2.5q-60 10 -142 10q-45 0 -82 -5l-37 -5q-13 0 -13 11z" />
    <glyph glyph-name="emacron" unicode="&#x113;" horiz-adv-x="330" 
d="M106 446q0 13 16 27.5t41 23.5q58 22 157 22q69 0 69 -27q0 -23 -15 -41.5t-28 -18.5q-2 0 -7.5 1.5t-11.5 2.5q-48 9 -115 9q-40 0 -67 -4.5t-28 -4.5q-11 0 -11 10zM184 71q91 0 168 110q6 9 15 9q13 0 13 -15q0 -8 -5 -17q-35 -63 -80.5 -102.5t-82 -52t-74.5 -12.5
q-56 0 -98 37.5t-42 105.5q0 92 66 168t148 76q46 0 72.5 -24.5t26.5 -59.5q0 -52 -55 -95t-143 -54q11 -74 71 -74zM201 330q-27 0 -56.5 -46t-33.5 -99q45 12 78 44.5t33 70.5q0 30 -21 30z" />
    <glyph glyph-name="Ebreve" unicode="&#x114;" horiz-adv-x="590" 
d="M307 494q0 -62 31 -96q37 5 52 5q41 0 63.5 -14.5t22.5 -39.5q0 -22 -26.5 -36t-71.5 -14q-50 0 -90 18q-53 -22 -85 -65t-32 -94q0 -69 45 -108.5t116 -39.5q80 0 155.5 47t124.5 124q6 9 14 9q13 0 13 -16q0 -8 -4 -16q-57 -109 -159 -181t-221 -72q-106 0 -180.5 56
t-74.5 155q0 91 62 152.5t156 96.5q-45 50 -45 114q0 94 84 163t218 69q84 0 141 -32t57 -93q0 -54 -44.5 -83.5t-93.5 -29.5q-35 0 -54 11t-19 25q0 8 8 11q34 12 49.5 27.5t15.5 41.5q0 28 -22 44t-56 16q-62 0 -106 -45.5t-44 -109.5zM439 882q0 -23 16.5 -46t44.5 -23
q37 0 61.5 20t35.5 40t15 20q19 0 19 -32q0 -39 -45 -83.5t-115 -44.5q-48 0 -79 25t-31 60q0 29 21 53.5t45 24.5q12 0 12 -14z" />
    <glyph glyph-name="ebreve" unicode="&#x115;" horiz-adv-x="330" 
d="M202 564q0 -69 52 -69q47 0 77 57q2 3 3.5 7t2.5 6t2.5 4.5t3 3.5t3.5 2t4 1q14 0 14 -23q0 -40 -38.5 -86.5t-101.5 -46.5q-47 0 -72 26t-25 62q0 28 20 49.5t42 21.5q13 0 13 -15zM184 71q91 0 168 110q6 9 15 9q13 0 13 -15q0 -8 -5 -17q-35 -63 -80.5 -102.5t-82 -52
t-74.5 -12.5q-56 0 -98 37.5t-42 105.5q0 92 66 168t148 76q46 0 72.5 -24.5t26.5 -59.5q0 -52 -55 -95t-143 -54q11 -74 71 -74zM201 330q-27 0 -56.5 -46t-33.5 -99q45 12 78 44.5t33 70.5q0 30 -21 30z" />
    <glyph glyph-name="Edotaccent" unicode="&#x116;" horiz-adv-x="590" 
d="M307 494q0 -62 31 -96q37 5 52 5q41 0 63.5 -14.5t22.5 -39.5q0 -22 -26.5 -36t-71.5 -14q-50 0 -90 18q-53 -22 -85 -65t-32 -94q0 -69 45 -108.5t116 -39.5q80 0 155.5 47t124.5 124q6 9 14 9q13 0 13 -16q0 -8 -4 -16q-57 -109 -159 -181t-221 -72q-106 0 -180.5 56
t-74.5 155q0 91 62 152.5t156 96.5q-45 50 -45 114q0 94 84 163t218 69q84 0 141 -32t57 -93q0 -54 -44.5 -83.5t-93.5 -29.5q-35 0 -54 11t-19 25q0 8 8 11q34 12 49.5 27.5t15.5 41.5q0 28 -22 44t-56 16q-62 0 -106 -45.5t-44 -109.5zM470 745q-30 0 -50 18t-20 46
q0 36 28 62t67 26q36 0 54.5 -21t18.5 -48q0 -36 -29 -59.5t-69 -23.5z" />
    <glyph glyph-name="edotaccent" unicode="&#x117;" horiz-adv-x="330" 
d="M233 434q-27 0 -45.5 16.5t-18.5 41.5q0 34 25.5 57.5t60.5 23.5q33 0 50 -19t17 -44q0 -33 -26.5 -54.5t-62.5 -21.5zM184 71q91 0 168 110q6 9 15 9q13 0 13 -15q0 -8 -5 -17q-35 -63 -80.5 -102.5t-82 -52t-74.5 -12.5q-56 0 -98 37.5t-42 105.5q0 92 66 168t148 76
q46 0 72.5 -24.5t26.5 -59.5q0 -52 -55 -95t-143 -54q11 -74 71 -74zM201 330q-27 0 -56.5 -46t-33.5 -99q45 12 78 44.5t33 70.5q0 30 -21 30z" />
    <glyph glyph-name="Eogonek" unicode="&#x118;" horiz-adv-x="590" 
d="M307 494q0 -62 31 -96q37 5 52 5q41 0 63.5 -14.5t22.5 -39.5q0 -22 -26.5 -36t-71.5 -14q-50 0 -91 18q-53 -22 -84.5 -64.5t-31.5 -94.5q0 -69 45 -108.5t116 -39.5q80 0 155.5 47t124.5 124q6 9 14 9q13 0 13 -16q0 -8 -4 -16q-46 -87 -117 -149q-104 -90 -104 -172
q0 -39 27 -39q4 0 9 2.5t8 2.5q10 0 10 -17q0 -33 -29.5 -61.5t-69.5 -28.5q-32 0 -54 21.5t-22 59.5q0 63 71 145q-54 -17 -109 -17q-106 0 -180.5 56t-74.5 155q0 91 62 152.5t156 96.5q-45 50 -45 114q0 94 84 163t218 69q84 0 141 -32t57 -93q0 -54 -44.5 -83.5
t-93.5 -29.5q-35 0 -54 11t-19 25q0 8 8 11q34 12 49.5 27.5t15.5 41.5q0 28 -22 44t-56 16q-62 0 -106 -45.5t-44 -109.5z" />
    <glyph glyph-name="eogonek" unicode="&#x119;" horiz-adv-x="330" 
d="M184 71q91 0 168 110q6 9 15 9q13 0 13 -15q0 -8 -5 -17q-24 -42 -48 -70.5t-72 -72.5q-45 -41 -71 -82.5t-26 -67.5q0 -18 7.5 -27t17.5 -9q11 0 11 -12q0 -22 -23.5 -40.5t-56.5 -18.5q-29 0 -47.5 18.5t-18.5 50.5q0 67 116 166q-18 -2 -26 -2q-56 0 -98 37.5
t-42 105.5q0 92 66 168t148 76q46 0 72.5 -24.5t26.5 -59.5q0 -52 -55 -95t-143 -54q11 -74 71 -74zM201 330q-27 0 -56.5 -46t-33.5 -99q45 12 78 44.5t33 70.5q0 30 -21 30z" />
    <glyph glyph-name="Ecaron" unicode="&#x11a;" horiz-adv-x="590" 
d="M307 494q0 -62 31 -96q37 5 52 5q41 0 63.5 -14.5t22.5 -39.5q0 -22 -26.5 -36t-71.5 -14q-50 0 -90 18q-53 -22 -85 -65t-32 -94q0 -69 45 -108.5t116 -39.5q80 0 155.5 47t124.5 124q6 9 14 9q13 0 13 -16q0 -8 -4 -16q-57 -109 -159 -181t-221 -72q-106 0 -180.5 56
t-74.5 155q0 91 62 152.5t156 96.5q-45 50 -45 114q0 94 84 163t218 69q84 0 141 -32t57 -93q0 -54 -44.5 -83.5t-93.5 -29.5q-35 0 -54 11t-19 25q0 8 8 11q34 12 49.5 27.5t15.5 41.5q0 28 -22 44t-56 16q-62 0 -106 -45.5t-44 -109.5zM631 881q16 0 16 -13q0 -4 -5 -10
t-14 -13t-12 -10q-41 -35 -84 -87q-12 -14 -17 -17.5t-17 -3.5q-43 0 -59 31q-3 5 -13 31t-14 35l-11.5 22l-7.5 13.5t-3.5 7.5t-1.5 9q0 13 18 13t45.5 -19t46.5 -46q34 23 76 40t57 17z" />
    <glyph glyph-name="ecaron" unicode="&#x11b;" horiz-adv-x="330" 
d="M357 601q12 0 12 -10q0 -7 -18 -25q-42 -43 -81 -111q-7 -12 -10.5 -17t-9.5 -9.5t-13 -4.5q-33 0 -40 37q-12 71 -26 103q-11 26 -11 27q0 10 13 10q15 0 37 -17.5t39 -43.5q23 23 57.5 42t50.5 19zM184 71q91 0 168 110q6 9 15 9q13 0 13 -15q0 -8 -5 -17
q-35 -63 -80.5 -102.5t-82 -52t-74.5 -12.5q-56 0 -98 37.5t-42 105.5q0 92 66 168t148 76q46 0 72.5 -24.5t26.5 -59.5q0 -52 -55 -95t-143 -54q11 -74 71 -74zM201 330q-27 0 -56.5 -46t-33.5 -99q45 12 78 44.5t33 70.5q0 30 -21 30z" />
    <glyph glyph-name="Gcircumflex" unicode="&#x11c;" horiz-adv-x="688" 
d="M733 158q-34 -62 -71.5 -97.5t-91.5 -64.5q-7 -106 -39 -178q-59 -129 -186 -129q-53 0 -89 31t-36 80q0 21 6 40t14 32.5t25 27t29 22t36.5 19.5t38 16l42.5 15.5t41 15.5q1 8 2.5 25t2.5 24q-99 -84 -215 -84q-105 0 -161.5 67.5t-56.5 164.5q0 132 79.5 255.5t201 197
t243.5 73.5q80 0 133.5 -32t53.5 -93q0 -56 -45 -88.5t-104 -32.5q-34 0 -56.5 12.5t-22.5 23.5t8 13q41 11 61.5 33t20.5 47q0 23 -17.5 39t-47.5 16q-85 0 -167.5 -66t-133 -165t-50.5 -193q0 -82 35.5 -130t105.5 -48q72 0 142 58q30 250 134 250q24 0 40.5 -16.5
t16.5 -53.5q0 -55 -81 -166q0 -48 -1 -76q36 21 66.5 51.5t70.5 86.5q6 9 15 9q13 0 13 -15q0 -8 -5 -17zM310 -173q0 -37 38 -37q31 0 57.5 38.5t39.5 107.5q-32 -13 -49 -21t-40.5 -22t-34.5 -30t-11 -36zM437 735q-16 0 -16 13q0 4 5 9.5t14 12.5t12 10q42 36 85 88
q12 14 17 17.5t17 3.5t32.5 -10.5t28.5 -29.5l6 -17q6 -18 14 -37q7 -16 15 -27.5t11 -16.5t3 -11q0 -13 -18 -13q-25 0 -56 20t-51 48q-89 -60 -119 -60z" />
    <glyph glyph-name="gcircumflex" unicode="&#x11d;" horiz-adv-x="403" 
d="M317 314q0 -5 -1 -7q2 0 4 0.5t4 0.5q20 0 31.5 -15.5t11.5 -38.5q0 -60 -63 -144q0 -22 -2 -74q28 21 52.5 50.5t70.5 94.5q6 9 15 9q13 0 13 -15q0 -8 -5 -17q-36 -66 -70.5 -105.5t-79.5 -68.5q-11 -107 -39 -164q-27 -56 -77.5 -89t-110.5 -33q-57 0 -96 29t-39 81
q0 29 14.5 53.5t33.5 41t55 33t59.5 25t66.5 22.5l27 9q3 25 3 33q-39 -28 -84 -28q-48 0 -81 32.5t-33 92.5q0 98 70.5 177t158.5 79q38 0 64.5 -19.5t26.5 -44.5zM160 69q23 0 43 20q13 105 43 162q-23 4 -23 13q0 4 4 12.5t4 17.5q0 29 -26 29q-32 0 -65.5 -51.5
t-33.5 -121.5q0 -38 15 -59.5t39 -21.5zM83 -246q36 0 63 48.5t40 139.5q-67 -25 -108 -56t-41 -76q0 -27 13 -41.5t33 -14.5zM145 424q-12 0 -12 10q0 9 18 25q38 37 81 111q18 31 35 31q33 0 38 -37q8 -62 26 -103q11 -26 11 -27q0 -10 -13 -10q-15 0 -38 18t-40 43
q-23 -23 -57 -42t-49 -19z" />
    <glyph glyph-name="Gbreve" unicode="&#x11e;" horiz-adv-x="688" 
d="M733 158q-34 -62 -71.5 -97.5t-91.5 -64.5q-7 -106 -39 -178q-59 -129 -186 -129q-53 0 -89 31t-36 80q0 21 6 40t14 32.5t25 27t29 22t36.5 19.5t38 16l42.5 15.5t41 15.5q1 8 2.5 25t2.5 24q-99 -84 -215 -84q-105 0 -161.5 67.5t-56.5 164.5q0 132 79.5 255.5t201 197
t243.5 73.5q80 0 133.5 -32t53.5 -93q0 -56 -45 -88.5t-104 -32.5q-34 0 -56.5 12.5t-22.5 23.5t8 13q41 11 61.5 33t20.5 47q0 23 -17.5 39t-47.5 16q-85 0 -167.5 -66t-133 -165t-50.5 -193q0 -82 35.5 -130t105.5 -48q72 0 142 58q30 250 134 250q24 0 40.5 -16.5
t16.5 -53.5q0 -55 -81 -166q0 -48 -1 -76q36 21 66.5 51.5t70.5 86.5q6 9 15 9q13 0 13 -15q0 -8 -5 -17zM310 -173q0 -37 38 -37q31 0 57.5 38.5t39.5 107.5q-32 -13 -49 -21t-40.5 -22t-34.5 -30t-11 -36zM503 882q0 -23 16.5 -46t44.5 -23q37 0 61.5 20t35.5 40t15 20
q19 0 19 -32q0 -39 -45 -83.5t-115 -44.5q-48 0 -79 25t-31 60q0 29 21 53.5t45 24.5q12 0 12 -14z" />
    <glyph glyph-name="gbreve" unicode="&#x11f;" horiz-adv-x="403" 
d="M317 314q0 -5 -1 -7q2 0 4 0.5t4 0.5q20 0 31.5 -15.5t11.5 -38.5q0 -60 -63 -144q0 -22 -2 -74q28 21 52.5 50.5t70.5 94.5q6 9 15 9q13 0 13 -15q0 -8 -5 -17q-36 -66 -70.5 -105.5t-79.5 -68.5q-11 -107 -39 -164q-27 -56 -77.5 -89t-110.5 -33q-57 0 -96 29t-39 81
q0 29 14.5 53.5t33.5 41t55 33t59.5 25t66.5 22.5l27 9q3 25 3 33q-39 -28 -84 -28q-48 0 -81 32.5t-33 92.5q0 98 70.5 177t158.5 79q38 0 64.5 -19.5t26.5 -44.5zM160 69q23 0 43 20q13 105 43 162q-23 4 -23 13q0 4 4 12.5t4 17.5q0 29 -26 29q-32 0 -65.5 -51.5
t-33.5 -121.5q0 -38 15 -59.5t39 -21.5zM83 -246q36 0 63 48.5t40 139.5q-67 -25 -108 -56t-41 -76q0 -27 13 -41.5t33 -14.5zM207 564q0 -69 52 -69q47 0 77 57q2 3 3.5 7t2.5 6t2.5 4.5t3 3.5t3.5 2t4 1q14 0 14 -23q0 -40 -38.5 -86.5t-101.5 -46.5q-47 0 -72 26t-25 62
q0 28 20 49.5t42 21.5q13 0 13 -15z" />
    <glyph glyph-name="Gdotaccent" unicode="&#x120;" horiz-adv-x="688" 
d="M733 158q-34 -62 -71.5 -97.5t-91.5 -64.5q-7 -106 -39 -178q-59 -129 -186 -129q-53 0 -89 31t-36 80q0 21 6 40t14 32.5t25 27t29 22t36.5 19.5t38 16l42.5 15.5t41 15.5q1 8 2.5 25t2.5 24q-99 -84 -215 -84q-105 0 -161.5 67.5t-56.5 164.5q0 132 79.5 255.5t201 197
t243.5 73.5q80 0 133.5 -32t53.5 -93q0 -56 -45 -88.5t-104 -32.5q-34 0 -56.5 12.5t-22.5 23.5t8 13q41 11 61.5 33t20.5 47q0 23 -17.5 39t-47.5 16q-85 0 -167.5 -66t-133 -165t-50.5 -193q0 -82 35.5 -130t105.5 -48q72 0 142 58q30 250 134 250q24 0 40.5 -16.5
t16.5 -53.5q0 -55 -81 -166q0 -48 -1 -76q36 21 66.5 51.5t70.5 86.5q6 9 15 9q13 0 13 -15q0 -8 -5 -17zM310 -173q0 -37 38 -37q31 0 57.5 38.5t39.5 107.5q-32 -13 -49 -21t-40.5 -22t-34.5 -30t-11 -36zM549 745q-30 0 -50 18t-20 46q0 36 28 62t67 26q36 0 54.5 -21
t18.5 -48q0 -36 -29 -59.5t-69 -23.5z" />
    <glyph glyph-name="gdotaccent" unicode="&#x121;" horiz-adv-x="403" 
d="M317 314q0 -5 -1 -7q2 0 4 0.5t4 0.5q20 0 31.5 -15.5t11.5 -38.5q0 -60 -63 -144q0 -22 -2 -74q28 21 52.5 50.5t70.5 94.5q6 9 15 9q13 0 13 -15q0 -8 -5 -17q-36 -66 -70.5 -105.5t-79.5 -68.5q-11 -107 -39 -164q-27 -56 -77.5 -89t-110.5 -33q-57 0 -96 29t-39 81
q0 29 14.5 53.5t33.5 41t55 33t59.5 25t66.5 22.5l27 9q3 25 3 33q-39 -28 -84 -28q-48 0 -81 32.5t-33 92.5q0 98 70.5 177t158.5 79q38 0 64.5 -19.5t26.5 -44.5zM160 69q23 0 43 20q13 105 43 162q-23 4 -23 13q0 4 4 12.5t4 17.5q0 29 -26 29q-32 0 -65.5 -51.5
t-33.5 -121.5q0 -38 15 -59.5t39 -21.5zM83 -246q36 0 63 48.5t40 139.5q-67 -25 -108 -56t-41 -76q0 -27 13 -41.5t33 -14.5zM235 434q-27 0 -45.5 16.5t-18.5 41.5q0 34 25.5 57.5t60.5 23.5q33 0 50 -19t17 -44q0 -33 -26.5 -54.5t-62.5 -21.5z" />
    <glyph glyph-name="uni0122" unicode="&#x122;" horiz-adv-x="682" 
d="M598 355q24 0 40.5 -16.5t16.5 -53.5q0 -52 -69 -149q-16 -386 -215 -386q-24 0 -39 8t-15 17q0 2 0.5 3t2.5 2t4.5 2.5l7.5 4.5t11 7q81 57 111 241q-97 -82 -212 -82q-105 0 -161.5 67.5t-56.5 164.5q0 132 79.5 255.5t201 197t243.5 73.5q80 0 133.5 -32t53.5 -93
q0 -56 -45 -88.5t-104 -32.5q-34 0 -56.5 12.5t-22.5 23.5t8 13q41 11 61.5 33t20.5 47q0 23 -17.5 39t-47.5 16q-85 0 -167.5 -66t-133 -165t-50.5 -193q0 -82 35.5 -130t105.5 -48q73 0 142 58q9 56 18 95.5t24 77.5t38 57.5t54 19.5zM149 -289q-17 0 -17 15q0 5 3.5 12
t8.5 16t14.5 33t19.5 57q19 63 73 63q25 0 43 -17t18 -42q0 -47 -58 -92t-105 -45z" />
    <glyph glyph-name="uni0123" unicode="&#x123;" horiz-adv-x="403" 
d="M317 314q0 -5 -1 -7q2 0 4 0.5t4 0.5q20 0 31.5 -15.5t11.5 -38.5q0 -60 -63 -144q0 -22 -2 -74q28 21 52.5 50.5t70.5 94.5q6 9 15 9q13 0 13 -15q0 -8 -5 -17q-36 -66 -70.5 -105.5t-79.5 -68.5q-11 -107 -39 -164q-27 -56 -77.5 -89t-110.5 -33q-57 0 -96 29t-39 81
q0 29 14.5 53.5t33.5 41t55 33t59.5 25t66.5 22.5l27 9q3 25 3 33q-39 -28 -84 -28q-48 0 -81 32.5t-33 92.5q0 98 70.5 177t158.5 79q38 0 64.5 -19.5t26.5 -44.5zM160 69q23 0 43 20q13 105 43 162q-23 4 -23 13q0 4 4 12.5t4 17.5q0 29 -26 29q-32 0 -65.5 -51.5
t-33.5 -121.5q0 -38 15 -59.5t39 -21.5zM83 -246q36 0 63 48.5t40 139.5q-67 -25 -108 -56t-41 -76q0 -27 13 -41.5t33 -14.5zM325 610q12 0 12 -14q0 -5 -5 -14.5t-14.5 -35.5t-17.5 -64q-5 -25 -8.5 -36.5t-15 -22.5t-30.5 -11q-24 0 -39.5 15.5t-15.5 42.5q0 43 49 91.5
t85 48.5z" />
    <glyph glyph-name="Hcircumflex" unicode="&#x124;" horiz-adv-x="938" 
d="M631 110q0 100 27 200l-77.5 -13t-84.5 -15q-10 -46 -19 -80t-24 -78t-33.5 -75t-43.5 -59t-59.5 -42.5t-75.5 -14.5q-69 0 -105 37.5t-36 92.5q0 71 64 136t197 107q66 245 159 324q-63 18 -113 18q-78 0 -129.5 -35t-51.5 -87q0 -27 14.5 -43.5t37.5 -16.5q26 0 48 19
q7 5 11 5q14 0 14 -25q0 -40 -38.5 -78.5t-96.5 -38.5q-55 0 -92 37t-37 98q0 93 87 155.5t227 62.5q25 0 53 -3t42 -5t47.5 -8.5t39.5 -7.5q42 25 84 25q31 0 50.5 -12.5t19.5 -35.5q0 -24 -22.5 -38.5t-58.5 -14.5q-26 0 -53 6q-52 -68 -91 -249l-5 -20l81.5 12.5
t85.5 13.5q47 144 125 242.5t160 98.5q43 0 70 -29t27 -74q0 -73 -64 -146.5t-192 -118.5q-27 -98 -27 -188q0 -42 13 -65t36 -23q54 0 138 120q6 9 15 9q13 0 13 -15q0 -8 -5 -17q-117 -211 -232 -211q-54 0 -87 43.5t-33 119.5zM231 50q21 0 39 17t32 48.5t24 61t20 68.5
q-76 -29 -115 -70.5t-39 -77.5q0 -19 10 -33t29 -14zM959 588q-34 0 -72 -54t-68 -137q80 32 121 78.5t41 86.5q0 26 -22 26zM694 735q-16 0 -16 13q0 4 5 9.5t14 12.5t12 10q42 36 85 88q12 14 17 17.5t17 3.5t32.5 -10.5t28.5 -29.5l6 -17q6 -18 14 -37q7 -16 15 -27.5
t11 -16.5t3 -11q0 -13 -18 -13q-25 0 -56 20t-51 48q-89 -60 -119 -60z" />
    <glyph glyph-name="hcircumflex" unicode="&#x125;" horiz-adv-x="443" 
d="M24 211q21 112 61 223t97.5 194t112.5 83q36 0 55 -27.5t19 -73.5q0 -80 -67.5 -186t-159.5 -182q-14 -55 -20 -105q32 60 65.5 109.5t77 90.5t78.5 41q24 0 40.5 -17.5t16.5 -52.5q0 -44 -30.5 -114t-30.5 -89q0 -24 17 -24q39 0 109 100q6 9 15 9q13 0 13 -15
q0 -8 -5 -17q-52 -94 -95 -130.5t-84 -36.5q-35 0 -57.5 24.5t-22.5 63.5q0 40 23 107t23 73q0 8 -6 8q-18 0 -56.5 -55t-63.5 -122q-4 -11 -11 -32t-10.5 -29t-9.5 -19t-13 -15t-17 -4q-47 0 -67 50q-8 21 -8 70q0 40 11 100zM287 566q-20 0 -58 -78.5t-69 -182.5
q61 67 99.5 135t38.5 110q0 16 -11 16zM194 710q-16 0 -16 13q0 4 5 9.5t14 12.5t12 10q42 36 85 88q12 14 17 17.5t17 3.5t32.5 -10.5t28.5 -29.5l6 -18q6 -17 14 -36q7 -16 15 -27.5t11 -16.5t3 -11q0 -13 -18 -13q-25 0 -56 20t-51 48q-89 -60 -119 -60z" />
    <glyph glyph-name="Hbar" unicode="&#x126;" horiz-adv-x="938" 
d="M631 110q0 100 27 200l-77.5 -13t-84.5 -15q-10 -46 -19 -80t-24 -78t-33.5 -75t-43.5 -59t-59.5 -42.5t-75.5 -14.5q-69 0 -105 37.5t-36 92.5q0 71 64 136t197 107l25 85q-78 -15 -130 -15q-85 0 -127 37t-42 91q0 81 87.5 139t225.5 58q25 0 53.5 -3t42.5 -5
t47.5 -8.5t39.5 -7.5q42 25 84 25q31 0 50.5 -12.5t19.5 -35.5q0 -24 -22.5 -38.5t-58.5 -14.5q-26 0 -53 6q-33 -44 -60 -131q116 29 198 44q47 85 103.5 135t114.5 50q43 0 70 -29t27 -74q0 -29 -11 -62q56 -8 56 -38q0 -23 -15.5 -45t-30.5 -22q-3 0 -14 5q-26 9 -50 14
q-69 -74 -191 -117q-27 -98 -27 -188q0 -42 13 -65t36 -23q54 0 138 120q6 9 15 9q13 0 13 -15q0 -8 -5 -17q-117 -211 -232 -211q-54 0 -87 43.5t-33 119.5zM336 439q24 0 70 7q51 128 113 184q-72 18 -115 18q-78 0 -125.5 -33.5t-47.5 -85.5q0 -36 23.5 -63t81.5 -27z
M231 50q21 0 39 17t32 48.5t24 61t20 68.5q-76 -29 -115 -70.5t-39 -77.5q0 -19 10 -33t29 -14zM708 454q-74 -9 -181 -32l-20 -84l81.5 12.5t85.5 13.5q16 50 34 90zM881 466q-23 0 -34 -1q-18 -37 -28 -68q70 28 109 66q-24 3 -47 3zM891 540q58 4 88 4q2 12 2 18
q0 26 -22 26q-31 0 -68 -48z" />
    <glyph glyph-name="hbar" unicode="&#x127;" horiz-adv-x="443" 
d="M24 211q24 123 65 233q-19 -2 -36 -5t-21 -3q-11 0 -11 10q0 13 16 27.5t41 23.5q10 4 36 7q91 207 181 207q36 0 55 -27.5t19 -73.5q0 -45 -24 -103q68 -7 68 -24q0 -23 -15 -41.5t-28 -18.5q-2 0 -7.5 1.5t-11.5 2.5l-44 6q-69 -112 -165 -191q-14 -55 -20 -105
q32 60 65.5 109.5t77 90.5t78.5 41q24 0 40.5 -17.5t16.5 -52.5q0 -44 -30.5 -114t-30.5 -89q0 -24 17 -24q39 0 109 100q6 9 15 9q13 0 13 -15q0 -8 -5 -17q-52 -94 -95 -130.5t-84 -36.5q-35 0 -57.5 24.5t-22.5 63.5q0 40 23 107t23 73q0 8 -6 8q-18 0 -56.5 -55
t-63.5 -122q-4 -11 -11 -32t-10.5 -29t-9.5 -19t-13 -15t-17 -4q-47 0 -67 50q-8 21 -8 70q0 40 11 100zM259 439l-50 3q-30 -71 -49 -137q59 64 99 134zM287 566q-17 0 -47 -56h51q7 26 7 40q0 16 -11 16z" />
    <glyph glyph-name="Itilde" unicode="&#x128;" horiz-adv-x="513" 
d="M583 701q65 0 65 -47q0 -24 -22.5 -38.5t-58.5 -14.5q-18 0 -27 -1q-23 -30 -41 -85t-30 -115.5l-26.5 -128t-35.5 -128t-50.5 -109.5t-78.5 -78t-113 -29q-24 0 -39 8t-15 17q0 14 26 19q43 8 74.5 55.5t53 119.5t41 148t50.5 158t70 133q-118 -26 -199 -84t-81 -124
q0 -30 18.5 -47t43.5 -17q26 0 48 19q7 5 11 5q14 0 14 -25q0 -40 -38.5 -78.5t-96.5 -38.5q-55 0 -92 37t-37 98q0 79 66.5 147t169.5 109.5t225 57.5q54 57 105 57zM378 715q-11 0 -11 21q0 40 28 68.5t68 28.5q22 0 54.5 -1t44.5 -1q60 0 81 27q11 14 18 14q12 0 12 -30
q0 -41 -24 -76.5t-71 -35.5q-29 0 -73.5 12t-62.5 12t-31 -10t-21 -19.5t-12 -9.5z" />
    <glyph glyph-name="itilde" unicode="&#x129;" horiz-adv-x="235" 
d="M124 378q26 0 41.5 -17t15.5 -43q0 -6 -2 -13t-4 -11t-8 -14.5l-10 -17.5q-44 -84 -44 -143q0 -41 27 -41q45 0 117 103q6 9 15 9q13 0 13 -15q0 -8 -5 -17q-93 -167 -194 -167q-42 0 -64.5 32t-22.5 81q0 75 34 160q46 114 91 114zM89 446q-9 0 -9 17q0 26 23 53t55 27
q22 0 55.5 -13.5t48.5 -13.5q27 0 43 20q8 11 14 11q10 0 10 -24q0 -32 -23.5 -61t-62.5 -29q-24 0 -55.5 22.5t-45.5 22.5q-20 0 -35.5 -16t-17.5 -16z" />
    <glyph glyph-name="Imacron" unicode="&#x12a;" horiz-adv-x="513" 
d="M583 701q65 0 65 -47q0 -24 -22.5 -38.5t-58.5 -14.5q-18 0 -27 -1q-23 -30 -41 -85t-30 -115.5l-26.5 -128t-35.5 -128t-50.5 -109.5t-78.5 -78t-113 -29q-24 0 -39 8t-15 17q0 14 26 19q43 8 74.5 55.5t53 119.5t41 148t50.5 158t70 133q-118 -26 -199 -84t-81 -124
q0 -30 18.5 -47t43.5 -17q26 0 48 19q7 5 11 5q14 0 14 -25q0 -40 -38.5 -78.5t-96.5 -38.5q-55 0 -92 37t-37 98q0 79 66.5 147t169.5 109.5t225 57.5q54 57 105 57zM330 756q0 15 18.5 32t47.5 27q69 25 200 25q80 0 80 -31q0 -26 -17 -47.5t-33 -21.5q-2 0 -4 0.5t-7 2
t-11 2.5q-60 10 -142 10q-46 0 -82 -5t-37 -5q-13 0 -13 11z" />
    <glyph glyph-name="imacron" unicode="&#x12b;" horiz-adv-x="235" 
d="M62 446q0 13 15 27.5t38 23.5q52 22 144 22q64 0 64 -27q0 -23 -14 -41.5t-26 -18.5q-1 0 -3 0.5t-5.5 1.5t-8.5 2q-45 9 -106 9q-36 0 -61.5 -4.5t-26.5 -4.5q-10 0 -10 10zM124 378q26 0 41.5 -17t15.5 -43q0 -6 -2 -13t-4 -11t-8 -14.5l-10 -17.5q-44 -84 -44 -143
q0 -41 27 -41q45 0 117 103q6 9 15 9q13 0 13 -15q0 -8 -5 -17q-93 -167 -194 -167q-42 0 -64.5 32t-22.5 81q0 75 34 160q46 114 91 114z" />
    <glyph glyph-name="Iogonek" unicode="&#x12e;" horiz-adv-x="513" 
d="M583 701q65 0 65 -47q0 -24 -22.5 -38.5t-58.5 -14.5q-18 0 -27 -1q-33 -40 -54.5 -131l-46 -204t-57.5 -184q-21 -46 -59 -97.5t-62 -88t-24 -63.5q0 -34 27 -34q4 0 9 2.5t8 2.5q10 0 10 -17q0 -33 -29.5 -61.5t-69.5 -28.5q-32 0 -54 21.5t-22 59.5q0 64 77 152
q-18 -2 -28 -2q-24 0 -39 8t-15 17q0 14 26 19q43 8 74.5 55.5t53 119.5t41 148t50.5 158t70 133q-118 -26 -199 -84t-81 -124q0 -30 18.5 -47t43.5 -17q26 0 48 19q7 5 11 5q14 0 14 -25q0 -40 -38.5 -78.5t-96.5 -38.5q-55 0 -92 37t-37 98q0 79 66.5 147t169.5 109.5
t225 57.5q54 57 105 57z" />
    <glyph glyph-name="iogonek" unicode="&#x12f;" horiz-adv-x="235" 
d="M124 378q26 0 41.5 -17t15.5 -43q0 -6 -2 -13t-4 -11t-8 -14.5l-10 -17.5q-44 -84 -44 -143q0 -41 27 -41q45 0 117 103q6 9 15 9q13 0 13 -15q0 -8 -5 -17q-19 -36 -48.5 -73t-55.5 -64l-50 -53t-38.5 -52t-14.5 -51q0 -18 7.5 -27t17.5 -9q11 0 11 -12
q0 -22 -23.5 -40.5t-56.5 -18.5q-29 0 -47.5 18.5t-18.5 50.5q0 66 115 165q-39 3 -59 34t-20 78q0 75 34 160q46 114 91 114zM186 434q-27 0 -45.5 16.5t-18.5 41.5q0 34 25.5 57.5t60.5 23.5q33 0 50 -19t17 -44q0 -33 -26.5 -54.5t-62.5 -21.5z" />
    <glyph glyph-name="Idotaccent" unicode="&#x130;" horiz-adv-x="513" 
d="M583 701q65 0 65 -47q0 -24 -22.5 -38.5t-58.5 -14.5q-18 0 -27 -1q-23 -30 -41 -85t-30 -115.5l-26.5 -128t-35.5 -128t-50.5 -109.5t-78.5 -78t-113 -29q-24 0 -39 8t-15 17q0 14 26 19q43 8 74.5 55.5t53 119.5t41 148t50.5 158t70 133q-118 -26 -199 -84t-81 -124
q0 -30 18.5 -47t43.5 -17q26 0 48 19q7 5 11 5q14 0 14 -25q0 -40 -38.5 -78.5t-96.5 -38.5q-55 0 -92 37t-37 98q0 79 66.5 147t169.5 109.5t225 57.5q54 57 105 57zM555 745q-30 0 -50 18t-20 46q0 36 28 62t67 26q36 0 54.5 -21t18.5 -48q0 -36 -29 -59.5t-69 -23.5z" />
    <glyph glyph-name="dotlessi" unicode="&#x131;" horiz-adv-x="235" 
d="M124 378q26 0 41.5 -17t15.5 -43q0 -6 -2 -13t-4 -11t-8 -14.5l-10 -17.5q-44 -84 -44 -143q0 -41 27 -41q45 0 117 103q6 9 15 9q13 0 13 -15q0 -8 -5 -17q-93 -167 -194 -167q-42 0 -64.5 32t-22.5 81q0 75 34 160q46 114 91 114z" />
    <glyph glyph-name="IJ" unicode="&#x132;" horiz-adv-x="1004" 
d="M582 -264q-89 0 -135.5 48t-46.5 119q0 87 70.5 161.5t153.5 74.5q20 0 32.5 -7.5t12.5 -18.5q0 -4 -3 -7t-12.5 -8.5t-16.5 -11.5q-47 -37 -76 -93t-29 -106q0 -39 16.5 -63t49.5 -24q44 0 79.5 48t58 123t47.5 170.5l47 184.5t58 171.5t79 126.5q-38 8 -84 8
q-84 0 -131 -43.5t-47 -100.5q0 -27 15 -44.5t38 -17.5q26 0 48 19q7 5 11 5q14 0 14 -25q0 -40 -38.5 -78.5t-96.5 -38.5q-55 0 -92.5 38t-37.5 99q0 97 84 168.5t227 71.5q66 0 150 -12q45 29 90 29q31 0 50.5 -12.5t19.5 -35.5q0 -24 -22.5 -38.5t-58.5 -14.5
q-29 0 -50 4q-25 -38 -46 -109t-37.5 -149l-36.5 -165.5t-48.5 -165.5t-67 -141.5t-99.5 -101t-139 -37.5zM579 701q31 0 50 -12t19 -35q0 -24 -22 -38.5t-57 -14.5q-29 -45 -52 -119t-36.5 -145t-36 -147.5t-50 -133t-78.5 -93t-122 -36.5q-24 0 -39 8t-15 17q0 13 26 19
q39 9 71.5 56.5t57 120t46 148t49.5 158.5t56 135q-125 -23 -212.5 -83t-87.5 -129q0 -30 18.5 -47t43.5 -17q26 0 48 19q7 5 11 5q14 0 14 -25q0 -40 -38.5 -78.5t-96.5 -38.5q-55 0 -92 37t-37 98q0 79 66 146.5t168.5 109.5t224.5 58q48 57 103 57z" />
    <glyph glyph-name="ij" unicode="&#x133;" horiz-adv-x="443" 
d="M488 158q-39 -70 -74.5 -106t-91.5 -66q-10 -61 -22.5 -105.5t-34.5 -89.5t-57.5 -69t-83.5 -24q-43 0 -75 28t-32 68q0 36 15.5 65t48.5 52.5t62 38.5t77 35q3 26 8 94q-68 -88 -142 -88q-42 0 -64.5 32t-22.5 81q0 75 34 160q46 114 91 114q26 0 41.5 -17t15.5 -43
q0 -6 -2 -13t-4 -11t-8 -14.5l-10 -17.5q-44 -84 -44 -143q0 -41 27 -41q39 0 97 76q36 224 114 224q29 0 43 -18t14 -42q0 -14 -7.5 -31.5t-18 -38t-25 -73.5t-25.5 -126q-2 -10 -2 -14q34 21 61 50.5t74 95.5q6 9 15 9q13 0 13 -15q0 -8 -5 -17zM422 440q-2 0 -22 6.5
t-42 6.5t-75 -13.5t-76 -13.5q-38 0 -61.5 18t-23.5 54q0 29 22 51t45 22q8 0 12 -9q8 -16 34.5 -20.5t68.5 -5.5t64 -6q27 -6 45 -25.5t18 -47.5q0 -17 -9 -17zM122 -246q55 0 88 172q-114 -67 -114 -134q0 -17 8 -27.5t18 -10.5z" />
    <glyph glyph-name="Jcircumflex" unicode="&#x134;" horiz-adv-x="566" 
d="M144 -264q-89 0 -135.5 48t-46.5 119q0 87 70.5 161.5t153.5 74.5q20 0 32.5 -7.5t12.5 -18.5q0 -4 -3 -7t-12.5 -8.5t-16.5 -11.5q-47 -37 -76 -93t-29 -106q0 -39 16.5 -63t49.5 -24q44 0 80 49t58.5 125t47.5 172.5l47.5 186.5t59.5 172.5t82 124.5q-65 18 -116 18
q-78 0 -129.5 -35t-51.5 -87q0 -27 14.5 -43.5t37.5 -16.5q26 0 48 19q7 5 11 5q14 0 14 -25q0 -40 -38.5 -78.5t-96.5 -38.5q-55 0 -92 37t-37 98q0 93 87 155.5t227 62.5q25 0 53 -3t42 -5t47.5 -8.5t39.5 -7.5q42 25 84 25q31 0 50.5 -12.5t19.5 -35.5q0 -24 -22.5 -38.5
t-58.5 -14.5q-25 0 -49 6q-25 -38 -46.5 -109t-38 -149l-36 -166t-48 -166t-67.5 -142t-100 -101.5t-139 -37.5zM495 735q-16 0 -16 13q0 4 5 9.5t14 12.5t12 10q42 36 85 88q12 14 17 17.5t17 3.5t32.5 -10.5t28.5 -29.5l6 -17q6 -18 14 -37q7 -16 15 -27.5t11 -16.5t3 -11
q0 -13 -18 -13q-25 0 -56 20t-51 48q-89 -60 -119 -60z" />
    <glyph glyph-name="jcircumflex" unicode="&#x135;" horiz-adv-x="219" 
d="M264 158q-39 -70 -74.5 -106t-91.5 -66q-10 -61 -22.5 -105.5t-34.5 -89.5t-57.5 -69t-83.5 -24q-43 0 -75 28t-32 68q0 36 15.5 65t48.5 52.5t62 38.5t77 35q3 26 7 75t6 63q13 103 42.5 179t75.5 76q29 0 43 -18t14 -42q0 -14 -7.5 -31.5t-18 -38t-25 -73.5t-25.5 -126
q-2 -10 -2 -14q34 21 61 50.5t74 95.5q6 9 15 9q13 0 13 -15q0 -8 -5 -17zM-102 -246q55 0 88 172q-114 -67 -114 -134q0 -17 8 -27.5t18 -10.5zM45 424q-12 0 -12 10q0 9 18 25q38 37 81 111q18 31 35 31q33 0 38 -37q8 -62 26 -103q11 -26 11 -27q0 -10 -13 -10
q-15 0 -38 18t-40 43q-23 -23 -57 -42t-49 -19z" />
    <glyph glyph-name="uni0136" unicode="&#x136;" horiz-adv-x="947" 
d="M198 -14q52 0 89.5 50t62 129.5t47.5 164.5t62 170t90 130q-70 18 -115 18q-78 0 -129.5 -35t-51.5 -87q0 -27 14.5 -43.5t37.5 -16.5q26 0 48 19q7 5 11 5q14 0 14 -25q0 -40 -38.5 -78.5t-96.5 -38.5q-55 0 -92 37t-37 98q0 93 87 155.5t227 62.5q25 0 53 -3t42 -5
t47.5 -8.5t39.5 -7.5q42 25 84 25q31 0 50.5 -12.5t19.5 -35.5q0 -24 -22.5 -38.5t-58.5 -14.5q-26 0 -52 6q-28 -38 -52 -109t-40.5 -143t-45.5 -151t-64 -139t-99 -99t-149 -39q-80 0 -131.5 40.5t-51.5 96.5q0 47 28 74t67 27q29 0 51 -19t22 -40q0 -3 -16.5 -20.5
t-16.5 -43.5q0 -25 19 -40.5t46 -15.5zM1028 591q0 -55 -55 -117t-128 -107.5t-146 -72.5q17 -27 41.5 -89.5t48 -96.5t55.5 -34q50 0 125 107q6 9 15 9q13 0 13 -15q0 -8 -5 -17q-116 -209 -229 -209q-29 0 -52 11.5t-38.5 35.5t-26.5 47.5t-18 60t-10.5 60t-7.5 60.5
t-6 49q-23 0 -38 13t-15 30q0 19 16 30.5t42 11.5q27 0 54 -20q91 40 157.5 125t66.5 164q0 24 -8.5 43t-8.5 23q0 3 4 6.5t14 6t24 2.5q47 0 81.5 -30.5t34.5 -86.5zM407 -289q-17 0 -17 15q0 5 3.5 12t8.5 16t14.5 33t19.5 57q19 63 73 63q25 0 43 -17t18 -42
q0 -47 -58 -92t-105 -45z" />
    <glyph glyph-name="uni0137" unicode="&#x137;" horiz-adv-x="443" 
d="M303 -9q-49 0 -80 37t-31 82q0 31 14.5 47.5t43.5 30.5q36 18 58.5 40.5t22.5 41.5t-21 19q-31 0 -81.5 -61t-79.5 -138q-4 -11 -11 -32t-10.5 -29t-9.5 -19t-13 -15t-17 -4q-47 0 -67 50q-8 21 -8 70q0 40 11 100q22 112 61.5 223t97 194t112.5 83q36 0 55 -27.5
t19 -73.5q0 -80 -67.5 -186t-159.5 -182q-16 -66 -21 -109q52 100 117 172.5t126 72.5q37 0 56.5 -20t19.5 -55q0 -38 -37 -77.5t-101 -59.5q5 -33 19.5 -53.5t34.5 -20.5q47 0 109 89q6 9 15 9q13 0 13 -15q0 -8 -5 -17q-54 -96 -95.5 -131.5t-89.5 -35.5zM287 566
q-20 0 -58 -78.5t-69 -182.5q61 67 99.5 135t38.5 110q0 16 -11 16zM99 -241q-12 0 -12 14q0 5 5 14.5t14.5 35.5t17.5 64q5 25 8.5 36.5t15 22.5t30.5 11q24 0 39.5 -15.5t15.5 -42.5q0 -43 -49 -91.5t-85 -48.5z" />
    <glyph glyph-name="Lacute" unicode="&#x139;" horiz-adv-x="835" 
d="M341 499q0 -73 81 -94q23 67 48 116.5t62 95t89 69.5t117 24q64 0 108 -33t44 -97q0 -83 -98 -149t-248 -79q-44 -161 -91 -247q135 -54 215 -54q34 0 60 14t39 30q11 14 18 14q12 0 22 -21q13 -27 13 -57q0 -57 -40 -97.5t-109 -40.5q-24 0 -48.5 6.5t-58.5 25.5
l-48.5 27.5t-60.5 41t-52 36.5q-88 -103 -222 -103q-67 0 -115.5 33.5t-48.5 85.5q0 56 46.5 92.5t122.5 36.5q70 0 156 -27q10 27 20 60l23 77.5l20 67.5q-98 11 -152 50.5t-54 96.5q0 43 26 73t57 41t62 11q26 0 42.5 -7.5t16.5 -18.5q0 -8 -6 -14q-1 -1 -8 -6t-14.5 -12
t-15.5 -16.5t-13 -23t-5 -28.5zM708 647q-82 0 -150 -243q90 16 146 67t56 115q0 24 -14 42.5t-38 18.5zM198 -14q71 0 118 98q-67 35 -119 35q-33 0 -55.5 -19.5t-22.5 -46.5q0 -30 22 -48.5t57 -18.5zM689 743q-31 0 -31 16q0 4 2 6.5t8 7l14 10t23 18t32 29.5
q20 19 33 36t17 24t8.5 11t11.5 4q16 0 38.5 -19.5t22.5 -43.5q0 -38 -67.5 -68.5t-111.5 -30.5z" />
    <glyph glyph-name="lacute" unicode="&#x13a;" horiz-adv-x="261" 
d="M360 611q0 -76 -58 -180.5t-158 -189.5q-15 -68 -15 -111q0 -58 31 -58q47 0 123 109q6 9 15 9q13 0 13 -15q0 -8 -5 -17q-52 -94 -100.5 -130.5t-99.5 -36.5q-44 0 -69 32.5t-25 95.5q0 55 25 153.5t63 196.5t90 170t100 72q70 0 70 -100zM287 566q-18 0 -57 -81
t-68 -178q66 72 101 141.5t35 101.5q0 16 -11 16zM284 733q-31 0 -31 16q0 4 2 6.5t8 7l14 10t23 18t32 29.5q20 19 33 36t17 24t8.5 11t11.5 4q16 0 38.5 -19.5t22.5 -43.5q0 -38 -67.5 -68.5t-111.5 -30.5z" />
    <glyph glyph-name="uni013B" unicode="&#x13b;" horiz-adv-x="835" 
d="M341 499q0 -73 81 -94q23 67 48 116.5t62 95t89 69.5t117 24q64 0 108 -33t44 -97q0 -83 -98 -149t-248 -79q-44 -161 -91 -247q135 -54 215 -54q34 0 60 14t39 30q11 14 18 14q12 0 22 -21q13 -27 13 -57q0 -57 -40 -97.5t-109 -40.5q-24 0 -48.5 6.5t-58.5 25.5
l-48.5 27.5t-60.5 41t-52 36.5q-88 -103 -222 -103q-67 0 -115.5 33.5t-48.5 85.5q0 56 46.5 92.5t122.5 36.5q70 0 156 -27q10 27 20 60l23 77.5l20 67.5q-98 11 -152 50.5t-54 96.5q0 43 26 73t57 41t62 11q26 0 42.5 -7.5t16.5 -18.5q0 -8 -6 -14q-1 -1 -8 -6t-14.5 -12
t-15.5 -16.5t-13 -23t-5 -28.5zM708 647q-82 0 -150 -243q90 16 146 67t56 115q0 24 -14 42.5t-38 18.5zM198 -14q71 0 118 98q-67 35 -119 35q-33 0 -55.5 -19.5t-22.5 -46.5q0 -30 22 -48.5t57 -18.5zM337 -289q-17 0 -17 15q0 5 3.5 12t8.5 16t14.5 33t19.5 57
q19 63 73 63q25 0 43 -17t18 -42q0 -47 -58 -92t-105 -45z" />
    <glyph glyph-name="uni013C" unicode="&#x13c;" horiz-adv-x="261" 
d="M360 611q0 -76 -58 -180.5t-158 -189.5q-15 -68 -15 -111q0 -58 31 -58q47 0 123 109q6 9 15 9q13 0 13 -15q0 -8 -5 -17q-52 -94 -100.5 -130.5t-99.5 -36.5q-44 0 -69 32.5t-25 95.5q0 55 25 153.5t63 196.5t90 170t100 72q70 0 70 -100zM287 566q-18 0 -57 -81
t-68 -178q66 72 101 141.5t35 101.5q0 16 -11 16zM-5 -241q-12 0 -12 14q0 5 5 14.5t14.5 35.5t17.5 64q5 25 8.5 36.5t15 22.5t30.5 11q24 0 39.5 -15.5t15.5 -42.5q0 -43 -49 -91.5t-85 -48.5z" />
    <glyph glyph-name="Lcaron" unicode="&#x13d;" horiz-adv-x="835" 
d="M341 499q0 -73 81 -94q23 67 48 116.5t62 95t89 69.5t117 24q64 0 108 -33t44 -97q0 -83 -98 -149t-248 -79q-44 -161 -91 -247q135 -54 215 -54q34 0 60 14t39 30q11 14 18 14q12 0 22 -21q13 -27 13 -57q0 -57 -40 -97.5t-109 -40.5q-24 0 -48.5 6.5t-58.5 25.5
l-48.5 27.5t-60.5 41t-52 36.5q-88 -103 -222 -103q-67 0 -115.5 33.5t-48.5 85.5q0 56 46.5 92.5t122.5 36.5q70 0 156 -27q10 27 20 60l23 77.5l20 67.5q-98 11 -152 50.5t-54 96.5q0 43 26 73t57 41t62 11q26 0 42.5 -7.5t16.5 -18.5q0 -8 -6 -14q-1 -1 -8 -6t-14.5 -12
t-15.5 -16.5t-13 -23t-5 -28.5zM708 647q-82 0 -150 -243q90 16 146 67t56 115q0 24 -14 42.5t-38 18.5zM198 -14q71 0 118 98q-67 35 -119 35q-33 0 -55.5 -19.5t-22.5 -46.5q0 -30 22 -48.5t57 -18.5zM1049 623q0 -37 -56.5 -98t-79.5 -61q-12 0 -12 9q0 8 9 21
q31 43 56 150q6 22 10.5 29.5t15.5 7.5q20 0 38.5 -18.5t18.5 -39.5z" />
    <glyph glyph-name="lcaron" unicode="&#x13e;" horiz-adv-x="261" 
d="M360 611q0 -76 -58 -180.5t-158 -189.5q-15 -68 -15 -111q0 -58 31 -58q47 0 123 109q6 9 15 9q13 0 13 -15q0 -8 -5 -17q-52 -94 -100.5 -130.5t-99.5 -36.5q-44 0 -69 32.5t-25 95.5q0 55 25 153.5t63 196.5t90 170t100 72q70 0 70 -100zM287 566q-18 0 -57 -81
t-68 -178q66 72 101 141.5t35 101.5q0 16 -11 16zM516 623q0 -37 -56.5 -98t-79.5 -61q-12 0 -12 9q0 8 9 21q31 43 56 150q6 22 10.5 29.5t15.5 7.5q20 0 38.5 -18.5t18.5 -39.5z" />
    <glyph glyph-name="Ldot" unicode="&#x13f;" horiz-adv-x="835" 
d="M341 499q0 -73 81 -94q23 67 48 116.5t62 95t89 69.5t117 24q64 0 108 -33t44 -97q0 -83 -98 -149t-248 -79q-44 -161 -91 -247q135 -54 215 -54q34 0 60 14t39 30q11 14 18 14q12 0 22 -21q13 -27 13 -57q0 -57 -40 -97.5t-109 -40.5q-24 0 -48.5 6.5t-58.5 25.5
l-48.5 27.5t-60.5 41t-52 36.5q-88 -103 -222 -103q-67 0 -115.5 33.5t-48.5 85.5q0 56 46.5 92.5t122.5 36.5q70 0 156 -27q10 27 20 60l23 77.5l20 67.5q-98 11 -152 50.5t-54 96.5q0 43 26 73t57 41t62 11q26 0 42.5 -7.5t16.5 -18.5q0 -8 -6 -14q-1 -1 -8 -6t-14.5 -12
t-15.5 -16.5t-13 -23t-5 -28.5zM708 647q-82 0 -150 -243q90 16 146 67t56 115q0 24 -14 42.5t-38 18.5zM198 -14q71 0 118 98q-67 35 -119 35q-33 0 -55.5 -19.5t-22.5 -46.5q0 -30 22 -48.5t57 -18.5zM852 217q-26 0 -43.5 16.5t-17.5 39.5q0 32 26 55.5t61 23.5
q26 0 42 -16t16 -39q0 -33 -25 -56.5t-59 -23.5z" />
    <glyph glyph-name="ldot" unicode="&#x140;" horiz-adv-x="401" 
d="M129 130q0 -52 31 -52q20 0 42.5 17.5t28.5 17.5q10 0 10 -15q0 -32 -41.5 -69.5t-93.5 -37.5q-44 0 -69 32.5t-25 95.5q0 55 25 153.5t63 196.5t90 170t100 72q70 0 70 -100q0 -76 -58 -180.5t-158 -189.5q-15 -68 -15 -111zM287 566q-18 0 -57 -81t-68 -178
q66 72 101 141.5t35 101.5q0 16 -11 16zM287 138q-26 0 -43.5 16.5t-17.5 39.5q0 32 26 55.5t61 23.5q26 0 42 -16t16 -39q0 -33 -25 -56.5t-59 -23.5z" />
    <glyph glyph-name="Lslash" unicode="&#x141;" horiz-adv-x="835" 
d="M341 499q0 -73 81 -94q23 67 48 116.5t62 95t89 69.5t117 24q64 0 108 -33t44 -97q0 -83 -98 -149t-248 -79l-21 -74q28 10 48 22q18 11 30 22t16.5 16.5t8.5 5.5q12 0 26 -20.5t14 -45.5q0 -61 -175 -91q-17 -42 -38 -82q135 -54 215 -54q34 0 60 14t39 30q11 14 18 14
q12 0 22 -21q13 -27 13 -57q0 -57 -40 -97.5t-109 -40.5q-24 0 -48.5 6.5t-58.5 25.5l-48.5 27.5t-60.5 41t-52 36.5q-88 -103 -222 -103q-67 0 -115.5 33.5t-48.5 85.5q0 56 46.5 92.5t122.5 36.5q70 0 156 -27l9 26q-39 3 -64.5 16.5t-25.5 33.5q0 12 8 12q1 0 13 -1.5
t26 -1.5q27 0 63 6l34 114q-98 11 -152 50.5t-54 96.5q0 43 26 73t57 41t62 11q26 0 42.5 -7.5t16.5 -18.5q0 -8 -6 -14q-1 -1 -8 -6t-14.5 -12t-15.5 -16.5t-13 -23t-5 -28.5zM708 647q-82 0 -150 -243q90 16 146 67t56 115q0 24 -14 42.5t-38 18.5zM198 -14q71 0 118 98
q-67 35 -119 35q-33 0 -55.5 -19.5t-22.5 -46.5q0 -30 22 -48.5t57 -18.5z" />
    <glyph glyph-name="lslash" unicode="&#x142;" horiz-adv-x="261" 
d="M251 233q0 -23 -34 -47t-88 -41v-15q0 -58 31 -58q47 0 123 109q6 9 15 9q13 0 13 -15q0 -8 -5 -17q-52 -94 -100.5 -130.5t-99.5 -36.5q-44 0 -69 32.5t-25 95.5v8q-65 2 -65 30q0 11 6 11q1 0 6 -0.5t15 -0.5q18 0 42 6q10 70 37 160t63.5 175.5t83.5 144t90 58.5
q70 0 70 -100q0 -76 -58 -180.5t-158 -189.5q-1 -9 -5 -22q32 17 40 24l18 15t11.5 11t6.5 6t5 2q12 0 21.5 -15.5t9.5 -28.5zM287 566q-18 0 -57 -81t-68 -178q66 72 101 141.5t35 101.5q0 16 -11 16z" />
    <glyph glyph-name="Nacute" unicode="&#x143;" horiz-adv-x="856" 
d="M988 639q0 -50 -39 -114t-103.5 -159.5t-103.5 -181.5q17 -51 17 -92q0 -48 -28 -82t-67 -34q-52 0 -52 67q0 24 7 49q-4 35 -20.5 81.5t-46.5 117.5t-44 107q-19 -67 -41 -127t-56.5 -125.5t-72.5 -112t-90 -76.5t-109 -30q-79 0 -121 37t-42 94q0 47 29.5 77t67.5 30
q30 0 51 -14.5t21 -34.5q0 -3 -15 -20t-15 -41q0 -25 17 -38.5t44 -13.5q53 0 103.5 51t88.5 131.5t64.5 158t43.5 150.5q-15 62 -15 109q0 45 22.5 77.5t52.5 32.5q59 0 59 -69q0 -25 -15 -73q16 -56 71 -174t66 -145l52 97.5l49 91.5t29.5 73.5t13.5 77.5q0 39 -19.5 64
t-44.5 31q-13 3 -13 10q0 19 27 37.5t64 18.5q44 0 78.5 -27.5t34.5 -86.5zM697 743q-31 0 -31 16q0 4 2 6.5t8 7l14 10t23 18t32 29.5q20 19 33 36t17 24t8.5 11t11.5 4q16 0 38.5 -19.5t22.5 -43.5q0 -38 -67.5 -68.5t-111.5 -30.5z" />
    <glyph glyph-name="nacute" unicode="&#x144;" horiz-adv-x="435" 
d="M153 287q0 -11 -22 -66.5t-29 -110.5q27 62 61.5 119t82.5 103t89 46q24 0 42.5 -17.5t18.5 -52.5q0 -44 -32.5 -114t-32.5 -89q0 -24 17 -24q39 0 109 100q6 9 15 9q13 0 13 -15q0 -8 -5 -17q-52 -94 -95 -130.5t-84 -36.5q-36 0 -59 24.5t-23 63.5t26 101.5t26 76.5
q0 12 -10 12q-19 0 -56.5 -55.5t-63.5 -123.5q-4 -11 -11 -32t-10.5 -29t-9.5 -19t-13 -15t-17 -4q-47 0 -67 50q-8 21 -8 70q0 31 14 98q14 70 33 102t47 32q22 0 38 -17t16 -39zM376 543q0 -36 -55.5 -77.5t-81.5 -41.5q-12 0 -12 9q0 4 11 20q28 36 61 111q4 8 6.5 16.5
t4 12t4.5 6t8 2.5q20 0 37 -18.5t17 -39.5z" />
    <glyph glyph-name="uni0145" unicode="&#x145;" horiz-adv-x="856" 
d="M988 639q0 -50 -39 -114t-103.5 -159.5t-103.5 -181.5q17 -51 17 -92q0 -48 -28 -82t-67 -34q-52 0 -52 67q0 24 7 49q-4 35 -20.5 81.5t-46.5 117.5t-44 107q-19 -67 -41 -127t-56.5 -125.5t-72.5 -112t-90 -76.5t-109 -30q-79 0 -121 37t-42 94q0 47 29.5 77t67.5 30
q30 0 51 -14.5t21 -34.5q0 -3 -15 -20t-15 -41q0 -25 17 -38.5t44 -13.5q53 0 103.5 51t88.5 131.5t64.5 158t43.5 150.5q-15 62 -15 109q0 45 22.5 77.5t52.5 32.5q59 0 59 -69q0 -25 -15 -73q16 -56 71 -174t66 -145l52 97.5l49 91.5t29.5 73.5t13.5 77.5q0 39 -19.5 64
t-44.5 31q-13 3 -13 10q0 19 27 37.5t64 18.5q44 0 78.5 -27.5t34.5 -86.5zM356 -289q-17 0 -17 15q0 5 3.5 12t8.5 16t14.5 33t19.5 57q19 63 73 63q25 0 43 -17t18 -42q0 -47 -58 -92t-105 -45z" />
    <glyph glyph-name="uni0146" unicode="&#x146;" horiz-adv-x="435" 
d="M153 287q0 -11 -22 -66.5t-29 -110.5q27 62 61.5 119t82.5 103t89 46q24 0 42.5 -17.5t18.5 -52.5q0 -44 -32.5 -114t-32.5 -89q0 -24 17 -24q39 0 109 100q6 9 15 9q13 0 13 -15q0 -8 -5 -17q-52 -94 -95 -130.5t-84 -36.5q-36 0 -59 24.5t-23 63.5t26 101.5t26 76.5
q0 12 -10 12q-19 0 -56.5 -55.5t-63.5 -123.5q-4 -11 -11 -32t-10.5 -29t-9.5 -19t-13 -15t-17 -4q-47 0 -67 50q-8 21 -8 70q0 31 14 98q14 70 33 102t47 32q22 0 38 -17t16 -39zM83 -241q-12 0 -12 14q0 5 5 14.5t14.5 35.5t17.5 64q5 25 8.5 36.5t15 22.5t30.5 11
q24 0 39.5 -15.5t15.5 -42.5q0 -43 -49 -91.5t-85 -48.5z" />
    <glyph glyph-name="Ncaron" unicode="&#x147;" horiz-adv-x="856" 
d="M988 639q0 -50 -39 -114t-103.5 -159.5t-103.5 -181.5q17 -51 17 -92q0 -48 -28 -82t-67 -34q-52 0 -52 67q0 24 7 49q-4 35 -20.5 81.5t-46.5 117.5t-44 107q-19 -67 -41 -127t-56.5 -125.5t-72.5 -112t-90 -76.5t-109 -30q-79 0 -121 37t-42 94q0 47 29.5 77t67.5 30
q30 0 51 -14.5t21 -34.5q0 -3 -15 -20t-15 -41q0 -25 17 -38.5t44 -13.5q53 0 103.5 51t88.5 131.5t64.5 158t43.5 150.5q-15 62 -15 109q0 45 22.5 77.5t52.5 32.5q59 0 59 -69q0 -25 -15 -73q16 -56 71 -174t66 -145l52 97.5l49 91.5t29.5 73.5t13.5 77.5q0 39 -19.5 64
t-44.5 31q-13 3 -13 10q0 19 27 37.5t64 18.5q44 0 78.5 -27.5t34.5 -86.5zM874 881q16 0 16 -13q0 -4 -5 -10t-14 -13t-12 -10q-41 -35 -84 -87q-12 -14 -17 -17.5t-17 -3.5q-43 0 -59 31q-3 5 -13 31t-14 35l-11.5 22l-7.5 13.5t-3.5 7.5t-1.5 9q0 13 18 13t45.5 -19
t46.5 -46q34 23 76 40t57 17z" />
    <glyph glyph-name="ncaron" unicode="&#x148;" horiz-adv-x="435" 
d="M153 287q0 -11 -22 -66.5t-29 -110.5q27 62 61.5 119t82.5 103t89 46q24 0 42.5 -17.5t18.5 -52.5q0 -44 -32.5 -114t-32.5 -89q0 -24 17 -24q39 0 109 100q6 9 15 9q13 0 13 -15q0 -8 -5 -17q-52 -94 -95 -130.5t-84 -36.5q-36 0 -59 24.5t-23 63.5t26 101.5t26 76.5
q0 12 -10 12q-19 0 -56.5 -55.5t-63.5 -123.5q-4 -11 -11 -32t-10.5 -29t-9.5 -19t-13 -15t-17 -4q-47 0 -67 50q-8 21 -8 70q0 31 14 98q14 70 33 102t47 32q22 0 38 -17t16 -39zM408 601q12 0 12 -10q0 -7 -18 -25q-42 -43 -81 -111q-7 -12 -10.5 -17t-9.5 -9.5t-13 -4.5
q-33 0 -40 37q-12 71 -26 103q-11 26 -11 27q0 10 13 10q15 0 37 -17.5t39 -43.5q23 23 57.5 42t50.5 19z" />
    <glyph glyph-name="Omacron" unicode="&#x14c;" horiz-adv-x="760" 
d="M625 325q0 97 -46 160.5t-138 72.5q-21 2 -21 14q0 16 28.5 29t69.5 13q99 0 163.5 -75.5t64.5 -192.5q0 -107 -54 -209t-153.5 -169t-216.5 -67q-81 0 -148 32t-110.5 102.5t-43.5 170.5q0 133 73.5 250t186 183t228.5 66q62 0 107 -18.5t45 -45.5q0 -14 -11 -14
q-1 0 -35.5 9t-75.5 9q-99 0 -183 -62.5t-131 -160.5t-47 -205q0 -113 52 -178t131 -65q110 0 187.5 102t77.5 249zM330 756q0 15 18.5 32t47.5 27q69 25 200 25q80 0 80 -31q0 -26 -17 -47.5t-33 -21.5q-2 0 -4 0.5t-7 2t-11 2.5q-60 10 -142 10q-46 0 -82 -5t-37 -5
q-13 0 -13 11z" />
    <glyph glyph-name="omacron" unicode="&#x14d;" horiz-adv-x="371" 
d="M478 257q-16 -23 -54.5 -45.5t-84.5 -31.5q-19 -79 -75 -134t-132 -55q-63 0 -98.5 39t-35.5 98q0 72 47.5 133.5t97.5 79.5q10 27 34.5 43t53.5 16q48 0 82 -42.5t34 -113.5q0 -4 -0.5 -12t-0.5 -12q62 13 113 60q9 8 16 8q11 0 11 -12q0 -8 -8 -19zM171 64
q35 0 61.5 32t35.5 80q-49 6 -83.5 33t-44.5 65q-37 -49 -37 -115q0 -41 18 -68t50 -27zM206 276q0 -21 18 -37t49 -21v5q0 38 -12 60t-30 22q-10 0 -17.5 -7.5t-7.5 -21.5zM119 446q0 13 16 27.5t41 23.5q58 22 157 22q69 0 69 -27q0 -23 -15 -41.5t-28 -18.5
q-2 0 -7.5 1.5t-11.5 2.5q-48 9 -115 9q-39 0 -67 -5l-28 -4q-11 0 -11 10z" />
    <glyph glyph-name="Obreve" unicode="&#x14e;" horiz-adv-x="760" 
d="M625 325q0 97 -46 160.5t-138 72.5q-21 2 -21 14q0 16 28.5 29t69.5 13q99 0 163.5 -75.5t64.5 -192.5q0 -107 -54 -209t-153.5 -169t-216.5 -67q-81 0 -148 32t-110.5 102.5t-43.5 170.5q0 133 73.5 250t186 183t228.5 66q62 0 107 -18.5t45 -45.5q0 -14 -11 -14
q-1 0 -35.5 9t-75.5 9q-99 0 -183 -62.5t-131 -160.5t-47 -205q0 -113 52 -178t131 -65q110 0 187.5 102t77.5 249zM446 882q0 -23 16.5 -46t44.5 -23q37 0 61.5 20t35.5 40t15 20q19 0 19 -32q0 -39 -45 -83.5t-115 -44.5q-48 0 -79 25t-31 60q0 29 21 53.5t45 24.5
q12 0 12 -14z" />
    <glyph glyph-name="obreve" unicode="&#x14f;" horiz-adv-x="371" 
d="M478 257q-16 -23 -54.5 -45.5t-84.5 -31.5q-19 -79 -75 -134t-132 -55q-63 0 -98.5 39t-35.5 98q0 72 47.5 133.5t97.5 79.5q10 27 34.5 43t53.5 16q48 0 82 -42.5t34 -113.5q0 -4 -0.5 -12t-0.5 -12q62 13 113 60q9 8 16 8q11 0 11 -12q0 -8 -8 -19zM171 64
q35 0 61.5 32t35.5 80q-49 6 -83.5 33t-44.5 65q-37 -49 -37 -115q0 -41 18 -68t50 -27zM206 276q0 -21 18 -37t49 -21v5q0 38 -12 60t-30 22q-10 0 -17.5 -7.5t-7.5 -21.5zM220 564q0 -69 52 -69q47 0 77 57q2 3 3.5 7t2.5 6t2.5 4.5t3 3.5t3.5 2t4 1q14 0 14 -23
q0 -40 -38.5 -86.5t-101.5 -46.5q-47 0 -72 26t-25 62q0 28 20 49.5t42 21.5q13 0 13 -15z" />
    <glyph glyph-name="Ohungarumlaut" unicode="&#x150;" horiz-adv-x="760" 
d="M625 325q0 97 -46 160.5t-138 72.5q-21 2 -21 14q0 16 28.5 29t69.5 13q99 0 163.5 -75.5t64.5 -192.5q0 -107 -54 -209t-153.5 -169t-216.5 -67q-81 0 -148 32t-110.5 102.5t-43.5 170.5q0 133 73.5 250t186 183t228.5 66q62 0 107 -18.5t45 -45.5q0 -14 -11 -14
q-1 0 -35.5 9t-75.5 9q-99 0 -183 -62.5t-131 -160.5t-47 -205q0 -113 52 -178t131 -65q110 0 187.5 102t77.5 249zM586 864q0 -36 -64.5 -80.5t-104.5 -44.5q-22 0 -22 14q0 3 2 6t7 8.5t12 12.5t18.5 21.5t24.5 33.5q16 23 26 43t12.5 28t7 12t13.5 4q19 0 43.5 -17
t24.5 -41zM726 854q0 -36 -64.5 -80.5t-104.5 -44.5q-22 0 -22 14q0 3 2 6t7 8.5t12 12.5t18.5 21.5t24.5 33.5q16 23 26 43t12.5 28t7 12t13.5 4q19 0 43.5 -17t24.5 -41z" />
    <glyph glyph-name="ohungarumlaut" unicode="&#x151;" horiz-adv-x="371" 
d="M478 257q-16 -23 -54.5 -45.5t-84.5 -31.5q-19 -79 -75 -134t-132 -55q-63 0 -98.5 39t-35.5 98q0 72 47.5 133.5t97.5 79.5q10 27 34.5 43t53.5 16q48 0 82 -42.5t34 -113.5q0 -4 -0.5 -12t-0.5 -12q62 13 113 60q9 8 16 8q11 0 11 -12q0 -8 -8 -19zM171 64
q35 0 61.5 32t35.5 80q-49 6 -83.5 33t-44.5 65q-37 -49 -37 -115q0 -41 18 -68t50 -27zM206 276q0 -21 18 -37t49 -21v5q0 38 -12 60t-30 22q-10 0 -17.5 -7.5t-7.5 -21.5zM301 550q0 -36 -51.5 -81t-75.5 -45q-12 0 -12 9q0 3 15 28q25 42 45 103q1 3 2.5 8t2.5 7.5t2 6
t2 5t2.5 4t2.5 3l3 1.5t3.5 1.5t4.5 0.5q21 0 37.5 -15t16.5 -36zM421 550q0 -36 -56.5 -83t-81.5 -47q-12 0 -12 9q0 7 12 22q39 49 60 113q1 3 2.5 8t2.5 7.5t2 6t2 5t2.5 4t2.5 3l3 1.5t3.5 1.5t4.5 0.5q21 0 37 -15t16 -36z" />
    <glyph glyph-name="OE" unicode="&#x152;" horiz-adv-x="1163" 
d="M1069 483q-91 0 -187 36q-2 -20 -2 -30q0 -58 31 -92q35 6 56 6q36 0 59 -14.5t23 -37.5q0 -24 -26.5 -38t-69.5 -14q-49 0 -93 19q-53 -22 -84.5 -65t-31.5 -95q0 -69 45 -108.5t116 -39.5q80 0 155.5 47t124.5 124q6 9 14 9q13 0 13 -16q0 -8 -4 -16
q-57 -109 -159 -181t-221 -72q-76 0 -138 29.5t-93 84.5q-120 -118 -275 -118q-128 0 -214.5 79.5t-86.5 223.5q0 137 72 253t185 180.5t235 64.5q53 0 110 -14t90.5 -28t90.5 -41q89 92 246 92q81 0 137.5 -28.5t56.5 -81.5q0 -57 -52 -87.5t-123 -30.5zM532 603
q64 0 112 -40t70 -97.5t22 -119.5v-5q28 14 55 24q-45 50 -45 116q0 46 23 89l-79.5 37.5t-72 24.5t-83.5 12q-105 0 -188.5 -64.5t-126 -161t-42.5 -201.5q0 -103 49 -173t134 -70q65 0 119.5 35.5t93.5 95.5v11q0 83 58 148q4 34 4 52q0 92 -53 150.5t-130 63.5
q-17 1 -17 14q0 23 29.5 41t67.5 18zM1036 658q-43 0 -79 -22.5t-56 -60.5q73 -30 132 -30q42 0 65.5 16t23.5 41q0 27 -24.5 41.5t-61.5 14.5z" />
    <glyph glyph-name="oe" unicode="&#x153;" horiz-adv-x="590" 
d="M444 71q91 0 168 110q6 9 15 9q13 0 13 -15q0 -7 -5 -17q-35 -63 -80.5 -102.5t-82 -52t-74.5 -12.5q-39 0 -70.5 20t-46.5 58q-56 -78 -149 -78q-63 0 -98.5 39t-35.5 98q0 74 49.5 136t99.5 78q13 23 35 37.5t46 14.5q33 0 61.5 -24t40.5 -68q61 76 142 76
q46 0 72.5 -24.5t26.5 -59.5q0 -52 -55 -92t-144 -50q7 -81 72 -81zM171 64q29 0 55.5 23.5t38.5 67.5q-54 14 -86.5 44.5t-40.5 72.5q-35 -49 -35 -113q0 -41 18 -68t50 -27zM461 330q-27 0 -55.5 -44t-33.5 -94q45 10 77.5 40.5t32.5 67.5q0 30 -21 30zM206 276
q0 -24 17.5 -46t49.5 -33q1 8 1 26q0 38 -12.5 60t-30.5 22q-10 0 -17.5 -7.5t-7.5 -21.5z" />
    <glyph glyph-name="Racute" unicode="&#x154;" horiz-adv-x="956" 
d="M946 489q0 -64 -58 -118.5t-160 -90.5q13 -24 33 -84.5t40.5 -91t51.5 -30.5q50 0 125 107q6 9 15 9q13 0 13 -15q0 -8 -5 -17q-116 -209 -229 -209q-29 0 -51.5 11.5t-36.5 34t-23.5 46t-14.5 57.5t-7.5 58.5t-4.5 58.5t-3 48q-22 0 -37 13t-15 30q0 19 17 30.5t43 11.5
q28 0 51 -18q49 16 85 57.5t36 100.5q0 73 -65.5 121t-178.5 48q-143 0 -238.5 -69t-95.5 -158q0 -36 18 -56t50 -20q40 0 71 23q7 5 10 5q12 0 12 -21q0 -42 -40 -81t-107 -39q-64 0 -105.5 39t-41.5 108q0 128 135.5 225.5t346.5 97.5q164 0 264 -59.5t100 -162.5z
M215 -14q40 0 71 27t52 72t39 100.5l37.5 117t42.5 116.5t60 103t84 73q23 13 51 13q26 0 26 -12q0 -4 -2.5 -8t-7 -9t-13.5 -19t-19 -33q-21 -40 -43 -109t-38 -131t-46 -130t-66.5 -117t-99.5 -81t-145 -32q-80 0 -131.5 40.5t-51.5 96.5q0 47 28 74t67 27q29 0 51 -19
t22 -40q0 -3 -16.5 -20.5t-16.5 -43.5q0 -25 19 -40.5t46 -15.5zM678 743q-31 0 -31 16q0 4 2 6.5t8 7l14 10t23 18t32 29.5q20 19 33 36t17 24t8.5 11t11.5 4q16 0 38.5 -19.5t22.5 -43.5q0 -38 -67.5 -68.5t-111.5 -30.5z" />
    <glyph glyph-name="racute" unicode="&#x155;" horiz-adv-x="310" 
d="M-4 145q46 65 64 135q-32 32 -32 72q0 30 17 52t42 22q19 0 30 -16.5t11 -44.5q0 -19 -9 -52h12q53 0 82 22q14 11 24 11q13 0 26 -14t13 -32q0 -17 -20 -49q-56 -90 -56 -142q0 -28 23 -28q39 0 109 100q6 9 15 9q13 0 13 -15q0 -8 -5 -17q-53 -95 -96.5 -131t-88.5 -36
q-38 0 -62.5 24t-24.5 63q0 62 73 151q-33 7 -63 25q-19 -45 -55 -109q-11 -18 -36 -18q-11 0 -11 7q0 6 5 11zM326 543q0 -36 -55.5 -77.5t-81.5 -41.5q-12 0 -12 9q0 4 11 20q28 36 61 111q4 8 6.5 16.5t4 12t4.5 6t8 2.5q20 0 37 -18.5t17 -39.5z" />
    <glyph glyph-name="uni0156" unicode="&#x156;" horiz-adv-x="956" 
d="M946 489q0 -64 -58 -118.5t-160 -90.5q13 -24 33 -84.5t40.5 -91t51.5 -30.5q50 0 125 107q6 9 15 9q13 0 13 -15q0 -8 -5 -17q-116 -209 -229 -209q-29 0 -51.5 11.5t-36.5 34t-23.5 46t-14.5 57.5t-7.5 58.5t-4.5 58.5t-3 48q-22 0 -37 13t-15 30q0 19 17 30.5t43 11.5
q28 0 51 -18q49 16 85 57.5t36 100.5q0 73 -65.5 121t-178.5 48q-143 0 -238.5 -69t-95.5 -158q0 -36 18 -56t50 -20q40 0 71 23q7 5 10 5q12 0 12 -21q0 -42 -40 -81t-107 -39q-64 0 -105.5 39t-41.5 108q0 128 135.5 225.5t346.5 97.5q164 0 264 -59.5t100 -162.5z
M215 -14q40 0 71 27t52 72t39 100.5l37.5 117t42.5 116.5t60 103t84 73q23 13 51 13q26 0 26 -12q0 -4 -2.5 -8t-7 -9t-13.5 -19t-19 -33q-21 -40 -43 -109t-38 -131t-46 -130t-66.5 -117t-99.5 -81t-145 -32q-80 0 -131.5 40.5t-51.5 96.5q0 47 28 74t67 27q29 0 51 -19
t22 -40q0 -3 -16.5 -20.5t-16.5 -43.5q0 -25 19 -40.5t46 -15.5zM396 -289q-17 0 -17 15q0 5 3.5 12t8.5 16t14.5 33t19.5 57q19 63 73 63q25 0 43 -17t18 -42q0 -47 -58 -92t-105 -45z" />
    <glyph glyph-name="uni0157" unicode="&#x157;" horiz-adv-x="310" 
d="M-4 145q46 65 64 135q-32 32 -32 72q0 30 17 52t42 22q19 0 30 -16.5t11 -44.5q0 -19 -9 -52h12q53 0 82 22q14 11 24 11q13 0 26 -14t13 -32q0 -17 -20 -49q-56 -90 -56 -142q0 -28 23 -28q39 0 109 100q6 9 15 9q13 0 13 -15q0 -8 -5 -17q-53 -95 -96.5 -131t-88.5 -36
q-38 0 -62.5 24t-24.5 63q0 62 73 151q-33 7 -63 25q-19 -45 -55 -109q-11 -18 -36 -18q-11 0 -11 7q0 6 5 11zM41 -241q-12 0 -12 14q0 5 5 14.5t14.5 35.5t17.5 64q5 25 8.5 36.5t15 22.5t30.5 11q24 0 39.5 -15.5t15.5 -42.5q0 -43 -49 -91.5t-85 -48.5z" />
    <glyph glyph-name="Rcaron" unicode="&#x158;" horiz-adv-x="956" 
d="M946 489q0 -64 -58 -118.5t-160 -90.5q13 -24 33 -84.5t40.5 -91t51.5 -30.5q50 0 125 107q6 9 15 9q13 0 13 -15q0 -8 -5 -17q-116 -209 -229 -209q-29 0 -51.5 11.5t-36.5 34t-23.5 46t-14.5 57.5t-7.5 58.5t-4.5 58.5t-3 48q-22 0 -37 13t-15 30q0 19 17 30.5t43 11.5
q28 0 51 -18q49 16 85 57.5t36 100.5q0 73 -65.5 121t-178.5 48q-143 0 -238.5 -69t-95.5 -158q0 -36 18 -56t50 -20q40 0 71 23q7 5 10 5q12 0 12 -21q0 -42 -40 -81t-107 -39q-64 0 -105.5 39t-41.5 108q0 128 135.5 225.5t346.5 97.5q164 0 264 -59.5t100 -162.5z
M215 -14q40 0 71 27t52 72t39 100.5l37.5 117t42.5 116.5t60 103t84 73q23 13 51 13q26 0 26 -12q0 -4 -2.5 -8t-7 -9t-13.5 -19t-19 -33q-21 -40 -43 -109t-38 -131t-46 -130t-66.5 -117t-99.5 -81t-145 -32q-80 0 -131.5 40.5t-51.5 96.5q0 47 28 74t67 27q29 0 51 -19
t22 -40q0 -3 -16.5 -20.5t-16.5 -43.5q0 -25 19 -40.5t46 -15.5zM840 881q16 0 16 -13q0 -4 -5 -10t-14 -13t-12 -10q-41 -35 -84 -87q-12 -14 -17 -17.5t-17 -3.5q-43 0 -59 31q-3 5 -13 31t-14 35l-11.5 22l-7.5 13.5t-3.5 7.5t-1.5 9q0 13 18 13t45.5 -19t46.5 -46
q34 23 76 40t57 17z" />
    <glyph glyph-name="rcaron" unicode="&#x159;" horiz-adv-x="310" 
d="M-4 145q46 65 64 135q-32 32 -32 72q0 30 17 52t42 22q19 0 30 -16.5t11 -44.5q0 -19 -9 -52h12q53 0 82 22q14 11 24 11q13 0 26 -14t13 -32q0 -17 -20 -49q-56 -90 -56 -142q0 -28 23 -28q39 0 109 100q6 9 15 9q13 0 13 -15q0 -8 -5 -17q-53 -95 -96.5 -131t-88.5 -36
q-38 0 -62.5 24t-24.5 63q0 62 73 151q-33 7 -63 25q-19 -45 -55 -109q-11 -18 -36 -18q-11 0 -11 7q0 6 5 11zM338 601q12 0 12 -10q0 -7 -18 -25q-42 -43 -81 -111q-7 -12 -10.5 -17t-9.5 -9.5t-13 -4.5q-33 0 -40 37q-12 71 -26 103q-11 26 -11 27q0 10 13 10
q15 0 37 -17.5t39 -43.5q23 23 57.5 42t50.5 19z" />
    <glyph glyph-name="Sacute" unicode="&#x15a;" horiz-adv-x="638" 
d="M298 528q0 -42 31 -76.5t75.5 -61.5t88.5 -56.5t75 -74.5t31 -101q0 -108 -94 -183.5t-233 -75.5q-120 0 -194.5 58.5t-74.5 137.5q0 51 31.5 87t79.5 36q28 0 48.5 -15t20.5 -30q0 -5 -16 -31.5t-16 -57.5q0 -52 39.5 -89.5t107.5 -37.5q67 0 112.5 40.5t45.5 102.5
q0 46 -31 84.5t-75 67l-88 58.5t-75 73.5t-31 96.5q0 97 90.5 164t216.5 67q81 0 137 -31t56 -90q0 -53 -42 -81.5t-92 -28.5q-34 0 -52.5 10.5t-18.5 24.5q0 8 8 10q63 19 63 67q0 28 -22 43.5t-56 15.5q-55 0 -100.5 -33.5t-45.5 -89.5zM417 743q-31 0 -31 16q0 4 2 6.5
t8 7l14 10t23 18t32 29.5q20 19 33 36t17 24t8.5 11t11.5 4q16 0 38.5 -19.5t22.5 -43.5q0 -38 -67.5 -68.5t-111.5 -30.5z" />
    <glyph glyph-name="sacute" unicode="&#x15b;" horiz-adv-x="285" 
d="M-43 87q0 49 43.5 84.5t111.5 43.5q-3 7 -11 24t-11.5 25.5t-8.5 22t-7 24.5t-2 21q0 36 24.5 66.5t60.5 30.5q24 0 35.5 -14.5t11.5 -35.5q0 -45 -37 -85q8 -13 26 -36t25 -34q89 8 160 61q10 7 18 7q11 0 11 -10q0 -8 -9 -20q-19 -24 -64 -47t-95 -33q7 -23 7 -43
q0 -62 -47 -105.5t-120 -43.5q-59 0 -90.5 28t-31.5 69zM140 119q0 24 -10 52q-41 -7 -63.5 -30t-22.5 -51q0 -20 11 -33t29 -13q24 0 40 21t16 54zM267 564q0 -36 -55.5 -77.5t-81.5 -41.5q-12 0 -12 9q0 4 11 20q28 36 61 111q4 8 6.5 16.5t4 12t4.5 6t8 2.5
q20 0 37 -18.5t17 -39.5z" />
    <glyph glyph-name="Scircumflex" unicode="&#x15c;" horiz-adv-x="638" 
d="M298 528q0 -42 31 -76.5t75.5 -61.5t88.5 -56.5t75 -74.5t31 -101q0 -108 -94 -183.5t-233 -75.5q-120 0 -194.5 58.5t-74.5 137.5q0 51 31.5 87t79.5 36q28 0 48.5 -15t20.5 -30q0 -5 -16 -31.5t-16 -57.5q0 -52 39.5 -89.5t107.5 -37.5q67 0 112.5 40.5t45.5 102.5
q0 46 -31 84.5t-75 67l-88 58.5t-75 73.5t-31 96.5q0 97 90.5 164t216.5 67q81 0 137 -31t56 -90q0 -53 -42 -81.5t-92 -28.5q-34 0 -52.5 10.5t-18.5 24.5q0 8 8 10q63 19 63 67q0 28 -22 43.5t-56 15.5q-55 0 -100.5 -33.5t-45.5 -89.5zM360 735q-16 0 -16 13q0 4 5 9.5
t14 12.5t12 10q42 36 85 88q12 14 17 17.5t17 3.5t32.5 -10.5t28.5 -29.5l6 -17q6 -18 14 -37q7 -16 15 -27.5t11 -16.5t3 -11q0 -13 -18 -13q-25 0 -56 20t-51 48q-89 -60 -119 -60z" />
    <glyph glyph-name="scircumflex" unicode="&#x15d;" horiz-adv-x="285" 
d="M-43 87q0 49 43.5 84.5t111.5 43.5q-3 7 -11 24t-11.5 25.5t-8.5 22t-7 24.5t-2 21q0 36 24.5 66.5t60.5 30.5q24 0 35.5 -14.5t11.5 -35.5q0 -45 -37 -85q8 -13 26 -36t25 -34q89 8 160 61q10 7 18 7q11 0 11 -10q0 -8 -9 -20q-19 -24 -64 -47t-95 -33q7 -23 7 -43
q0 -62 -47 -105.5t-120 -43.5q-59 0 -90.5 28t-31.5 69zM140 119q0 24 -10 52q-41 -7 -63.5 -30t-22.5 -51q0 -20 11 -33t29 -13q24 0 40 21t16 54zM73 431q-12 0 -12 10q0 9 18 25q38 37 81 111q18 31 35 31q33 0 38 -37q8 -62 26 -103q11 -26 11 -27q0 -10 -13 -10
q-15 0 -38 18t-40 43q-23 -23 -57 -42t-49 -19z" />
    <glyph glyph-name="Scedilla" unicode="&#x15e;" horiz-adv-x="638" 
d="M298 528q0 -42 31 -76.5t75.5 -61.5t88.5 -56.5t75 -74.5t31 -101q0 -108 -94 -183.5t-233 -75.5h-15q-8 -10 -8 -23t31.5 -43.5t31.5 -54.5q0 -37 -40.5 -63t-97.5 -26q-25 0 -25 13q0 10 14 18q11 6 21.5 21.5t10.5 29.5q0 19 -5 44t-5 41q0 26 20 49q-93 15 -147.5 69
t-54.5 121q0 51 31.5 87t79.5 36q28 0 48.5 -15t20.5 -30q0 -5 -16 -31.5t-16 -57.5q0 -52 39.5 -89.5t107.5 -37.5q67 0 112.5 40.5t45.5 102.5q0 46 -31 84.5t-75 67l-88 58.5t-75 73.5t-31 96.5q0 97 90.5 164t216.5 67q81 0 137 -31t56 -90q0 -53 -42 -81.5t-92 -28.5
q-34 0 -52.5 10.5t-18.5 24.5q0 8 8 10q63 19 63 67q0 28 -22 43.5t-56 15.5q-55 0 -100.5 -33.5t-45.5 -89.5z" />
    <glyph glyph-name="scedilla" unicode="&#x15f;" horiz-adv-x="285" 
d="M-43 87q0 49 43.5 84.5t111.5 43.5q-3 7 -11 24t-11.5 25.5t-8.5 22t-7 24.5t-2 21q0 36 24.5 66.5t60.5 30.5q24 0 35.5 -14.5t11.5 -35.5q0 -45 -37 -85q8 -13 26 -36t25 -34q89 8 160 61q10 7 18 7q11 0 11 -10q0 -8 -9 -20q-19 -24 -64 -47t-95 -33q7 -23 7 -43
q0 -62 -47 -105.5t-120 -43.5q-4 0 -10 0.5t-9 0.5q-5 -8 -5 -19q0 -14 23 -45t23 -57q0 -35 -37.5 -61.5t-69.5 -26.5q-19 0 -19 12q0 7 13 15q21 14 21 38q0 20 -8 48t-8 46q0 29 25 59q-61 25 -61 87zM140 119q0 24 -10 52q-41 -7 -63.5 -30t-22.5 -51q0 -20 11 -33
t29 -13q24 0 40 21t16 54z" />
    <glyph glyph-name="Scaron" unicode="&#x160;" horiz-adv-x="638" 
d="M298 528q0 -42 31 -76.5t75.5 -61.5t88.5 -56.5t75 -74.5t31 -101q0 -108 -94 -183.5t-233 -75.5q-120 0 -194.5 58.5t-74.5 137.5q0 51 31.5 87t79.5 36q28 0 48.5 -15t20.5 -30q0 -5 -16 -31.5t-16 -57.5q0 -52 39.5 -89.5t107.5 -37.5q67 0 112.5 40.5t45.5 102.5
q0 46 -31 84.5t-75 67l-88 58.5t-75 73.5t-31 96.5q0 97 90.5 164t216.5 67q81 0 137 -31t56 -90q0 -53 -42 -81.5t-92 -28.5q-34 0 -52.5 10.5t-18.5 24.5q0 8 8 10q63 19 63 67q0 28 -22 43.5t-56 15.5q-55 0 -100.5 -33.5t-45.5 -89.5zM621 881q16 0 16 -13q0 -4 -5 -10
t-14 -13t-12 -10q-41 -35 -84 -87q-12 -14 -17 -17.5t-17 -3.5q-43 0 -59 31q-3 5 -13 31t-14 35l-11.5 22l-7.5 13.5t-3.5 7.5t-1.5 9q0 13 18 13t45.5 -19t46.5 -46q34 23 76 40t57 17z" />
    <glyph glyph-name="scaron" unicode="&#x161;" horiz-adv-x="285" 
d="M-43 87q0 49 43.5 84.5t111.5 43.5q-3 7 -11 24t-11.5 25.5t-8.5 22t-7 24.5t-2 21q0 36 24.5 66.5t60.5 30.5q24 0 35.5 -14.5t11.5 -35.5q0 -45 -37 -85q8 -13 26 -36t25 -34q89 8 160 61q10 7 18 7q11 0 11 -10q0 -8 -9 -20q-19 -24 -64 -47t-95 -33q7 -23 7 -43
q0 -62 -47 -105.5t-120 -43.5q-59 0 -90.5 28t-31.5 69zM140 119q0 24 -10 52q-41 -7 -63.5 -30t-22.5 -51q0 -20 11 -33t29 -13q24 0 40 21t16 54zM304 629q12 0 12 -10q0 -7 -18 -25q-42 -43 -81 -111q-7 -12 -10.5 -17t-9.5 -9.5t-13 -4.5q-33 0 -40 37q-12 71 -26 103
q-11 26 -11 27q0 10 13 10q15 0 37 -17.5t39 -43.5q23 23 57.5 42t50.5 19z" />
    <glyph glyph-name="uni0162" unicode="&#x162;" horiz-adv-x="645" 
d="M185 -144q0 44 49 74q-64 9 -100.5 46.5t-36.5 87.5q0 47 29.5 76t67.5 29q29 0 51 -19t22 -40q0 -3 -17.5 -22.5t-17.5 -45.5q0 -25 16.5 -40.5t42.5 -15.5q45 0 76 43.5t51.5 115t40 148.5t51.5 159.5t75 132.5q-159 53 -220 53q-70 0 -113.5 -41.5t-43.5 -99.5
q0 -44 26 -73.5t71 -29.5q46 0 78 24q7 5 11 5q14 0 14 -24q0 -42 -44 -86t-112 -44q-66 0 -115.5 43.5t-49.5 120.5q0 110 97.5 191.5t232.5 81.5q21 0 46 -2t56 -7.5l52 -9t60 -11t53 -10.5q66 37 134 37q55 0 84.5 -22.5t29.5 -56.5q0 -38 -36 -64t-97 -26q-54 0 -134 25
q-21 -43 -40 -120l-36 -148t-42 -143.5t-70 -127t-109 -77.5q-5 -2 -31 -8.5t-42 -12t-31 -18t-15 -28.5q0 -13 31.5 -43.5t31.5 -54.5q0 -37 -40.5 -63t-97.5 -26q-25 0 -25 13q0 10 14 18q11 6 21.5 21.5t10.5 29.5q0 19 -5 44t-5 41z" />
    <glyph glyph-name="uni0163" unicode="&#x163;" horiz-adv-x="261" 
d="M34 -59q0 31 27 61q-48 29 -48 109q0 48 11 100q7 35 15 63q-41 19 -41 52q0 13 8 13q1 0 15.5 -4.5t31.5 -4.5h2q30 97 64 162q26 49 47 71.5t46 22.5q19 0 36.5 -14t17.5 -37q0 -5 -6 -15t-17 -26.5t-18 -28.5q-32 -55 -57 -123q33 9 51 17q19 9 31.5 18.5t17.5 14.5
t8 5q9 0 17 -10.5t8 -29.5q0 -90 -158 -95q-17 -68 -17 -122q0 -68 34 -68q47 0 123 109q6 9 15 9q13 0 13 -15q0 -8 -5 -17q-52 -94 -100.5 -130.5t-99.5 -36.5q-10 0 -10 -13q0 -17 23 -50t23 -58q0 -35 -37.5 -61.5t-69.5 -26.5q-19 0 -19 12q0 7 13 15q21 14 21 38
q0 20 -8 48t-8 46z" />
    <glyph glyph-name="Tcaron" unicode="&#x164;" horiz-adv-x="645" 
d="M818 703q55 0 84.5 -22.5t29.5 -56.5q0 -38 -36 -64t-97 -26q-54 0 -134 25q-20 -41 -38.5 -112t-31.5 -137t-38.5 -138t-58 -124t-91 -86.5t-137.5 -34.5t-126 40t-47 97q0 47 29.5 76t67.5 29q29 0 51 -19t22 -40q0 -3 -17.5 -22.5t-17.5 -45.5q0 -25 16.5 -40.5
t42.5 -15.5q45 0 76 43.5t51.5 115t40 148.5t51.5 159.5t75 132.5q-159 53 -220 53q-70 0 -113.5 -41.5t-43.5 -99.5q0 -44 26 -73.5t71 -29.5q46 0 78 24q7 5 11 5q14 0 14 -24q0 -42 -44 -86t-112 -44q-66 0 -115.5 43.5t-49.5 120.5q0 110 97.5 191.5t232.5 81.5
q21 0 46 -2t56 -7.5l52 -9t60 -11t53 -10.5q66 37 134 37zM829 881q16 0 16 -13q0 -4 -5 -10t-14 -13t-12 -10q-41 -35 -84 -87q-12 -14 -17 -17.5t-17 -3.5q-43 0 -59 31q-3 5 -13 31t-14 35l-11.5 22l-7.5 13.5t-3.5 7.5t-1.5 9q0 13 18 13t45.5 -19t46.5 -46q34 23 76 40
t57 17z" />
    <glyph glyph-name="tcaron" unicode="&#x165;" horiz-adv-x="261" 
d="M266 535q0 -5 -6 -15t-17 -26.5t-18 -28.5q-32 -55 -57 -123q33 9 51 17q19 9 31.5 18.5t17.5 14.5t8 5q9 0 17 -10.5t8 -29.5q0 -90 -158 -95q-17 -68 -17 -122q0 -68 34 -68q47 0 123 109q6 9 15 9q13 0 13 -15q0 -8 -5 -17q-52 -94 -100.5 -130.5t-99.5 -36.5
q-44 0 -68.5 33t-24.5 87q0 48 11 100q7 35 15 63q-41 19 -41 52q0 13 8 13q1 0 15.5 -4.5t31.5 -4.5h2q30 97 64 162q26 49 47 71.5t46 22.5q19 0 36.5 -14t17.5 -37zM446 623q0 -37 -56.5 -98t-79.5 -61q-12 0 -12 9q0 8 9 21q31 43 56 150q6 22 10.5 29.5t15.5 7.5
q20 0 38.5 -18.5t18.5 -39.5z" />
    <glyph glyph-name="Tbar" unicode="&#x166;" horiz-adv-x="645" 
d="M258 351q-70 0 -109 36.5t-39 92.5q0 88 81.5 157t225.5 69q21 0 46 -2t56 -7.5l52 -9t60 -11t53 -10.5q66 37 134 37q55 0 84.5 -22.5t29.5 -56.5q0 -38 -36 -64t-97 -26q-54 0 -134 25q-16 -32 -26 -68q61 7 122 7q51 0 79.5 -7t35.5 -15t7 -20q0 -23 -15.5 -45
t-30.5 -22q-3 0 -14 5q-23 10 -70 18t-90 8q-8 0 -22.5 -0.5t-21.5 -0.5l-10 -45l-17 -77.5t-19 -75.5t-25.5 -76.5t-32 -67.5t-42.5 -62t-52.5 -45.5t-67.5 -32.5t-83 -10q-79 0 -126 40t-47 97q0 47 29.5 76t67.5 29q29 0 51 -19t22 -40q0 -3 -17.5 -22.5t-17.5 -45.5
q0 -25 16.5 -40.5t42.5 -15.5q33 0 58.5 23t44.5 69.5t32 91.5t31 115t33 115q-20 -5 -69 -20.5t-84 -22t-79 -6.5zM328 435q24 0 49.5 3.5t42 7t49 12t47.5 11.5q30 71 69 116q-159 53 -220 53q-67 0 -103 -32.5t-36 -76.5q0 -38 27.5 -66t74.5 -28z" />
    <glyph glyph-name="tbar" unicode="&#x167;" horiz-adv-x="261" 
d="M266 535q0 -5 -6 -15t-17 -26.5t-18 -28.5q-32 -55 -57 -123q33 9 51 17q19 9 31.5 18.5t17.5 14.5t8 5q9 0 17 -10.5t8 -29.5q0 -90 -158 -95q-7 -29 -11 -49q25 4 45.5 11.5t30.5 13.5l10 6q7 0 13 -7t6 -20q0 -33 -26.5 -54.5t-84.5 -21.5v-1q0 -68 34 -68
q47 0 123 109q6 9 15 9q13 0 13 -15q0 -8 -5 -17q-52 -94 -100.5 -130.5t-99.5 -36.5q-44 0 -68.5 33t-24.5 87q0 29 2 47q-21 9 -34.5 24.5t-13.5 32.5q0 15 9 15q1 0 15.5 -6.5t29.5 -8.5l1 -1h3q9 42 14 60q-41 19 -41 52q0 13 8 13q1 0 15.5 -4.5t31.5 -4.5h2
q30 97 64 162q26 49 47 71.5t46 22.5q19 0 36.5 -14t17.5 -37z" />
    <glyph glyph-name="Utilde" unicode="&#x168;" horiz-adv-x="956" 
d="M736 750q-11 0 -11 21q0 40 28 68.5t68 28.5q26 0 66.5 -14t58.5 -14q37 0 55 23q11 14 18 14q12 0 12 -30q0 -41 -24 -76.5t-71 -35.5q-29 0 -73.5 27t-62.5 27t-31 -9.5t-21 -19.5t-12 -10zM681 701q31 0 50 -12t19 -35q0 -24 -22.5 -38.5t-58.5 -14.5q-18 0 -36 3
q-79 -69 -134.5 -192.5t-55.5 -225.5q0 -70 28.5 -111t81.5 -41q69 0 126 67v5q0 14 2 36q7 58 27.5 137.5t51.5 162t75 139t89 56.5q56 0 56 -84q0 -65 -52.5 -184.5t-121.5 -230.5q0 -77 34 -77q54 0 138 120q6 9 15 9q13 0 13 -15q0 -9 -5 -17q-111 -199 -227 -199
q-58 0 -83 67q-44 -53 -100 -83t-112 -30q-86 0 -134.5 66t-48.5 167q0 129 74 266t165 215q-82 21 -134 21q-78 0 -129.5 -35t-51.5 -87q0 -27 14.5 -43.5t37.5 -16.5q26 0 48 19q7 5 11 5q14 0 14 -25q0 -40 -38.5 -78.5t-96.5 -38.5q-55 0 -92 37t-37 98q0 93 87 155.5
t227 62.5q26 0 55 -3t47.5 -5.5t52 -8.5t45.5 -8q42 25 86 25z" />
    <glyph glyph-name="utilde" unicode="&#x169;" horiz-adv-x="446" 
d="M344 361q50 0 50 -60q0 -36 -23.5 -80.5t-49.5 -73.5q-1 -8 -1 -25q0 -44 31 -44q45 0 117 103q6 9 15 9q13 0 13 -15q0 -8 -5 -17q-93 -167 -194 -167q-57 0 -79 59q-55 -59 -121 -59q-46 0 -72 32t-26 81q0 75 34 160q46 114 91 114q26 0 41.5 -17t15.5 -43
q0 -14 -24 -56q-48 -86 -48 -140q0 -52 34 -52q32 0 67 33v1q0 68 37 160q39 97 97 97zM174 446q-9 0 -9 17q0 26 23 53t55 27q22 0 55.5 -13.5t48.5 -13.5q27 0 43 20q8 11 14 11q10 0 10 -24q0 -32 -23.5 -61t-62.5 -29q-24 0 -55.5 22.5t-45.5 22.5q-20 0 -35.5 -16
t-17.5 -16z" />
    <glyph glyph-name="Umacron" unicode="&#x16a;" horiz-adv-x="956" 
d="M681 701q31 0 50 -12t19 -35q0 -24 -22.5 -38.5t-58.5 -14.5q-18 0 -36 3q-79 -69 -134.5 -192.5t-55.5 -225.5q0 -70 28.5 -111t81.5 -41q69 0 126 67v5q0 14 2 36q7 58 27.5 137.5t51.5 162t75 139t89 56.5q56 0 56 -84q0 -65 -52.5 -184.5t-121.5 -230.5q0 -77 34 -77
q54 0 138 120q6 9 15 9q13 0 13 -15q0 -9 -5 -17q-111 -199 -227 -199q-58 0 -83 67q-44 -53 -100 -83t-112 -30q-86 0 -134.5 66t-48.5 167q0 129 74 266t165 215q-82 21 -134 21q-78 0 -129.5 -35t-51.5 -87q0 -27 14.5 -43.5t37.5 -16.5q26 0 48 19q7 5 11 5q14 0 14 -25
q0 -40 -38.5 -78.5t-96.5 -38.5q-55 0 -92 37t-37 98q0 93 87 155.5t227 62.5q26 0 55 -3t47.5 -5.5t52 -8.5t45.5 -8q42 25 86 25zM700 756q0 15 18.5 32t47.5 27q69 25 200 25q80 0 80 -31q0 -26 -17 -47.5t-33 -21.5q-2 0 -4 0.5t-7 2t-11 2.5q-60 10 -142 10
q-46 0 -82 -5t-37 -5q-13 0 -13 11z" />
    <glyph glyph-name="umacron" unicode="&#x16b;" horiz-adv-x="446" 
d="M344 361q50 0 50 -60q0 -36 -23.5 -80.5t-49.5 -73.5q-1 -8 -1 -25q0 -44 31 -44q45 0 117 103q6 9 15 9q13 0 13 -15q0 -8 -5 -17q-93 -167 -194 -167q-57 0 -79 59q-55 -59 -121 -59q-46 0 -72 32t-26 81q0 75 34 160q46 114 91 114q26 0 41.5 -17t15.5 -43
q0 -14 -24 -56q-48 -86 -48 -140q0 -52 34 -52q32 0 67 33v1q0 68 37 160q39 97 97 97zM136 446q0 13 16 27.5t41 23.5q58 22 157 22q69 0 69 -27q0 -23 -15 -41.5t-28 -18.5q-2 0 -7.5 1.5t-11.5 2.5q-48 9 -115 9q-40 0 -67 -4.5t-28 -4.5q-11 0 -11 10z" />
    <glyph glyph-name="Ubreve" unicode="&#x16c;" horiz-adv-x="956" 
d="M681 701q31 0 50 -12t19 -35q0 -24 -22.5 -38.5t-58.5 -14.5q-18 0 -36 3q-79 -69 -134.5 -192.5t-55.5 -225.5q0 -70 28.5 -111t81.5 -41q69 0 126 67v5q0 14 2 36q7 58 27.5 137.5t51.5 162t75 139t89 56.5q56 0 56 -84q0 -65 -52.5 -184.5t-121.5 -230.5q0 -77 34 -77
q54 0 138 120q6 9 15 9q13 0 13 -15q0 -9 -5 -17q-111 -199 -227 -199q-58 0 -83 67q-44 -53 -100 -83t-112 -30q-86 0 -134.5 66t-48.5 167q0 129 74 266t165 215q-82 21 -134 21q-78 0 -129.5 -35t-51.5 -87q0 -27 14.5 -43.5t37.5 -16.5q26 0 48 19q7 5 11 5q14 0 14 -25
q0 -40 -38.5 -78.5t-96.5 -38.5q-55 0 -92 37t-37 98q0 93 87 155.5t227 62.5q26 0 55 -3t47.5 -5.5t52 -8.5t45.5 -8q42 25 86 25zM828 848q0 -23 16.5 -46t44.5 -23q37 0 61.5 20t35.5 40t15 20q19 0 19 -32q0 -39 -45 -83.5t-115 -44.5q-48 0 -79 25t-31 60q0 29 21 53.5
t45 24.5q12 0 12 -14z" />
    <glyph glyph-name="ubreve" unicode="&#x16d;" horiz-adv-x="446" 
d="M344 361q50 0 50 -60q0 -36 -23.5 -80.5t-49.5 -73.5q-1 -8 -1 -25q0 -44 31 -44q45 0 117 103q6 9 15 9q13 0 13 -15q0 -8 -5 -17q-93 -167 -194 -167q-57 0 -79 59q-55 -59 -121 -59q-46 0 -72 32t-26 81q0 75 34 160q46 114 91 114q26 0 41.5 -17t15.5 -43
q0 -14 -24 -56q-48 -86 -48 -140q0 -52 34 -52q32 0 67 33v1q0 68 37 160q39 97 97 97zM257 564q0 -69 52 -69q47 0 77 57q2 3 3.5 7t2.5 6t2.5 4.5t3 3.5t3.5 2t4 1q14 0 14 -23q0 -40 -38.5 -86.5t-101.5 -46.5q-47 0 -72 26t-25 62q0 28 20 49.5t42 21.5q13 0 13 -15z
" />
    <glyph glyph-name="Uring" unicode="&#x16e;" horiz-adv-x="956" 
d="M681 701q31 0 50 -12t19 -35q0 -24 -22.5 -38.5t-58.5 -14.5q-18 0 -36 3q-79 -69 -134.5 -192.5t-55.5 -225.5q0 -70 28.5 -111t81.5 -41q69 0 126 67v5q0 14 2 36q7 58 27.5 137.5t51.5 162t75 139t89 56.5q56 0 56 -84q0 -65 -52.5 -184.5t-121.5 -230.5q0 -77 34 -77
q54 0 138 120q6 9 15 9q13 0 13 -15q0 -9 -5 -17q-111 -199 -227 -199q-58 0 -83 67q-44 -53 -100 -83t-112 -30q-86 0 -134.5 66t-48.5 167q0 129 74 266t165 215q-82 21 -134 21q-78 0 -129.5 -35t-51.5 -87q0 -27 14.5 -43.5t37.5 -16.5q26 0 48 19q7 5 11 5q14 0 14 -25
q0 -40 -38.5 -78.5t-96.5 -38.5q-55 0 -92 37t-37 98q0 93 87 155.5t227 62.5q26 0 55 -3t47.5 -5.5t52 -8.5t45.5 -8q42 25 86 25zM880 863q34 0 57.5 -22t23.5 -58q0 -41 -27 -70t-69 -29q-40 0 -60.5 23.5t-20.5 56.5q0 37 27.5 68t68.5 31zM871 729q17 0 29 14.5
t12 34.5q0 18 -10 29t-25 11q-17 0 -29.5 -14.5t-12.5 -33.5q0 -18 10.5 -29.5t25.5 -11.5z" />
    <glyph glyph-name="uring" unicode="&#x16f;" horiz-adv-x="446" 
d="M344 361q50 0 50 -60q0 -36 -23.5 -80.5t-49.5 -73.5q-1 -8 -1 -25q0 -44 31 -44q45 0 117 103q6 9 15 9q13 0 13 -15q0 -8 -5 -17q-93 -167 -194 -167q-57 0 -79 59q-55 -59 -121 -59q-46 0 -72 32t-26 81q0 75 34 160q46 114 91 114q26 0 41.5 -17t15.5 -43
q0 -14 -24 -56q-48 -86 -48 -140q0 -52 34 -52q32 0 67 33v1q0 68 37 160q39 97 97 97zM274 578q29 0 49.5 -19.5t20.5 -52.5q0 -36 -23.5 -62.5t-60.5 -26.5q-34 0 -52 21.5t-18 50.5q0 33 24.5 61t59.5 28zM266 462q13 0 22 12.5t9 27.5q0 14 -7.5 23t-18.5 9
q-13 0 -22 -12t-9 -27q0 -13 7 -23t19 -10z" />
    <glyph glyph-name="Uhungarumlaut" unicode="&#x170;" horiz-adv-x="956" 
d="M681 701q31 0 50 -12t19 -35q0 -24 -22.5 -38.5t-58.5 -14.5q-18 0 -36 3q-79 -69 -134.5 -192.5t-55.5 -225.5q0 -70 28.5 -111t81.5 -41q69 0 126 67v5q0 14 2 36q7 58 27.5 137.5t51.5 162t75 139t89 56.5q56 0 56 -84q0 -65 -52.5 -184.5t-121.5 -230.5q0 -77 34 -77
q54 0 138 120q6 9 15 9q13 0 13 -15q0 -9 -5 -17q-111 -199 -227 -199q-58 0 -83 67q-44 -53 -100 -83t-112 -30q-86 0 -134.5 66t-48.5 167q0 129 74 266t165 215q-82 21 -134 21q-78 0 -129.5 -35t-51.5 -87q0 -27 14.5 -43.5t37.5 -16.5q26 0 48 19q7 5 11 5q14 0 14 -25
q0 -40 -38.5 -78.5t-96.5 -38.5q-55 0 -92 37t-37 98q0 93 87 155.5t227 62.5q26 0 55 -3t47.5 -5.5t52 -8.5t45.5 -8q42 25 86 25zM929 853q0 -36 -64.5 -80.5t-104.5 -44.5q-22 0 -22 14q0 3 2 6t7 8.5t12 12.5t18.5 21.5t24.5 33.5q16 23 26 43t12.5 28t7 12t13.5 4
q19 0 43.5 -17t24.5 -41zM1069 843q0 -36 -64.5 -80.5t-104.5 -44.5q-22 0 -22 14q0 3 2 6t7 8.5t12 12.5t18.5 21.5t24.5 33.5q16 23 26 43t12.5 28t7 12t13.5 4q19 0 43.5 -17t24.5 -41z" />
    <glyph glyph-name="uhungarumlaut" unicode="&#x171;" horiz-adv-x="446" 
d="M344 361q50 0 50 -60q0 -36 -23.5 -80.5t-49.5 -73.5q-1 -8 -1 -25q0 -44 31 -44q45 0 117 103q6 9 15 9q13 0 13 -15q0 -8 -5 -17q-93 -167 -194 -167q-57 0 -79 59q-55 -59 -121 -59q-46 0 -72 32t-26 81q0 75 34 160q46 114 91 114q26 0 41.5 -17t15.5 -43
q0 -14 -24 -56q-48 -86 -48 -140q0 -52 34 -52q32 0 67 33v1q0 68 37 160q39 97 97 97zM316 550q0 -36 -51.5 -81t-75.5 -45q-12 0 -12 9q0 3 15 28q25 42 45 103q1 3 2.5 8t2.5 7.5t2 6t2 5t2.5 4t2.5 3l3 1.5t3.5 1.5t4.5 0.5q21 0 37.5 -15t16.5 -36zM436 550
q0 -36 -56.5 -83t-81.5 -47q-12 0 -12 9q0 7 12 22q39 49 60 113q1 3 2.5 8t2.5 7.5t2 6t2 5t2.5 4t2.5 3l3 1.5t3.5 1.5t4.5 0.5q21 0 37 -15t16 -36z" />
    <glyph glyph-name="Uogonek" unicode="&#x172;" horiz-adv-x="956" 
d="M681 701q31 0 50 -12t19 -35q0 -24 -22.5 -38.5t-58.5 -14.5q-18 0 -36 3q-79 -69 -134.5 -192.5t-55.5 -225.5q0 -70 28.5 -111t81.5 -41q69 0 126 67v5q0 14 2 36q7 58 27.5 137.5t51.5 162t75 139t89 56.5q56 0 56 -84q0 -65 -52.5 -184.5t-121.5 -230.5q0 -77 34 -77
q54 0 138 120q6 9 15 9q13 0 13 -15q0 -8 -5 -17q-29 -54 -70.5 -103.5t-71.5 -77.5t-52.5 -64.5t-22.5 -75.5t27 -39q4 0 9 2.5t8 2.5q10 0 10 -17q0 -33 -29.5 -61.5t-69.5 -28.5q-32 0 -54 21.5t-22 59.5q0 77 105 182q-54 4 -77 67q-44 -53 -100 -83t-112 -30
q-86 0 -134.5 66t-48.5 167q0 129 74 266t165 215q-82 21 -134 21q-78 0 -129.5 -35t-51.5 -87q0 -27 14.5 -43.5t37.5 -16.5q26 0 48 19q7 5 11 5q14 0 14 -25q0 -40 -38.5 -78.5t-96.5 -38.5q-55 0 -92 37t-37 98q0 93 87 155.5t227 62.5q26 0 55 -3t47.5 -5.5t52 -8.5
t45.5 -8q42 25 86 25z" />
    <glyph glyph-name="uogonek" unicode="&#x173;" horiz-adv-x="446" 
d="M344 361q50 0 50 -60q0 -36 -23.5 -80.5t-49.5 -73.5q-1 -8 -1 -25q0 -44 31 -44q45 0 117 103q6 9 15 9q13 0 13 -15q0 -8 -5 -17q-41 -75 -109 -143q-97 -97 -97 -150q0 -18 7.5 -27t17.5 -9q11 0 11 -12q0 -22 -23.5 -40.5t-56.5 -18.5q-29 0 -47.5 18.5t-18.5 50.5
q0 66 115 165q-52 3 -72 58q-55 -59 -121 -59q-46 0 -72 32t-26 81q0 75 34 160q46 114 91 114q26 0 41.5 -17t15.5 -43q0 -14 -24 -56q-48 -86 -48 -140q0 -52 34 -52q32 0 67 33v1q0 68 37 160q39 97 97 97z" />
    <glyph glyph-name="Wcircumflex" unicode="&#x174;" horiz-adv-x="1197" 
d="M690 701q31 0 50 -12t19 -35q0 -24 -22.5 -38.5t-58.5 -14.5q-10 0 -32 2q-85 -76 -144 -206t-59 -230q0 -57 22 -90t67 -33q78 0 135 70q1 108 29 217.5t77.5 184t104.5 74.5q51 0 51 -76q0 -60 -35.5 -159.5t-86.5 -191.5q2 -63 26.5 -103t64.5 -40q50 0 91.5 35.5
t67.5 92.5t40.5 125t14.5 135q0 102 -31.5 168.5t-91.5 66.5q-3 0 -10.5 -1.5t-9.5 -1.5q-11 0 -11 15q0 30 36 64t87 34q69 0 104 -61.5t35 -162.5q0 -95 -29.5 -203t-80 -202t-126 -155.5t-158.5 -61.5q-50 0 -91 36t-58 93q-44 -54 -102 -83.5t-117 -29.5q-83 0 -123 53
t-40 142q0 126 71 274t179 235q-82 21 -135 21q-87 0 -134 -34t-47 -88q0 -27 14.5 -43.5t37.5 -16.5q26 0 48 19q7 5 11 5q14 0 14 -25q0 -40 -38.5 -78.5t-96.5 -38.5q-55 0 -92 37t-37 98q0 93 87 155.5t227 62.5q26 0 55 -3t47.5 -5.5t52 -8.5t45.5 -8q42 25 86 25z
M728 735q-16 0 -16 13q0 4 5 9.5t14 12.5t12 10q42 36 85 88q12 14 17 17.5t17 3.5t32.5 -10.5t28.5 -29.5l6 -17q6 -18 14 -37q7 -16 15 -27.5t11 -16.5t3 -11q0 -13 -18 -13q-25 0 -56 20t-51 48q-89 -60 -119 -60z" />
    <glyph glyph-name="wcircumflex" unicode="&#x175;" horiz-adv-x="595" 
d="M342 -11q-66 0 -99 56q-55 -55 -115 -55q-59 0 -88 49t-29 118q0 86 30 152t70 66q29 0 45.5 -15.5t16.5 -40.5q0 -8 -2 -13.5t-8.5 -16t-10.5 -19.5q-29 -62 -29 -125q0 -42 15.5 -62t34.5 -20q24 0 51 32q-8 34 -8 67q0 76 28.5 136.5t70.5 60.5q28 0 42 -19.5
t14 -48.5q0 -58 -41 -148q6 -79 54 -79q39 0 69 50.5t30 115.5q0 34 -14.5 58t-35.5 27q-11 2 -11 15q0 23 21 44.5t51 21.5q41 0 63.5 -32.5t22.5 -79.5q0 -59 -32 -127t-88.5 -118t-117.5 -50zM228 424q-12 0 -12 10q0 9 18 25q38 37 81 111q18 31 35 31q33 0 38 -37
q8 -62 26 -103q11 -26 11 -27q0 -10 -13 -10q-15 0 -38 18t-40 43q-23 -23 -57 -42t-49 -19z" />
    <glyph glyph-name="Ycircumflex" unicode="&#x176;" horiz-adv-x="915" 
d="M382 -268q-119 0 -187.5 51.5t-68.5 129.5q0 61 41 100t99 39q33 0 62 -17t29 -36q0 -6 -15 -18q-44 -37 -44 -88q0 -41 29 -70.5t81 -29.5q73 0 133.5 51.5t99 129t62.5 176.5q-101 -104 -223 -104q-74 0 -116.5 52t-42.5 125q0 101 68 218t152 186q-80 21 -132 21
q-78 0 -129.5 -35t-51.5 -87q0 -27 14.5 -43.5t37.5 -16.5q26 0 48 19q7 5 11 5q14 0 14 -25q0 -40 -38.5 -78.5t-96.5 -38.5q-55 0 -92 37t-37 98q0 93 87 155.5t227 62.5q26 0 55 -3t47.5 -5.5t52 -8.5t45.5 -8q42 25 86 25q31 0 50 -12t19 -35q0 -24 -22.5 -38.5
t-58.5 -14.5q-17 0 -35 3q-65 -59 -114.5 -161t-49.5 -180q0 -46 20 -76t60 -30q34 0 78.5 19.5t84.5 61.5q94 472 238 472q61 0 61 -76q0 -108 -133 -326q-20 -111 -42.5 -190t-72 -164.5t-120.5 -136.5q-117 -85 -270 -85zM695 735q-16 0 -16 13q0 4 5 9.5t14 12.5t12 10
q42 36 85 88q12 14 17 17.5t17 3.5t32.5 -10.5t28.5 -29.5l6 -17q6 -18 14 -37q7 -16 15 -27.5t11 -16.5t3 -11q0 -13 -18 -13q-25 0 -56 20t-51 48q-89 -60 -119 -60z" />
    <glyph glyph-name="ycircumflex" unicode="&#x177;" horiz-adv-x="408" 
d="M124 378q26 0 41.5 -17t15.5 -43q0 -6 -2 -13t-4 -11t-8 -14.5l-10 -17.5q-44 -81 -44 -143q0 -22 8 -35.5t22 -13.5q34 0 67 36q34 255 132 255q48 0 48 -56q0 -71 -81 -191q0 -22 -2 -78q28 21 52.5 50.5t70.5 94.5q6 9 15 9q13 0 13 -15q0 -8 -5 -17
q-36 -66 -70.5 -105.5t-79.5 -68.5q-11 -107 -39 -164q-27 -56 -77.5 -89t-110.5 -33q-57 0 -96 29t-39 81q0 29 15 54t33.5 41t56 33t59.5 25t68 23l24 8l5 41q-50 -42 -105 -42q-46 0 -72 32t-26 81q0 75 34 160q46 114 91 114zM88 -246q36 0 63 48.5t40 139.5
q-67 -25 -108 -56t-41 -76q0 -27 13 -41.5t33 -14.5zM152 424q-12 0 -12 10q0 9 18 25q38 37 81 111q18 31 35 31q33 0 38 -37q8 -62 26 -103q11 -26 11 -27q0 -10 -13 -10q-15 0 -38 18t-40 43q-23 -23 -57 -42t-49 -19z" />
    </font>
</defs>
</svg>
